<?xml version="1.0" standalone="no"?>
<!DOCTYPE svg PUBLIC "-//W3C//DTD SVG 1.1//EN" "http://www.w3.org/Graphics/SVG/1.1/DTD/svg11.dtd" >
<svg xmlns="http://www.w3.org/2000/svg" xmlns:xlink="http://www.w3.org/1999/xlink" version="1.1">
<metadata>
Created by FontForge 20170731 at Mon Sep  3 10:40:23 2018
 By Aleksey,,,
Copyright (c) 2017 by Svet Simov. All rights reserved.
</metadata>
<defs>
<font id="Colus-Regular" horiz-adv-x="600" >
  <font-face 
    font-family="Colus"
    font-weight="400"
    font-stretch="normal"
    units-per-em="1000"
    panose-1="0 0 5 0 0 0 0 0 0 0"
    ascent="800"
    descent="-200"
    x-height="695"
    cap-height="695"
    bbox="-480 -271 1148 1097"
    underline-thickness="50"
    underline-position="-150"
    unicode-range="U+0020-25CA"
  />
<missing-glyph horiz-adv-x="500" 
d="M410 -200h-317v1000h317v-1000zM168 733v-33h65v-37h-66v-33h166v33h-66v37h66v33h-165zM167 604v-104h166v34h-66v70h-100zM233 534h-33v36h33v-36zM167 473v-33h66v-37h-66v-33h100v70h66v33h-166zM300 413v-66h-133v-34h166v100h-33zM233 291v-56h34v23h33v-47h-100
v80h-33v-113h166v113h-100zM167 118v-113h166v113h-166zM300 38h-100v47h100v-47zM167 -18v-33h70l-70 -47v-33h166v33h-102l70 47h32v33h-166z" />
    <glyph glyph-name=".notdef" horiz-adv-x="500" 
d="M410 -200h-317v1000h317v-1000zM168 733v-33h65v-37h-66v-33h166v33h-66v37h66v33h-165zM167 604v-104h166v34h-66v70h-100zM233 534h-33v36h33v-36zM167 473v-33h66v-37h-66v-33h100v70h66v33h-166zM300 413v-66h-133v-34h166v100h-33zM233 291v-56h34v23h33v-47h-100
v80h-33v-113h166v113h-100zM167 118v-113h166v113h-166zM300 38h-100v47h100v-47zM167 -18v-33h70l-70 -47v-33h166v33h-102l70 47h32v33h-166z" />
    <glyph glyph-name=".null" horiz-adv-x="0" 
 />
    <glyph glyph-name="nonmarkingreturn" horiz-adv-x="333" 
 />
    <glyph glyph-name="space" unicode=" " horiz-adv-x="250" 
 />
    <glyph glyph-name="exclam" unicode="!" horiz-adv-x="270" 
d="M63 207q12 43 12 103q0 30 -1 43l-14 265q-5 84 -31 143v2h208v-2q-27 -56 -31 -143l-15 -265q-1 -13 -1 -41q0 -58 13 -105v-2h-140v2zM71 15.5q-26 25.5 -26 62.5t26 62.5t63 25.5t62 -25.5t25 -62.5t-25 -62.5t-62 -25.5t-63 25.5z" />
    <glyph glyph-name="quotedbl" unicode="&#x22;" horiz-adv-x="330" 
d="M32 499q0 9 -2 41l-9 119q-3 38 -8 55h122q-5 -17 -8 -55l-8 -119q-2 -34 -2 -43q0 -14 1 -21h-87zM214 499q0 9 -2 41l-9 119q-3 38 -8 55h122q-5 -17 -8 -55l-8 -119q-2 -34 -2 -43q0 -14 1 -21h-87z" />
    <glyph glyph-name="numbersign" unicode="#" horiz-adv-x="761" 
d="M583 418l-32 -132h28q40 0 75 9.5t52 25.5l2 -1l-39 -130h-142l-16 -64q-15 -65 -15 -96q0 -19 4 -28l-2 -2h-165l-1 2q14 13 31.5 47.5t28.5 79.5l15 61h-141l-16 -64q-15 -57 -15 -94q0 -21 4 -30l-2 -2h-167l-1 2q15 12 33 46.5t29 80.5l15 61h-21q-80 0 -120 -42
l-2 1l32 137h134l33 132h-27q-80 0 -120 -42l-2 1l32 137h140l15 61q11 43 11 74q0 33 -14 44l1 2h175l1 -2q-18 -20 -30 -48t-23 -70l-15 -61h140l15 61q12 47 12 76t-13 42l1 2h173l1 -2q-18 -20 -30 -48t-23 -70l-15 -61h22q39 0 74 11t53 28l2 -1l-39 -134h-136z
M463 418h-141l-32 -132h140z" />
    <glyph glyph-name="dollar" unicode="$" horiz-adv-x="516" 
d="M475 96.5q-24 -44.5 -67 -74t-100 -38.5v-5q0 -58 13 -78l-1 -2h-130l-1 2q15 21 15 78v4q-84 6 -151 35l-17 160l2 1q36 -54 91.5 -75t124.5 -21q112 0 112 99q0 32 -17.5 54t-44 36t-72.5 32q-60 24 -98 46t-65 62.5t-27 105.5q0 66 46 118t124 70v14q0 59 -15 78l1 2
h130l1 -2q-13 -20 -13 -78v-8q60 -3 123 -17l12 -154h-2q-57 68 -173 68q-51 0 -77.5 -21.5t-26.5 -59.5q0 -31 17 -52t42.5 -34t72.5 -31q61 -23 100.5 -45t67 -64.5t27.5 -109.5q0 -51 -24 -95.5z" />
    <glyph glyph-name="percent" unicode="%" horiz-adv-x="785" 
d="M93 398.5q-39 22.5 -61.5 61.5t-22.5 85t22.5 85t61.5 61.5t85 22.5t85 -22.5t61.5 -61.5t22.5 -85t-22.5 -85t-61.5 -61.5t-85 -22.5t-85 22.5zM136 2q41 33 73 97l245 495q28 55 44 101h145v-2q-31 -27 -60 -85l-262 -533q-24 -49 -32 -75h-153v2zM227 490.5
q19 20.5 19 54.5t-19 54.5t-48 20.5q-30 0 -49.5 -21t-19.5 -54q0 -34 20 -54.5t49 -20.5t48 20.5zM522 3.5q-39 22.5 -61.5 61.5t-22.5 85t22.5 85t61.5 61.5t85 22.5t85 -22.5t61.5 -61.5t22.5 -85t-22.5 -85t-61.5 -61.5t-85 -22.5t-85 22.5zM656 99q19 20 19 51
t-19 51.5t-48 20.5q-30 0 -49.5 -20.5t-19.5 -51.5t19.5 -51t49.5 -20q29 0 48 20z" />
    <glyph glyph-name="ampersand" unicode="&#x26;" horiz-adv-x="684" 
d="M171 7q-62 26 -95.5 74t-33.5 113q0 53 29.5 103t75.5 72v2q-38 21 -59.5 57t-21.5 79q0 61 32.5 107t90.5 71t133 25q89 0 181 -30l15 -149l-2 -1q-23 31 -71.5 53.5t-106.5 22.5q-59 0 -94.5 -25t-35.5 -64q0 -47 35.5 -73t95.5 -26l209 1q39 0 73 11t53 30l2 -1
l-21 -140h-67v-121q0 -66 -32.5 -115t-94 -75.5t-144.5 -26.5q-84 0 -146 26zM423.5 115.5q37.5 31.5 37.5 88.5v115h-118q-73 0 -115.5 -30.5t-42.5 -84.5q0 -56 37 -88t100 -32q64 0 101.5 31.5z" />
    <glyph glyph-name="quotesingle" unicode="'" horiz-adv-x="148" 
d="M32 499q0 9 -2 41l-9 119q-3 38 -8 55h122q-5 -17 -8 -55l-8 -119q-2 -34 -2 -43q0 -14 1 -21h-87z" />
    <glyph glyph-name="parenleft" unicode="(" horiz-adv-x="314" 
d="M57 71q-29 121 -29 260t29 260t100 249l147 -47v-2q-148 -101 -148 -460t148 -460v-2l-147 -47q-71 128 -100 249z" />
    <glyph glyph-name="parenright" unicode=")" horiz-adv-x="314" 
d="M257 591q29 -121 29 -260t-29 -260t-100 -249l-147 47v2q148 101 148 460t-148 460v2l147 47q71 -128 100 -249z" />
    <glyph glyph-name="asterisk" unicode="*" horiz-adv-x="427" 
d="M154 359q15 19 13 68l-1 48l-38 -25q-41 -25 -51 -47h-2l-60 101l1 2q23 -2 66 23l39 23l-39 21q-45 24 -65 23l-2 2l60 101h2q10 -22 51 -47l38 -22l1 45q2 47 -13 68l1 2h117l1 -2q-6 -8 -8.5 -22.5t-5.5 -45.5l-4 -44l43 22q20 11 33.5 23t18.5 23h2l60 -101l-1 -2
q-17 1 -67 -22l-47 -22l47 -24q45 -23 66 -22l2 -2l-60 -101h-2q-9 22 -52 46l-43 25l4 -47q3 -31 5.5 -45.5t8.5 -22.5l-1 -2h-117z" />
    <glyph glyph-name="plus" unicode="+" horiz-adv-x="476" 
d="M302 275v-79q0 -41 3.5 -58t13.5 -31l-1 -2h-159l-2 2q10 14 13.5 31t3.5 58v79h-52q-43 0 -67 -5.5t-41 -19.5l-2 1l15 124h147v84q0 41 -3.5 58t-13.5 31l1 2h160l1 -2q-10 -14 -13.5 -31t-3.5 -58v-84h54q41 0 65 6.5t41 19.5l2 -1l-13 -125h-149z" />
    <glyph glyph-name="comma" unicode="," horiz-adv-x="235" 
d="M180.5 130q24.5 -31 24.5 -81q0 -55 -24 -106t-65 -93l-73 33v2q21 18 35.5 45.5t19.5 55.5q-32 5 -53 29.5t-21 57.5q0 37 26 62.5t63 25.5q43 0 67.5 -31z" />
    <glyph glyph-name="hyphen" unicode="-" horiz-adv-x="384" 
d="M3 266l19 114h282q42 0 75 15l2 -1l-16 -115h-276q-56 0 -84 -14z" />
    <glyph glyph-name="period" unicode="." horiz-adv-x="238" 
d="M57 15.5q-26 25.5 -26 62.5t26 62.5t63 25.5t62 -25.5t25 -62.5t-25 -62.5t-62 -25.5t-63 25.5z" />
    <glyph glyph-name="slash" unicode="/" horiz-adv-x="354" 
d="M-27 -102q17 14 36.5 57t34.5 102l137 556q14 56 14 92q0 32 -12 56l1 2h196l1 -2q-27 -30 -41.5 -62.5t-27.5 -85.5l-138 -560q-14 -59 -14 -98q0 -37 11 -57l-1 -2h-196z" />
    <glyph glyph-name="zero" unicode="0" horiz-adv-x="694" 
d="M131 72.5q-73 91.5 -73 256.5q0 167 77 258.5t215 91.5t212 -85.5t74 -252.5q0 -172 -78 -266t-217 -94q-137 0 -210 91.5zM454 145.5q38 65.5 38 187.5t-37 185t-112 63q-67 0 -104 -63.5t-37 -180.5q0 -127 35.5 -192t110.5 -65q68 0 106 65.5z" />
    <glyph glyph-name="one" unicode="1" horiz-adv-x="389" 
d="M301.5 55q15.5 -38 35.5 -53l-1 -2h-232l-1 2q20 15 35.5 53.5t15.5 94.5v398q-39 -2 -67 -13t-55 -37l-2 1l37 166q32 -6 135 -6h134l1 -2q-20 -15 -35.5 -53.5t-15.5 -94.5v-360q0 -56 15.5 -94z" />
    <glyph glyph-name="two" unicode="2" horiz-adv-x="522" 
d="M493 176l-32 -182q-49 6 -149 6h-303v3l186 237q68 86 93.5 131.5t25.5 88.5q0 55 -31 82.5t-79 27.5q-45 0 -83 -17.5t-71 -63.5l-2 1l29 153q79 32 165 32q63 0 110.5 -25t74 -70t26.5 -103q0 -41 -11 -75.5t-41 -78t-87 -107.5l-93 -105h130q44 0 75.5 14.5t64.5 51.5
z" />
    <glyph glyph-name="three" unicode="3" horiz-adv-x="542" 
d="M446.5 339.5q47.5 -51.5 47.5 -127.5q0 -67 -33 -119t-90.5 -80.5t-129.5 -28.5q-103 0 -177 37l-19 139l2 1q27 -43 68.5 -60.5t115.5 -17.5q53 0 88.5 32t35.5 87q0 58 -42 85.5t-115 27.5q-35 0 -57 -2v2l140 233h-97q-49 0 -80.5 -11t-54.5 -38l-2 1l35 165
q50 -6 147 -6h237v-2l-149 -249q82 -17 129.5 -68.5z" />
    <glyph glyph-name="four" unicode="4" horiz-adv-x="556" 
d="M445 155v-6q0 -56 15.5 -94t35.5 -53v-2h-220v2q20 15 35.5 53.5t15.5 94.5v5h-319v2l126 391q17 54 17 91q0 14 -1 20h188v-2q-26 -23 -46.5 -61t-47.5 -110l-84 -232l167 -1v107q0 35 -5 66.5t-14 43.5l1 2l161 40l1 -2q-26 -28 -26 -111v-146q35 2 60 12.5t44 35.5
l2 -1l-22 -151q-42 4 -84 6z" />
    <glyph glyph-name="five" unicode="5" horiz-adv-x="539" 
d="M428.5 366q69.5 -52 69.5 -154q0 -68 -34.5 -120t-95 -80t-135.5 -28q-45 0 -90 9.5t-78 26.5l-19 140l2 1q22 -38 66 -58t107 -20q64 0 101 32.5t37 86.5q0 57 -46 86.5t-118 29.5q-76 0 -126 -10l-2 1l25 351l196 -1q79 0 148 6l28 -175l-2 -1q-25 32 -58 45t-90 13
h-123l-9 -133q25 4 53 4q124 0 193.5 -52z" />
    <glyph glyph-name="six" unicode="6" horiz-adv-x="616" 
d="M126.5 68.5q-68.5 84.5 -68.5 247.5q0 113 36.5 193.5t104.5 123t160 42.5q74 0 137 -15l14 -139l-2 -1q-23 30 -60 43t-89 13q-44 0 -83 -24.5t-64.5 -69.5t-30.5 -106l2 -1q32 36 69 52.5t86 16.5q61 0 113.5 -25t84.5 -75t32 -120q0 -65 -30 -120t-87.5 -87.5
t-136.5 -32.5q-119 0 -187.5 84.5zM399.5 117q30.5 35 30.5 98q0 60 -31 95t-81 35t-81 -35t-31 -95q0 -63 31 -98t81 -35q51 0 81.5 35z" />
    <glyph glyph-name="seven" unicode="7" horiz-adv-x="511" 
d="M313 139q-15 -45 -15 -74q0 -38 23 -63v-2h-217v2q26 31 43.5 60t34.5 74l158 402h-181q-52 0 -84.5 -15t-53.5 -45l-2 1l31 186q48 -6 141 -6h301v-2z" />
    <glyph glyph-name="eight" unicode="8" horiz-adv-x="583" 
d="M540 188q0 -63 -32 -109t-88.5 -70.5t-128.5 -24.5q-73 0 -130 24.5t-88.5 68.5t-31.5 101q0 47 23.5 85.5t68.5 64.5q-38 26 -55.5 61t-17.5 82q0 99 64.5 151.5t171.5 52.5q68 0 118.5 -24.5t77.5 -66.5t27 -93q0 -85 -66 -142q87 -46 87 -161zM217 554.5
q-26 -21.5 -26 -57.5q0 -30 15.5 -48t40 -27.5t66.5 -21.5l41 -12q18 20 29 45.5t11 47.5q0 42 -30 68.5t-78 26.5q-43 0 -69 -21.5zM378 106q29 23 29 62q0 31 -18.5 50t-46.5 29.5t-78 24.5q-13 3 -31 8q-57 -31 -57 -92q0 -46 35.5 -75.5t89.5 -29.5q48 0 77 23z" />
    <glyph glyph-name="nine" unicode="9" horiz-adv-x="609" 
d="M113 1l-14 139l2 1q23 -30 60 -43t89 -13q44 0 83 24.5t64.5 69.5t30.5 106l-2 1q-32 -36 -69 -52.5t-86 -16.5q-61 0 -113.5 25t-84.5 75t-32 120q0 65 30 120t87.5 87.5t136.5 32.5q119 0 187.5 -84.5t68.5 -247.5q0 -113 -36.5 -193.5t-104.5 -123t-160 -42.5
q-74 0 -137 15zM370 352.5q33 36.5 33 93.5q0 60 -33 96.5t-80 36.5q-29 0 -54.5 -16.5t-41 -46.5t-15.5 -70q0 -37 15.5 -67t41 -46.5t54.5 -16.5q47 0 80 36.5z" />
    <glyph glyph-name="colon" unicode=":" horiz-adv-x="232" 
d="M54 15.5q-26 25.5 -26 62.5t26 62.5t63 25.5t62 -25.5t25 -62.5t-25 -62.5t-62 -25.5t-63 25.5zM54 375.5q-26 25.5 -26 62.5t26 62.5t63 25.5t62 -25.5t25 -62.5t-25 -62.5t-62 -25.5t-63 25.5z" />
    <glyph glyph-name="semicolon" unicode=";" horiz-adv-x="252" 
d="M187.5 130q24.5 -31 24.5 -81q0 -55 -24 -106t-65 -93l-73 33v2q21 18 35.5 45.5t19.5 55.5q-32 5 -53 29.5t-21 57.5q0 37 26 62.5t63 25.5q43 0 67.5 -31zM59 366.5q-26 25.5 -26 62.5t26 62.5t63 25.5t62 -25.5t25 -62.5t-25 -62.5t-62 -25.5t-63 25.5z" />
    <glyph glyph-name="less" unicode="&#x3c;" horiz-adv-x="380" 
d="M347 190l-18 -154l-2 -1q-24 30 -62 52l-274 154v76l275 160q41 24 64 49l2 -1l13 -142l-2 -2q-17 1 -28.5 -2t-28.5 -13l-142 -82l145 -75q4 -2 15.5 -8t20.5 -8t20 -1z" />
    <glyph glyph-name="equal" unicode="=" horiz-adv-x="488" 
d="M19 324l14 117h329q41 0 65 6.5t41 19.5l2 -1l-13 -123h-329q-42 0 -66 -5t-41 -15zM18 160l15 125h329q69 0 105 20l2 -1l-12 -120h-329q-43 0 -67 -5.5t-41 -19.5z" />
    <glyph glyph-name="greater" unicode="&#x3e;" horiz-adv-x="396" 
d="M389 316v-76l-275 -160q-41 -24 -64 -49l-2 1l-13 142l2 2q17 -1 28.5 2t28.5 13l142 82l-145 75q-4 2 -15.5 8t-20.5 8t-20 1l-2 2l18 154l2 1q24 -30 62 -52z" />
    <glyph glyph-name="question" unicode="?" horiz-adv-x="455" 
d="M147 358q161 101 161 198q0 55 -28 83t-83 28q-57 0 -96.5 -19.5t-74.5 -63.5l-2 1l24 142q38 21 82.5 32t88.5 11q64 0 114.5 -25.5t79 -70.5t28.5 -102q0 -48 -17.5 -86.5t-43 -67t-69.5 -69.5q-53 -49 -82 -79t-51 -70h-2zM148 15.5q-26 25.5 -26 62.5t26 62.5
t63 25.5t62 -25.5t25 -62.5t-25 -62.5t-62 -25.5t-63 25.5z" />
    <glyph glyph-name="at" unicode="@" horiz-adv-x="808" 
d="M218 31q-83 49 -128.5 132.5t-45.5 184.5t45.5 184t128.5 132t191 49q106 0 186.5 -41t124.5 -116.5t44 -174.5q0 -54 -18 -103.5t-55.5 -81.5t-93.5 -32q-49 0 -76.5 14t-43.5 43q-45 -60 -118 -60q-57 0 -94.5 40.5t-37.5 112.5q0 61 22.5 111t62.5 79.5t92 29.5
q54 0 82 -31l4 31h88v-2q-11 -9 -16 -35q-5 -38 -12 -96.5t-11 -93.5q-3 -29 11 -48.5t44 -19.5q39 0 60.5 38t21.5 90q0 122 -68.5 190.5t-198.5 68.5q-79 0 -140 -38.5t-94.5 -102.5t-33.5 -137q0 -82 33 -144.5t93.5 -97.5t141.5 -35q43 0 80.5 14t50.5 42h2l49 -96
q-31 -20 -85 -34.5t-97 -14.5q-108 0 -191 49zM448 283q25 40 25 95q0 37 -17.5 57t-48.5 20q-29 0 -50.5 -20.5t-32.5 -51t-11 -59.5q0 -43 16 -62t53 -19q41 0 66 40z" />
    <glyph glyph-name="A" unicode="A" horiz-adv-x="676" 
d="M643 65.5q28 -44.5 51 -63.5v-2h-226v2q16 12 16 46q0 32 -16 77l-9 24h-258l-9 -24q-16 -41 -16 -76t14 -47v-2h-210v2q23 20 50.5 64t46.5 98l143 412q9 27 9 49q0 23 -8 41t-19 27v2h265v-2q-11 -10 -19 -27.5t-8 -40.5q0 -22 9 -49l147 -412q19 -54 47 -98.5z
M308 465.5q-13 -45.5 -37 -112.5l-37 -106h192l-37 106q-25 72 -38 115t-20 94h-4q-6 -51 -19 -96.5z" />
    <glyph glyph-name="B" unicode="B" horiz-adv-x="642" 
d="M519.5 341q34.5 -24 55 -60t20.5 -76q0 -96 -65 -150.5t-169 -54.5h-304v2q24 18 41.5 55.5t17.5 98.5v384q0 58 -16.5 96.5t-42.5 56.5v2h276q113 0 169.5 -43t56.5 -132q0 -37 -16.5 -69t-43 -52.5t-55.5 -25.5v-3q41 -5 75.5 -29zM253 597v-180h72q44 0 68.5 24.5
t24.5 71.5q0 42 -24 63t-69 21h-72zM424 128.5q28 30.5 28 81.5t-28 80.5t-83 29.5h-88v-222h88q55 0 83 30.5z" />
    <glyph glyph-name="C" unicode="C" horiz-adv-x="657" 
d="M210 31.5q-80 46.5 -123 128t-43 183.5q0 111 46.5 194t131.5 127.5t198 44.5q91 0 176 -25l16 -173l-2 -1q-30 46 -80.5 70t-110.5 24q-105 0 -165.5 -67.5t-60.5 -183.5q0 -118 55.5 -190t157.5 -72q77 0 130 28.5t95 83.5l2 -1l-24 -179q-108 -38 -213 -38
q-106 0 -186 46.5z" />
    <glyph glyph-name="D" unicode="D" horiz-adv-x="741" 
d="M59 2q22 15 38 53t16 95v395q0 52 -16.5 93t-37.5 55v2h290q105 0 183.5 -41.5t121.5 -119.5t43 -186q0 -167 -91 -257.5t-273 -90.5h-274v2zM343 99q100 0 153 64t53 185q0 127 -52 187.5t-159 60.5h-88v-497h93z" />
    <glyph glyph-name="E" unicode="E" 
d="M562 191l-28 -199q-28 5 -53.5 6.5t-68.5 1.5h-353v2q22 15 38 53t16 95v395q0 58 -16 95.5t-38 52.5v2h359q71 0 106 8l17 -179l-2 -1q-18 37 -58 55.5t-99 18.5h-132v-176h76q63 0 93 1.5t63 5.5l-29 -168h-2q-12 33 -39 48t-70 15h-92v-225h109q66 0 117.5 24t83.5 70
z" />
    <glyph glyph-name="F" unicode="F" horiz-adv-x="576" 
d="M542 516l-2 -1q-49 80 -178 80h-112v-186h88q110 0 150 8l-32 -180h-2q-10 32 -40.5 52t-68.5 20h-95v-159q0 -58 16 -95.5t38 -52.5v-2h-245v2q22 15 38 53t16 95v395q0 67 -14.5 100.5t-38.5 47.5v2h335q85 0 129 8z" />
    <glyph glyph-name="G" unicode="G" horiz-adv-x="702" 
d="M677 372v-2q-17 -11 -25 -46t-8 -102v-165q-50 -32 -119 -52t-129 -20q-103 0 -183 45t-124.5 125t-44.5 183q0 114 46.5 198t130.5 128.5t195 44.5q104 0 190 -27l15 -163l-2 -1q-77 86 -206 86q-104 0 -162.5 -68.5t-58.5 -187.5t57 -188t157 -69q63 0 110 22v163
q-101 -2 -149 -52l-2 1l16 153q33 -6 122 -6h174z" />
    <glyph glyph-name="H" unicode="H" horiz-adv-x="766" 
d="M669 640q-16 -38 -16 -95v-399q0 -55 16 -92.5t38 -51.5v-2h-242v2q20 15 35.5 52.5t15.5 91.5v175h-266v-171q0 -57 15 -95t36 -53v-2h-242v2q22 15 38 53t16 95v395q0 58 -16 95.5t-38 52.5v2h242v-2q-20 -15 -35.5 -53.5t-15.5 -94.5v-124h266v124q0 57 -15 95t-36 53
v2h242v-2q-22 -15 -38 -53z" />
    <glyph glyph-name="I" unicode="I" horiz-adv-x="364" 
d="M59 2q22 15 38 53t16 95v395q0 58 -16 95.5t-38 52.5v2h246v-2q-22 -15 -38 -53t-16 -95v-395q0 -58 16 -95.5t38 -52.5v-2h-246v2z" />
    <glyph glyph-name="J" unicode="J" horiz-adv-x="449" 
d="M16 -7l-10 155h2q11 -20 36 -40.5t66 -20.5q56 0 84 28.5t28 83.5v345q0 58 -16 96t-38 53v2h245v-2q-22 -15 -38 -53t-16 -95v-310q0 -133 -58 -195t-185 -62q-43 0 -100 15z" />
    <glyph glyph-name="K" unicode="K" horiz-adv-x="680" 
d="M264.5 54.5q14.5 -37.5 34.5 -52.5v-2h-240v2q22 15 38 53t16 95v399q0 55 -16 92.5t-38 51.5v2h240v-2q-20 -15 -34.5 -53t-14.5 -95v-396q0 -57 14.5 -94.5zM652.5 53.5q24.5 -21.5 60.5 -36.5v-2l-201 -34q-4 17 -17.5 43t-31.5 52l-202 300l169 239q35 50 33 80h208
v-2q-29 -14 -60 -44t-58 -67l-141 -191l190 -278q26 -38 50.5 -59.5z" />
    <glyph glyph-name="L" unicode="L" horiz-adv-x="554" 
d="M474.5 -1.5q-23.5 1.5 -60.5 1.5h-355v2q22 15 38 53t16 95v399q0 55 -16 92.5t-38 51.5v2h245v-2q-22 -15 -38 -53t-16 -95v-445h99q66 0 117 22.5t83 67.5l2 -1l-26 -197q-27 5 -50.5 6.5z" />
    <glyph glyph-name="M" unicode="M" horiz-adv-x="958" 
d="M32 2q26 29 41 62.5t19 82.5l26 388l1 19q0 44 -13.5 83t-41.5 56l1 2h229q-7 -8 -7 -24q0 -27 23 -67l99 -170q50 -86 62 -165h4q10 41 26.5 75.5t47.5 89.5l98 173q22 40 22 65q0 15 -7 23h231l1 -2q-31 -17 -46 -64.5t-12 -93.5l31 -388q3 -39 18.5 -79.5t40.5 -65.5
l-1 -2h-229l-1 2q14 12 24 40t10 64q0 13 -1 20l-16 207q-2 34 -2 54q0 55 8 118h-4q-15 -48 -33 -86.5t-44 -83.5l-111 -188q-42 -70 -47 -121h-8q-7 52 -50 120l-119 190q-25 40 -41.5 79t-30.5 90h-4q7 -70 7 -125q0 -33 -1 -47l-11 -207q-2 -44 7.5 -77t25.5 -47l-1 -2
h-220z" />
    <glyph glyph-name="N" unicode="N" horiz-adv-x="790" 
d="M59 2q22 15 38 53t16 95v400q0 44 -14 84.5t-40 58.5v2h227q2 -17 10 -37.5t31 -58.5l144 -242q42 -71 92 -198h4q-16 91 -16 206v180q0 58 -14.5 96t-36.5 52v2h231v-2q-22 -14 -38 -52.5t-16 -95.5v-395q0 -57 16 -95.5t38 -52.5v-2h-211q-18 43 -50 95l-141 229
q-35 57 -58 107.5t-46 120.5h-4q11 -65 14.5 -117t3.5 -115v-170q0 -58 14.5 -96t36.5 -52v-2h-231v2z" />
    <glyph glyph-name="O" unicode="O" horiz-adv-x="816" 
d="M210 27q-81 47 -123.5 129t-42.5 185q0 112 44.5 196.5t128.5 131t198 46.5q106 0 187 -45t125.5 -127t44.5 -188q0 -110 -46.5 -195.5t-131 -132.5t-194.5 -47q-109 0 -190 47zM519.5 116q48.5 32 76 91.5t27.5 137.5q0 126 -58 196t-160 70q-65 0 -113 -32.5t-73.5 -91
t-25.5 -136.5q0 -125 56 -196t161 -71q61 0 109.5 32z" />
    <glyph glyph-name="P" unicode="P" horiz-adv-x="614" 
d="M518 636q66 -59 66 -167q0 -120 -65 -180t-187 -60h-82v-83q0 -55 16 -92.5t38 -51.5v-2h-245v2q22 15 38 53t16 95v399q0 55 -16 92.5t-38 51.5v2h273q120 0 186 -59zM442 462q0 69 -32.5 101.5t-100.5 32.5h-59v-267l59 -1q133 -1 133 134z" />
    <glyph glyph-name="Q" unicode="Q" horiz-adv-x="816" 
d="M689.5 -33.5q29.5 -25.5 77.5 -42.5v-2l-205 -32q-8 30 -14 43t-22 39l-14 22q-53 -14 -112 -14q-109 0 -190 47t-123.5 129t-42.5 185q0 112 44.5 196.5t128.5 131t198 46.5q106 0 187 -45t125.5 -127t44.5 -188q0 -101 -39 -181t-110 -129l3 -4q34 -49 63.5 -74.5z
M454 89l-44 72q-38 60 -87 90v2l168 12q6 -32 29 -67l35 -52q32 35 50 86t18 113q0 126 -58 196t-160 70q-65 0 -113 -32.5t-73.5 -91.5t-25.5 -136q0 -125 56 -196t161 -71q21 0 44 5z" />
    <glyph glyph-name="R" unicode="R" horiz-adv-x="661" 
d="M683 18v-2l-205 -37q-19 57 -51 111l-155 265h48q66 0 100 29.5t34 94.5q0 55 -35 87t-99 31l-70 -1v-450q0 -54 15 -91.5t35 -52.5v-2h-241v2q22 14 38 52.5t16 95.5v399q0 55 -16 92.5t-38 51.5v2h284q119 0 186 -56.5t67 -154.5q0 -78 -35.5 -127.5t-100.5 -70.5
l93 -151q58 -93 130 -117z" />
    <glyph glyph-name="S" unicode="S" horiz-adv-x="548" 
d="M148.5 -4.5q-51.5 10.5 -83.5 29.5l-17 168l2 1q42 -56 90.5 -80.5t108.5 -24.5q124 0 124 90q0 32 -17 54.5t-42.5 36.5t-69.5 32q-59 24 -95.5 46.5t-62.5 63.5t-26 106q0 51 28.5 94.5t82.5 69.5t129 26q76 0 157 -21l13 -164h-2q-30 46 -69.5 64t-88.5 18
q-115 0 -115 -77q0 -27 15.5 -46t39 -31.5t66.5 -30.5q61 -25 100 -49t67 -68t28 -114q0 -58 -28.5 -104t-85.5 -73t-138 -27q-59 0 -110.5 10.5z" />
    <glyph glyph-name="T" unicode="T" horiz-adv-x="592" 
d="M572 520l-2 -1q-18 32 -52.5 53t-77.5 21h-75v-435q0 -61 17.5 -101.5t43.5 -54.5v-2h-259v2q24 14 42.5 55.5t18.5 100.5v435h-76q-43 0 -77.5 -21t-52.5 -53l-2 1l17 183q61 -8 137 -8h244q76 0 137 8z" />
    <glyph glyph-name="U" unicode="U" horiz-adv-x="744" 
d="M161 59q-71 76 -71 227v259q0 57 -16 95t-38 53v2h243v-2q-20 -15 -35.5 -53t-15.5 -95v-270q0 -102 34 -144.5t116 -42.5q73 0 107 45.5t34 141.5v270q0 56 -15.5 94.5t-35.5 53.5v2h240v-2q-22 -15 -38 -52.5t-16 -95.5v-259q0 -152 -71 -227.5t-216 -75.5
q-135 0 -206 76z" />
    <glyph glyph-name="V" unicode="V" horiz-adv-x="695" 
d="M225 2q10 10 16 28t6 41q0 31 -13 69l-151 419q-15 40 -38.5 76.5t-52.5 57.5v2h234v-2q-17 -20 -17 -55q0 -21 7 -41l88 -254q40 -118 52 -205h4q9 52 24 109.5t28 96.5l84 251q9 27 9 51q0 30 -14 47v2h214v-2q-52 -31 -84 -125l-150 -428q-13 -38 -13 -70
q0 -46 22 -68v-2h-255v2z" />
    <glyph glyph-name="W" unicode="W" horiz-adv-x="1052" 
d="M168 2q32 35 32 91q0 30 -9 63l-116 422q-24 91 -68 115v2h242v-2q-31 -26 -31 -82q0 -23 5 -42l57 -223q11 -43 16.5 -83t7.5 -98h4q23 95 70 191l107 219q35 74 49 126h6q10 -33 20 -60.5t29 -64.5l97 -190q34 -68 50.5 -116t28.5 -105h4q7 101 31 204l49 200
q6 23 6 44q0 52 -31 80l1 2h222v-2q-25 -14 -42 -46.5t-26 -69.5l-101 -421q-8 -35 -8 -60q0 -52 31 -94v-2h-234v2q12 20 12 50q0 37 -18 74l-73 156q-16 35 -29 77.5t-18 75.5h-4q-18 -73 -44 -130l-84 -179q-18 -40 -18 -75q0 -30 13 -49v-2h-236v2z" />
    <glyph glyph-name="X" unicode="X" horiz-adv-x="637" 
d="M617 73.5q37 -36.5 67 -56.5v-2l-209 -37q0 20 -15.5 51.5t-47.5 81.5l-102 158l-110 -179q-20 -33 -20 -57q0 -20 14 -31v-2h-236v2q26 12 59.5 47t64.5 82l155 239l-158 236q-21 31 -41 50.5t-49 36.5v2h233v-2q-2 -12 -2 -17q0 -17 7 -35t22 -43l76 -127l71 122
q15 27 22 43t7 30t-7 27v2h220v-2q-24 -9 -54 -40t-61 -81l-123 -202l147 -212q33 -48 70 -84.5z" />
    <glyph glyph-name="Y" unicode="Y" horiz-adv-x="643" 
d="M662 695v-2q-32 -24 -80 -102l-189 -312v-121q0 -61 17.5 -101.5t43.5 -54.5v-2h-259v2q24 14 42.5 55.5t18.5 100.5v116l-192 317q-46 75 -81 102v2h213v-2q-3 -9 -3 -20q0 -37 26 -82l77 -133q19 -31 31 -65h4q8 23 18.5 41.5t13.5 23.5l76 133q25 45 25 80q0 13 -3 22
v2h201z" />
    <glyph glyph-name="Z" unicode="Z" horiz-adv-x="599" 
d="M575 190l-26 -198q-32 5 -55 6.5t-79 1.5h-405v2l341 594h-125q-60 0 -103 -16t-68 -52l-2 1l27 172q28 -4 63.5 -5t85.5 -1h329v-2l-341 -594h153q67 0 120 24.5t83 67.5z" />
    <glyph glyph-name="bracketleft" unicode="[" horiz-adv-x="328" 
d="M315 -21l2 -2l-18 -119q-52 7 -111 7h-154q15 46 15 164v635q0 100 -19 150h158q59 0 111 7l19 -122l-2 -1q-29 16 -97 16h-48v-749h48q65 0 96 14z" />
    <glyph glyph-name="backslash" unicode="\" horiz-adv-x="334" 
d="M169 -102q14 20 14 65q0 39 -13 94l-136 556q-15 58 -30.5 90.5t-42.5 57.5l1 2h211l1 -2q-19 -19 -19 -64q0 -33 12 -84l135 -556q13 -55 33 -100t38 -59l-1 -2h-202z" />
    <glyph glyph-name="bracketright" unicode="]" horiz-adv-x="328" 
d="M298 -135h-158q-59 0 -111 -7l-19 122l2 1q29 -16 97 -16h48v749h-48q-65 0 -96 -14l-2 2l18 119q52 -7 111 -7h154q-15 -46 -15 -164v-635q0 -100 19 -150z" />
    <glyph glyph-name="asciicircum" unicode="^" horiz-adv-x="460" 
d="M443 479v-2h-130q-1 15 -5 26.5t-15 28.5l-65 106l-66 -106q-11 -17 -15 -28.5t-5 -26.5h-125v2q17 16 31 36.5t17 25.5l127 201h76l127 -201q26 -39 48 -62z" />
    <glyph glyph-name="underscore" unicode="_" horiz-adv-x="559" 
d="M6 -145l23 145h389q40 0 67.5 5.5t53.5 18.5l2 -1l-17 -123h-395q-45 0 -72 -10.5t-49 -35.5z" />
    <glyph glyph-name="grave" unicode="`" 
d="M280.5 806q-42.5 43 -69.5 63l88 85l2 -1q5 -25 48 -84t75 -90l-81 -42q-20 26 -62.5 69z" />
    <glyph glyph-name="a" unicode="a" horiz-adv-x="676" 
d="M643 65.5q28 -44.5 51 -63.5v-2h-226v2q16 12 16 46q0 32 -16 77l-9 24h-258l-9 -24q-16 -41 -16 -76t14 -47v-2h-210v2q23 20 50.5 64t46.5 98l143 412q9 27 9 49q0 23 -8 41t-19 27v2h265v-2q-11 -10 -19 -27.5t-8 -40.5q0 -22 9 -49l147 -412q19 -54 47 -98.5z
M308 465.5q-13 -45.5 -37 -112.5l-37 -106h192l-37 106q-25 72 -38 115t-20 94h-4q-6 -51 -19 -96.5z" />
    <glyph glyph-name="b" unicode="b" horiz-adv-x="642" 
d="M519.5 341q34.5 -24 55 -60t20.5 -76q0 -96 -65 -150.5t-169 -54.5h-304v2q24 18 41.5 55.5t17.5 98.5v384q0 58 -16.5 96.5t-42.5 56.5v2h276q113 0 169.5 -43t56.5 -132q0 -37 -16.5 -69t-43 -52.5t-55.5 -25.5v-3q41 -5 75.5 -29zM253 597v-180h72q44 0 68.5 24.5
t24.5 71.5q0 42 -24 63t-69 21h-72zM424 128.5q28 30.5 28 81.5t-28 80.5t-83 29.5h-88v-222h88q55 0 83 30.5z" />
    <glyph glyph-name="c" unicode="c" horiz-adv-x="657" 
d="M210 31.5q-80 46.5 -123 128t-43 183.5q0 111 46.5 194t131.5 127.5t198 44.5q91 0 176 -25l16 -173l-2 -1q-30 46 -80.5 70t-110.5 24q-105 0 -165.5 -67.5t-60.5 -183.5q0 -118 55.5 -190t157.5 -72q77 0 130 28.5t95 83.5l2 -1l-24 -179q-108 -38 -213 -38
q-106 0 -186 46.5z" />
    <glyph glyph-name="d" unicode="d" horiz-adv-x="741" 
d="M59 2q22 15 38 53t16 95v395q0 52 -16.5 93t-37.5 55v2h290q105 0 183.5 -41.5t121.5 -119.5t43 -186q0 -167 -91 -257.5t-273 -90.5h-274v2zM343 99q100 0 153 64t53 185q0 127 -52 187.5t-159 60.5h-88v-497h93z" />
    <glyph glyph-name="e" unicode="e" 
d="M562 191l-28 -199q-28 5 -53.5 6.5t-68.5 1.5h-353v2q22 15 38 53t16 95v395q0 58 -16 95.5t-38 52.5v2h359q71 0 106 8l17 -179l-2 -1q-18 37 -58 55.5t-99 18.5h-132v-176h76q63 0 93 1.5t63 5.5l-29 -168h-2q-12 33 -39 48t-70 15h-92v-225h109q66 0 117.5 24t83.5 70
z" />
    <glyph glyph-name="f" unicode="f" horiz-adv-x="576" 
d="M542 516l-2 -1q-49 80 -178 80h-112v-186h88q110 0 150 8l-32 -180h-2q-10 32 -40.5 52t-68.5 20h-95v-159q0 -58 16 -95.5t38 -52.5v-2h-245v2q22 15 38 53t16 95v395q0 67 -14.5 100.5t-38.5 47.5v2h335q85 0 129 8z" />
    <glyph glyph-name="g" unicode="g" horiz-adv-x="702" 
d="M677 372v-2q-17 -11 -25 -46t-8 -102v-165q-50 -32 -119 -52t-129 -20q-103 0 -183 45t-124.5 125t-44.5 183q0 114 46.5 198t130.5 128.5t195 44.5q104 0 190 -27l15 -163l-2 -1q-77 86 -206 86q-104 0 -162.5 -68.5t-58.5 -187.5t57 -188t157 -69q63 0 110 22v163
q-101 -2 -149 -52l-2 1l16 153q33 -6 122 -6h174z" />
    <glyph glyph-name="h" unicode="h" horiz-adv-x="766" 
d="M669 640q-16 -38 -16 -95v-399q0 -55 16 -92.5t38 -51.5v-2h-242v2q20 15 35.5 52.5t15.5 91.5v175h-266v-171q0 -57 15 -95t36 -53v-2h-242v2q22 15 38 53t16 95v395q0 58 -16 95.5t-38 52.5v2h242v-2q-20 -15 -35.5 -53.5t-15.5 -94.5v-124h266v124q0 57 -15 95t-36 53
v2h242v-2q-22 -15 -38 -53z" />
    <glyph glyph-name="i" unicode="i" horiz-adv-x="364" 
d="M59 2q22 15 38 53t16 95v395q0 58 -16 95.5t-38 52.5v2h246v-2q-22 -15 -38 -53t-16 -95v-395q0 -58 16 -95.5t38 -52.5v-2h-246v2z" />
    <glyph glyph-name="j" unicode="j" horiz-adv-x="449" 
d="M16 -7l-10 155h2q11 -20 36 -40.5t66 -20.5q56 0 84 28.5t28 83.5v345q0 58 -16 96t-38 53v2h245v-2q-22 -15 -38 -53t-16 -95v-310q0 -133 -58 -195t-185 -62q-43 0 -100 15z" />
    <glyph glyph-name="k" unicode="k" horiz-adv-x="680" 
d="M264.5 54.5q14.5 -37.5 34.5 -52.5v-2h-240v2q22 15 38 53t16 95v399q0 55 -16 92.5t-38 51.5v2h240v-2q-20 -15 -34.5 -53t-14.5 -95v-396q0 -57 14.5 -94.5zM652.5 53.5q24.5 -21.5 60.5 -36.5v-2l-201 -34q-4 17 -17.5 43t-31.5 52l-202 300l169 239q35 50 33 80h208
v-2q-29 -14 -60 -44t-58 -67l-141 -191l190 -278q26 -38 50.5 -59.5z" />
    <glyph glyph-name="l" unicode="l" horiz-adv-x="554" 
d="M474.5 -1.5q-23.5 1.5 -60.5 1.5h-355v2q22 15 38 53t16 95v399q0 55 -16 92.5t-38 51.5v2h245v-2q-22 -15 -38 -53t-16 -95v-445h99q66 0 117 22.5t83 67.5l2 -1l-26 -197q-27 5 -50.5 6.5z" />
    <glyph glyph-name="m" unicode="m" horiz-adv-x="958" 
d="M32 2q26 29 41 62.5t19 82.5l26 388l1 19q0 44 -13.5 83t-41.5 56l1 2h229q-7 -8 -7 -24q0 -27 23 -67l99 -170q50 -86 62 -165h4q10 41 26.5 75.5t47.5 89.5l98 173q22 40 22 65q0 15 -7 23h231l1 -2q-31 -17 -46 -64.5t-12 -93.5l31 -388q3 -39 18.5 -79.5t40.5 -65.5
l-1 -2h-229l-1 2q14 12 24 40t10 64q0 13 -1 20l-16 207q-2 34 -2 54q0 55 8 118h-4q-15 -48 -33 -86.5t-44 -83.5l-111 -188q-42 -70 -47 -121h-8q-7 52 -50 120l-119 190q-25 40 -41.5 79t-30.5 90h-4q7 -70 7 -125q0 -33 -1 -47l-11 -207q-2 -44 7.5 -77t25.5 -47l-1 -2
h-220z" />
    <glyph glyph-name="n" unicode="n" horiz-adv-x="790" 
d="M59 2q22 15 38 53t16 95v400q0 44 -14 84.5t-40 58.5v2h227q2 -17 10 -37.5t31 -58.5l144 -242q42 -71 92 -198h4q-16 91 -16 206v180q0 58 -14.5 96t-36.5 52v2h231v-2q-22 -14 -38 -52.5t-16 -95.5v-395q0 -57 16 -95.5t38 -52.5v-2h-211q-18 43 -50 95l-141 229
q-35 57 -58 107.5t-46 120.5h-4q11 -65 14.5 -117t3.5 -115v-170q0 -58 14.5 -96t36.5 -52v-2h-231v2z" />
    <glyph glyph-name="o" unicode="o" horiz-adv-x="816" 
d="M210 27q-81 47 -123.5 129t-42.5 185q0 112 44.5 196.5t128.5 131t198 46.5q106 0 187 -45t125.5 -127t44.5 -188q0 -110 -46.5 -195.5t-131 -132.5t-194.5 -47q-109 0 -190 47zM519.5 116q48.5 32 76 91.5t27.5 137.5q0 126 -58 196t-160 70q-65 0 -113 -32.5t-73.5 -91
t-25.5 -136.5q0 -125 56 -196t161 -71q61 0 109.5 32z" />
    <glyph glyph-name="p" unicode="p" horiz-adv-x="614" 
d="M518 636q66 -59 66 -167q0 -120 -65 -180t-187 -60h-82v-83q0 -55 16 -92.5t38 -51.5v-2h-245v2q22 15 38 53t16 95v399q0 55 -16 92.5t-38 51.5v2h273q120 0 186 -59zM442 462q0 69 -32.5 101.5t-100.5 32.5h-59v-267l59 -1q133 -1 133 134z" />
    <glyph glyph-name="q" unicode="q" horiz-adv-x="816" 
d="M689.5 -33.5q29.5 -25.5 77.5 -42.5v-2l-205 -32q-8 30 -14 43t-22 39l-14 22q-53 -14 -112 -14q-109 0 -190 47t-123.5 129t-42.5 185q0 112 44.5 196.5t128.5 131t198 46.5q106 0 187 -45t125.5 -127t44.5 -188q0 -101 -39 -181t-110 -129l3 -4q34 -49 63.5 -74.5z
M454 89l-44 72q-38 60 -87 90v2l168 12q6 -32 29 -67l35 -52q32 35 50 86t18 113q0 126 -58 196t-160 70q-65 0 -113 -32.5t-73.5 -91.5t-25.5 -136q0 -125 56 -196t161 -71q21 0 44 5z" />
    <glyph glyph-name="r" unicode="r" horiz-adv-x="661" 
d="M683 18v-2l-205 -37q-19 57 -51 111l-155 265h48q66 0 100 29.5t34 94.5q0 55 -35 87t-99 31l-70 -1v-450q0 -54 15 -91.5t35 -52.5v-2h-241v2q22 14 38 52.5t16 95.5v399q0 55 -16 92.5t-38 51.5v2h284q119 0 186 -56.5t67 -154.5q0 -78 -35.5 -127.5t-100.5 -70.5
l93 -151q58 -93 130 -117z" />
    <glyph glyph-name="s" unicode="s" horiz-adv-x="548" 
d="M148.5 -4.5q-51.5 10.5 -83.5 29.5l-17 168l2 1q42 -56 90.5 -80.5t108.5 -24.5q124 0 124 90q0 32 -17 54.5t-42.5 36.5t-69.5 32q-59 24 -95.5 46.5t-62.5 63.5t-26 106q0 51 28.5 94.5t82.5 69.5t129 26q76 0 157 -21l13 -164h-2q-30 46 -69.5 64t-88.5 18
q-115 0 -115 -77q0 -27 15.5 -46t39 -31.5t66.5 -30.5q61 -25 100 -49t67 -68t28 -114q0 -58 -28.5 -104t-85.5 -73t-138 -27q-59 0 -110.5 10.5z" />
    <glyph glyph-name="t" unicode="t" horiz-adv-x="592" 
d="M572 520l-2 -1q-18 32 -52.5 53t-77.5 21h-75v-435q0 -61 17.5 -101.5t43.5 -54.5v-2h-259v2q24 14 42.5 55.5t18.5 100.5v435h-76q-43 0 -77.5 -21t-52.5 -53l-2 1l17 183q61 -8 137 -8h244q76 0 137 8z" />
    <glyph glyph-name="u" unicode="u" horiz-adv-x="744" 
d="M161 59q-71 76 -71 227v259q0 57 -16 95t-38 53v2h243v-2q-20 -15 -35.5 -53t-15.5 -95v-270q0 -102 34 -144.5t116 -42.5q73 0 107 45.5t34 141.5v270q0 56 -15.5 94.5t-35.5 53.5v2h240v-2q-22 -15 -38 -52.5t-16 -95.5v-259q0 -152 -71 -227.5t-216 -75.5
q-135 0 -206 76z" />
    <glyph glyph-name="v" unicode="v" horiz-adv-x="695" 
d="M225 2q10 10 16 28t6 41q0 31 -13 69l-151 419q-15 40 -38.5 76.5t-52.5 57.5v2h234v-2q-17 -20 -17 -55q0 -21 7 -41l88 -254q40 -118 52 -205h4q9 52 24 109.5t28 96.5l84 251q9 27 9 51q0 30 -14 47v2h214v-2q-52 -31 -84 -125l-150 -428q-13 -38 -13 -70
q0 -46 22 -68v-2h-255v2z" />
    <glyph glyph-name="w" unicode="w" horiz-adv-x="1052" 
d="M168 2q32 35 32 91q0 30 -9 63l-116 422q-24 91 -68 115v2h242v-2q-31 -26 -31 -82q0 -23 5 -42l57 -223q11 -43 16.5 -83t7.5 -98h4q23 95 70 191l107 219q35 74 49 126h6q10 -33 20 -60.5t29 -64.5l97 -190q34 -68 50.5 -116t28.5 -105h4q7 101 31 204l49 200
q6 23 6 44q0 52 -31 80l1 2h222v-2q-25 -14 -42 -46.5t-26 -69.5l-101 -421q-8 -35 -8 -60q0 -52 31 -94v-2h-234v2q12 20 12 50q0 37 -18 74l-73 156q-16 35 -29 77.5t-18 75.5h-4q-18 -73 -44 -130l-84 -179q-18 -40 -18 -75q0 -30 13 -49v-2h-236v2z" />
    <glyph glyph-name="x" unicode="x" horiz-adv-x="637" 
d="M617 73.5q37 -36.5 67 -56.5v-2l-209 -37q0 20 -15.5 51.5t-47.5 81.5l-102 158l-110 -179q-20 -33 -20 -57q0 -20 14 -31v-2h-236v2q26 12 59.5 47t64.5 82l155 239l-158 236q-21 31 -41 50.5t-49 36.5v2h233v-2q-2 -12 -2 -17q0 -17 7 -35t22 -43l76 -127l71 122
q15 27 22 43t7 30t-7 27v2h220v-2q-24 -9 -54 -40t-61 -81l-123 -202l147 -212q33 -48 70 -84.5z" />
    <glyph glyph-name="y" unicode="y" horiz-adv-x="643" 
d="M662 695v-2q-32 -24 -80 -102l-189 -312v-121q0 -61 17.5 -101.5t43.5 -54.5v-2h-259v2q24 14 42.5 55.5t18.5 100.5v116l-192 317q-46 75 -81 102v2h213v-2q-3 -9 -3 -20q0 -37 26 -82l77 -133q19 -31 31 -65h4q8 23 18.5 41.5t13.5 23.5l76 133q25 45 25 80q0 13 -3 22
v2h201z" />
    <glyph glyph-name="z" unicode="z" horiz-adv-x="599" 
d="M575 190l-26 -198q-32 5 -55 6.5t-79 1.5h-405v2l341 594h-125q-60 0 -103 -16t-68 -52l-2 1l27 172q28 -4 63.5 -5t85.5 -1h329v-2l-341 -594h153q67 0 120 24.5t83 67.5z" />
    <glyph glyph-name="braceleft" unicode="{" horiz-adv-x="333" 
d="M151.5 -129.5q-53.5 44.5 -53.5 128.5v216q0 33 -17.5 53.5t-45.5 19.5v92q28 -1 45.5 19.5t17.5 53.5v216q0 84 53.5 128.5t157.5 45.5l14 -101l-2 -1q-20 12 -45 12q-24 0 -38.5 -17.5t-14.5 -49.5v-227q0 -47 -16 -80t-47 -43v-4q31 -10 47 -43t16 -80v-226
q0 -32 14.5 -49.5t38.5 -17.5q25 0 45 12l2 -1l-14 -102q-104 1 -157.5 45.5z" />
    <glyph glyph-name="bar" unicode="|" horiz-adv-x="244" 
d="M38 -51q20 24 20 99v591q0 43 -4 66t-14 35v2h166v-2q-12 -14 -16 -36t-4 -65v-591q0 -42 4 -63.5t15 -35.5v-2h-166z" />
    <glyph glyph-name="braceright" unicode="}" horiz-adv-x="332" 
d="M181.5 797.5q53.5 -44.5 53.5 -128.5v-216q0 -33 17.5 -53.5t45.5 -19.5v-92q-28 1 -45.5 -19.5t-17.5 -53.5v-216q0 -84 -53.5 -128.5t-157.5 -45.5l-14 101l2 1q20 -12 45 -12q24 0 38.5 17.5t14.5 49.5v227q0 47 16 80t47 43v4q-31 10 -47 43t-16 80v226
q0 32 -14.5 49.5t-38.5 17.5q-25 0 -45 -12l-2 1l14 102q104 -1 157.5 -45.5z" />
    <glyph glyph-name="asciitilde" unicode="~" horiz-adv-x="446" 
d="M15 169q-2 41 14.5 76t47 55.5t67.5 20.5q29 0 51.5 -8.5t47.5 -23.5q18 -10 29.5 -15t22.5 -5q20 0 31.5 14.5t11.5 35.5q0 6 -2 16l2 2l94 -29q3 -37 -14.5 -73t-49 -58.5t-67.5 -22.5q-29 0 -50.5 9t-45.5 25q-19 11 -29 16t-22 5q-18 0 -28 -14t-10 -33q0 -11 3 -20
l-2 -2z" />
    <glyph glyph-name="uni00A0" unicode="&#xa0;" horiz-adv-x="250" 
 />
    <glyph glyph-name="exclamdown" unicode="&#xa1;" horiz-adv-x="270" 
d="M199 737.5q26 -25.5 26 -62.5t-26 -62.5t-63 -25.5t-62 25.5t-25 62.5t25 62.5t62 25.5t63 -25.5zM207 546q-12 -43 -12 -103q0 -30 1 -43l14 -265q5 -84 31 -143v-2h-208v2q27 56 31 143l15 265q1 13 1 41q0 58 -13 105v2h140v-2z" />
    <glyph glyph-name="cent" unicode="&#xa2;" horiz-adv-x="543" 
d="M363 -16v-5q0 -59 15 -78l-1 -2h-128l-1 2q15 21 15 78v8q-102 17 -161 92.5t-59 185.5q0 71 28.5 130t79 97t115.5 50v10q0 57 -15 78l1 2h128l1 -2q-15 -19 -15 -78v-7q64 -6 116 -30l13 -137l-2 -1q-34 32 -69 46t-80 14q-78 0 -124 -46.5t-46 -124.5q0 -79 43.5 -127
t117.5 -48q55 0 92 16t76 57l2 -1l-19 -145q-53 -26 -123 -34z" />
    <glyph glyph-name="sterling" unicode="&#xa3;" horiz-adv-x="532" 
d="M491 139l-16 -139h-446l-1 2q57 69 80.5 128.5t23.5 116.5q0 11 -2 35q-96 -2 -124 -27l-2 1l27 124h81q-9 40 -14 70.5t-5 63.5q0 59 28 104.5t77.5 70.5t110.5 25q68 0 126 -22l23 -153l-2 -1q-27 41 -58.5 57t-78.5 16t-71.5 -28t-24.5 -80q0 -28 4.5 -60t9.5 -63h149
q33 0 53 6t37 18l2 -1l-25 -121h-203q1 -8 1 -24q0 -81 -34 -161l171 1q65 0 101 42z" />
    <glyph glyph-name="currency" unicode="&#xa4;" horiz-adv-x="584" 
d="M567 157l1 -2l-95 -95l-2 1q-3 12 -13.5 27t-31.5 40l-13 16q-56 -35 -121 -35q-63 0 -120 34l-14 -15q-41 -44 -45 -68h-2l-95 95l1 2q29 6 66 45l15 16q-33 53 -33 118t34 119l-16 16q-39 39 -66 44l-1 2l95 96l2 -1q3 -24 45 -66l16 -16q55 33 118 33t118 -33l16 16
q42 42 45 66h2l95 -95l-1 -2q-27 -5 -66 -44l-16 -16q34 -54 34 -119t-34 -118l16 -16q39 -39 66 -45zM347 226q26 17 41.5 46t15.5 64t-15.5 64.5t-41.5 46.5t-55 17t-55 -17t-41.5 -46.5t-15.5 -64.5t15.5 -64t41.5 -46t55 -17t55 17z" />
    <glyph glyph-name="yen" unicode="&#xa5;" horiz-adv-x="674" 
d="M674 695q-26 -21 -80 -104l-150 -228h42q33 0 53.5 6.5t38.5 21.5l2 -1l-37 -124h-143l1 -58h85q33 0 53.5 6.5t38.5 21.5l2 -1l-37 -121h-137q5 -39 17.5 -72.5t25.5 -42.5h-216q13 9 25.5 42.5t17.5 72.5h-33q-107 0 -137 -27l-2 1l37 120h137v58h-35q-107 0 -137 -27
l-2 1l37 123h90l-151 228q-27 41 -46 66.5t-34 37.5h204q-4 -9 -4 -25q0 -19 7 -40t19 -39l112 -167l113 167q26 38 26 78q0 17 -4 26h201z" />
    <glyph glyph-name="brokenbar" unicode="&#xa6;" horiz-adv-x="244" 
d="M38 409q20 24 20 99v131q0 43 -4 66t-14 35v2h166v-2q-12 -14 -16 -36t-4 -65v-131q0 -42 4 -63.5t15 -35.5v-2h-167v2zM38 -51q20 24 20 99v131q0 43 -4 66t-14 35v2h166v-2q-12 -14 -16 -36t-4 -65v-131q0 -42 4 -63.5t15 -35.5v-2h-167v2z" />
    <glyph glyph-name="section" unicode="&#xa7;" horiz-adv-x="451" 
d="M400 266q-12 -29 -34 -51q16 -30 16 -72q0 -46 -24 -82.5t-68 -58t-103 -21.5q-35 0 -63 4.5t-60 16.5l-9 114h2q20 -29 57.5 -45t79.5 -16q43 0 63.5 18.5t20.5 57.5q0 33 -23.5 51t-73.5 38q-45 18 -73.5 35t-48.5 48.5t-20 80.5q0 30 13 57.5t36 47.5q-19 33 -19 79
q0 39 22 72.5t62.5 53.5t92.5 20q57 0 119 -22l10 -109h-2q-18 25 -49.5 38t-74.5 13q-38 0 -58.5 -16t-20.5 -43q0 -32 23.5 -49t73.5 -36q46 -18 75 -34.5t49.5 -47.5t20.5 -81q0 -32 -12 -61zM164 341.5q24 -17.5 74 -36.5q45 -18 61 -26q9 15 9 36q0 33 -23 50t-73 38
q-42 18 -57 26q-15 -13 -15 -38q0 -32 24 -49.5z" />
    <glyph glyph-name="dieresis" unicode="&#xa8;" horiz-adv-x="200" 
d="M198 775.5q-17 17.5 -17 41.5q0 25 17 42t42 17q24 0 40.5 -17t16.5 -42q0 -24 -16.5 -41.5t-40.5 -17.5q-25 0 -42 17.5zM354 775.5q-17 17.5 -17 41.5q0 25 17 42t42 17q24 0 40.5 -17t16.5 -42q0 -24 -16.5 -41.5t-40.5 -17.5q-25 0 -42 17.5z" />
    <glyph glyph-name="copyright" unicode="&#xa9;" horiz-adv-x="853" 
d="M235 30.5q-88 49.5 -139.5 133.5t-51.5 183q0 100 51.5 184.5t139.5 133.5t192 49t191.5 -49.5t139 -134t51.5 -183.5t-51.5 -183t-139 -133.5t-191.5 -49.5t-192 49.5zM582.5 80q72.5 42 116.5 113.5t44 153.5q0 83 -43.5 154t-116.5 113.5t-156 42.5t-156 -42
t-117 -113.5t-44 -154.5t43.5 -154t116.5 -113t157 -42q83 0 155.5 42zM309.5 149q-50.5 29 -77.5 80.5t-27 115.5q0 70 29 122t82.5 80t124.5 28q56 0 110 -15l10 -109h-3q-17 29 -48.5 44t-69.5 15q-66 0 -103.5 -43t-37.5 -116q0 -74 34.5 -119.5t98.5 -45.5q48 0 81 18
t58 52h3l-15 -112q-70 -24 -133 -24q-66 0 -116.5 29z" />
    <glyph glyph-name="guillemotleft" unicode="&#xab;" horiz-adv-x="623" 
d="M318 120.5q19 -18.5 50 -40.5l-1 -2h-189q-5 13 -17.5 31.5t-27.5 34.5l-143 164l143 164q15 16 27.5 34.5t17.5 31.5h173l1 -2q-39 -31 -83 -82l-119 -140l129 -152q20 -23 39 -41.5zM559.5 120q20.5 -18 55.5 -40l-1 -2h-196q-5 13 -17.5 31.5t-27.5 34.5l-143 164
l143 164q15 16 27.5 34.5t17.5 31.5h176l1 -2q-38 -23 -88 -82l-118 -139l130 -153q20 -24 40.5 -42z" />
    <glyph glyph-name="logicalnot" unicode="&#xac;" horiz-adv-x="465" 
d="M429.5 130q3.5 -17 13.5 -31l-1 -2h-159l-2 2q10 14 13.5 31t3.5 58v48h-172q-43 0 -67 -5.5t-41 -19.5l-2 1l15 134h403l1 -2q-5 -13 -7 -33t-2 -58v-65q0 -41 3.5 -58z" />
    <glyph glyph-name="registered" unicode="&#xae;" horiz-adv-x="581" 
d="M425.5 704.5q61.5 -34.5 97.5 -94t36 -128.5q0 -70 -36 -129t-97.5 -94t-134.5 -35t-135 35t-98 94t-36 129t36.5 129t98 93.5t134.5 34.5t134.5 -34.5zM400.5 300.5q50.5 28.5 80 76.5t29.5 105q0 56 -29.5 104t-80 76.5t-109.5 28.5q-58 0 -108 -28t-80 -76.5
t-30 -104.5q0 -57 29.5 -105t79.5 -76.5t109 -28.5t109.5 28.5zM439 337v-2l-89 -16q-8 24 -22 48l-67 114v2h20q29 0 43.5 13t14.5 41q0 24 -15 38t-43 14l-31 -1v-196q0 -24 7.5 -40.5t16.5 -21.5v-2h-107v2q9 5 16 22t7 42v174q0 24 -7 40t-16 22v2h124q52 0 81 -25
t29 -68q0 -67 -59 -86l41 -66q24 -41 56 -50z" />
    <glyph glyph-name="macron" unicode="&#xaf;" 
d="M183 763l16 103h230q49 0 68 12l2 -1l-15 -106l-235 -1q-43 0 -64 -8z" />
    <glyph glyph-name="degree" unicode="&#xb0;" horiz-adv-x="318" 
d="M89 453q-32 19 -51 51t-19 70t19 70t51 51t70 19t70 -19t51 -51t19 -70t-19 -70t-51 -51t-70 -19t-70 19zM202 529q16 17 16 45t-16 45.5t-42 17.5t-42.5 -17.5t-16.5 -45.5t16.5 -45t42.5 -17t42 17z" />
    <glyph glyph-name="plusminus" unicode="&#xb1;" horiz-adv-x="476" 
d="M302 319v-79q0 -41 3.5 -58t13.5 -31l-1 -2h-159l-2 2q10 14 13.5 31t3.5 58v79h-52q-43 0 -67 -5.5t-41 -19.5l-2 1l15 124h147v84q0 41 -3.5 58t-13.5 31l1 2h160l1 -2q-10 -14 -13.5 -31t-3.5 -58v-84h54q41 0 65 6.5t41 19.5l2 -1l-13 -125h-149zM12 -25l15 121h329
q41 0 65 6.5t41 19.5l2 -1l-13 -122h-329q-43 0 -67 -5.5t-41 -19.5z" />
    <glyph glyph-name="acute" unicode="&#xb4;" 
d="M220 779q34 32 75 90t46 84l2 1l89 -85q-28 -20 -69.5 -63t-61.5 -69z" />
    <glyph glyph-name="paragraph" unicode="&#xb6;" horiz-adv-x="661" 
d="M53.5 591.5q29.5 48.5 81 76t115.5 27.5h138v-2q-7 -13 -9 -29.5t-2 -59.5v-614q0 -43 2 -59.5t9 -29.5v-2h-152v2q7 11 10.5 29.5t3.5 59.5v282q-65 0 -116.5 27.5t-80.5 75.5t-29 109q0 59 29.5 107.5zM583.5 662q-3.5 -17 -3.5 -58v-614q0 -41 3.5 -57.5t13.5 -31.5
v-2h-154v2q6 11 8 29t2 60v614q0 40 -2.5 58.5t-7.5 30.5v2h154v-2q-10 -14 -13.5 -31z" />
    <glyph glyph-name="periodcentered" unicode="&#xb7;" horiz-adv-x="222" 
d="M49 260.5q-26 25.5 -26 62.5t26 62.5t63 25.5t62 -25.5t25 -62.5t-25 -62.5t-62 -25.5t-63 25.5z" />
    <glyph glyph-name="cedilla" unicode="&#xb8;" 
d="M426.5 -67.5q32.5 -24.5 32.5 -75.5q0 -57 -41 -87t-96 -30q-23 0 -46.5 6t-41.5 17l-9 87l2 1q23 -20 42.5 -28.5t42.5 -8.5q27 0 42 11.5t15 30.5q0 21 -15 30t-47 9q-30 0 -50 -4l-2 2l32 153h71l-15 -84q51 -5 83.5 -29.5z" />
    <glyph glyph-name="guillemotright" unicode="&#xbb;" horiz-adv-x="615" 
d="M385 308l-143 -164q-15 -16 -27.5 -34.5t-17.5 -31.5h-176l-1 2q38 23 88 82l118 139l-130 153q-20 24 -40.5 42t-55.5 40l1 2h196q5 -13 17.5 -31.5t27.5 -34.5zM625 308l-143 -164q-15 -16 -27.5 -34.5t-17.5 -31.5h-173l-1 2q39 31 83 82l119 140l-129 152
q-20 23 -39 41.5t-50 40.5l1 2h189q5 -13 17.5 -31.5t27.5 -34.5z" />
    <glyph glyph-name="questiondown" unicode="&#xbf;" horiz-adv-x="445" 
d="M297 742.5q26 -25.5 26 -62.5t-26 -62.5t-63 -25.5t-62 25.5t-25 62.5t25 62.5t62 25.5t63 -25.5zM298 400q-161 -101 -161 -198q0 -55 28 -83t83 -28q57 0 96.5 19.5t74.5 63.5l2 -1l-24 -142q-38 -21 -82 -32t-89 -11q-64 0 -114.5 25.5t-79 70.5t-28.5 102
q0 48 17.5 86.5t43 67t69.5 69.5q53 49 82 79t51 70h2z" />
    <glyph glyph-name="Agrave" unicode="&#xc0;" horiz-adv-x="676" 
d="M643 65.5q28 -44.5 51 -63.5v-2h-226v2q16 12 16 46q0 32 -16 77l-9 24h-258l-9 -24q-16 -41 -16 -76t14 -47v-2h-210v2q23 20 50.5 64t46.5 98l143 412q9 27 9 49q0 23 -8 41t-19 27v2h265v-2q-11 -10 -19 -27.5t-8 -40.5q0 -22 9 -49l147 -412q19 -54 47 -98.5z
M308 465.5q-13 -45.5 -37 -112.5l-37 -106h192l-37 106q-25 72 -38 115t-20 94h-4q-6 -51 -19 -96.5zM282.5 806q-42.5 43 -69.5 63l88 85l2 -1q5 -25 48 -84t75 -90l-81 -42q-20 26 -62.5 69z" />
    <glyph glyph-name="Aacute" unicode="&#xc1;" horiz-adv-x="676" 
d="M643 65.5q28 -44.5 51 -63.5v-2h-226v2q16 12 16 46q0 32 -16 77l-9 24h-258l-9 -24q-16 -41 -16 -76t14 -47v-2h-210v2q23 20 50.5 64t46.5 98l143 412q9 27 9 49q0 23 -8 41t-19 27v2h265v-2q-11 -10 -19 -27.5t-8 -40.5q0 -22 9 -49l147 -412q19 -54 47 -98.5z
M308 465.5q-13 -45.5 -37 -112.5l-37 -106h192l-37 106q-25 72 -38 115t-20 94h-4q-6 -51 -19 -96.5zM252 779q34 32 75 90t46 84l2 1l89 -85q-28 -20 -69.5 -63t-61.5 -69z" />
    <glyph glyph-name="Acircumflex" unicode="&#xc2;" horiz-adv-x="676" 
d="M643 65.5q28 -44.5 51 -63.5v-2h-226v2q16 12 16 46q0 32 -16 77l-9 24h-258l-9 -24q-16 -41 -16 -76t14 -47v-2h-210v2q23 20 50.5 64t46.5 98l143 412q9 27 9 49q0 23 -8 41t-19 27v2h265v-2q-11 -10 -19 -27.5t-8 -40.5q0 -22 9 -49l147 -412q19 -54 47 -98.5z
M308 465.5q-13 -45.5 -37 -112.5l-37 -106h192l-37 106q-25 72 -38 115t-20 94h-4q-6 -51 -19 -96.5zM430 872q39 -32 71 -50l-79 -94l-2 1q-6 17 -33.5 52t-56.5 65q-28 -29 -55.5 -64.5t-33.5 -52.5l-2 -1l-79 94q30 17 70 49.5t65 61.5h71q25 -29 64 -61z" />
    <glyph glyph-name="Atilde" unicode="&#xc3;" horiz-adv-x="676" 
d="M643 65.5q28 -44.5 51 -63.5v-2h-226v2q16 12 16 46q0 32 -16 77l-9 24h-258l-9 -24q-16 -41 -16 -76t14 -47v-2h-210v2q23 20 50.5 64t46.5 98l143 412q9 27 9 49q0 23 -8 41t-19 27v2h265v-2q-11 -10 -19 -27.5t-8 -40.5q0 -22 9 -49l147 -412q19 -54 47 -98.5z
M308 465.5q-13 -45.5 -37 -112.5l-37 -106h192l-37 106q-25 72 -38 115t-20 94h-4q-6 -51 -19 -96.5zM148 823q32 34 62 49t67 15q20 0 34.5 -5t33.5 -15q15 -8 27 -12.5t26 -4.5q21 0 36 11t20 27h2l53 -83q-30 -27 -58 -39t-62 -12q-21 0 -36 5.5t-35 15.5q-18 9 -29 13.5
t-26 4.5q-39 0 -62 -45h-2z" />
    <glyph glyph-name="Adieresis" unicode="&#xc4;" horiz-adv-x="676" 
d="M643 65.5q28 -44.5 51 -63.5v-2h-226v2q16 12 16 46q0 32 -16 77l-9 24h-258l-9 -24q-16 -41 -16 -76t14 -47v-2h-210v2q23 20 50.5 64t46.5 98l143 412q9 27 9 49q0 23 -8 41t-19 27v2h265v-2q-11 -10 -19 -27.5t-8 -40.5q0 -22 9 -49l147 -412q19 -54 47 -98.5z
M308 465.5q-13 -45.5 -37 -112.5l-37 -106h192l-37 106q-25 72 -38 115t-20 94h-4q-6 -51 -19 -96.5zM212 775.5q-17 17.5 -17 41.5q0 25 17 42t42 17q24 0 40.5 -17t16.5 -42q0 -24 -16.5 -41.5t-40.5 -17.5q-25 0 -42 17.5zM368 775.5q-17 17.5 -17 41.5q0 25 17 42t42 17
q24 0 40.5 -17t16.5 -42q0 -24 -16.5 -41.5t-40.5 -17.5q-25 0 -42 17.5z" />
    <glyph glyph-name="Aring" unicode="&#xc5;" horiz-adv-x="672" 
d="M644.5 65q27.5 -44 50.5 -63v-2h-226v2q15 12 15 46q0 33 -15 77l-8 24h-259l-9 -24q-16 -43 -16 -77t14 -46v-2h-210v2q24 20 51.5 64t46.5 98l142 412q10 28 10 46q0 21 -12 37q-26 36 -26 81q0 39 19 71t52 50.5t73 18.5q39 0 71.5 -18.5t52 -50.5t19.5 -71
q0 -42 -24 -77q-15 -20 -15 -44q0 -16 9 -43l147 -412q20 -55 47.5 -99zM300 778.5q-14 -13.5 -14 -38.5q0 -24 13.5 -37.5t37.5 -13.5q23 0 36 13.5t13 37.5q0 25 -13 38.5t-36 13.5t-37 -13.5zM310 466.5q-13 -44.5 -38 -113.5l-38 -106h194l-36 102q-25 69 -38.5 115.5
t-20.5 97.5h-4q-6 -51 -19 -95.5z" />
    <glyph glyph-name="AE" unicode="&#xc6;" horiz-adv-x="863" 
d="M825 200l-28 -208q-49 8 -122 8h-304v2q19 15 27 45t8 78v24h-203l-11 -24q-17 -44 -17 -81q0 -32 12 -42v-2h-207v2q33 30 96 162l197 412q16 35 16 59q0 38 -32 58v2h424q71 0 106 8l17 -187l-2 -1q-18 37 -58 55.5t-99 18.5h-109v-168h53q64 0 93.5 1.5t62.5 5.5
l-29 -175h-2q-12 33 -39 48t-70 15h-69v-209h86q66 0 117.5 24t83.5 70zM406 247v318h-3q-4 -15 -29 -62q-2 -5 -4.5 -10.5t-5.5 -10.5l-112 -235h154z" />
    <glyph glyph-name="Ccedilla" unicode="&#xc7;" horiz-adv-x="657" 
d="M431 -14l-6 -32q51 -5 83.5 -29.5t32.5 -75.5q0 -57 -41 -87t-96 -30q-23 0 -46.5 6t-41.5 17l-9 87l2 1q23 -20 42.5 -28.5t42.5 -8.5q27 0 42 11.5t15 30.5q0 21 -15 30t-47 9q-30 0 -50 -4l-2 2l21 102q-95 8 -166.5 56t-109.5 126t-38 174q0 111 46.5 194
t131.5 127.5t198 44.5q91 0 176 -25l16 -173l-2 -1q-30 46 -80.5 70t-110.5 24q-105 0 -165.5 -67.5t-60.5 -183.5q0 -118 55.5 -190t157.5 -72q77 0 130 28.5t95 83.5l2 -1l-24 -179q-90 -31 -178 -37z" />
    <glyph glyph-name="Egrave" unicode="&#xc8;" 
d="M562 191l-28 -199q-28 5 -53.5 6.5t-68.5 1.5h-353v2q22 15 38 53t16 95v395q0 58 -16 95.5t-38 52.5v2h359q71 0 106 8l17 -179l-2 -1q-18 37 -58 55.5t-99 18.5h-132v-176h76q63 0 93 1.5t63 5.5l-29 -168h-2q-12 33 -39 48t-70 15h-92v-225h109q66 0 117.5 24t83.5 70
zM266.5 806q-42.5 43 -69.5 63l88 85l2 -1q5 -25 48 -84t75 -90l-81 -42q-20 26 -62.5 69z" />
    <glyph glyph-name="Eacute" unicode="&#xc9;" 
d="M562 191l-28 -199q-28 5 -53.5 6.5t-68.5 1.5h-353v2q22 15 38 53t16 95v395q0 58 -16 95.5t-38 52.5v2h359q71 0 106 8l17 -179l-2 -1q-18 37 -58 55.5t-99 18.5h-132v-176h76q63 0 93 1.5t63 5.5l-29 -168h-2q-12 33 -39 48t-70 15h-92v-225h109q66 0 117.5 24t83.5 70
zM236 779q34 32 75 90t46 84l2 1l89 -85q-28 -20 -69.5 -63t-61.5 -69z" />
    <glyph glyph-name="Ecircumflex" unicode="&#xca;" 
d="M562 191l-28 -199q-28 5 -53.5 6.5t-68.5 1.5h-353v2q22 15 38 53t16 95v395q0 58 -16 95.5t-38 52.5v2h359q71 0 106 8l17 -179l-2 -1q-18 37 -58 55.5t-99 18.5h-132v-176h76q63 0 93 1.5t63 5.5l-29 -168h-2q-12 33 -39 48t-70 15h-92v-225h109q66 0 117.5 24t83.5 70
zM414 872q39 -32 71 -50l-79 -94l-2 1q-6 17 -33.5 52t-56.5 65q-28 -29 -55.5 -64.5t-33.5 -52.5l-2 -1l-79 94q30 17 70 49.5t65 61.5h71q25 -29 64 -61z" />
    <glyph glyph-name="Edieresis" unicode="&#xcb;" 
d="M562 191l-28 -199q-28 5 -53.5 6.5t-68.5 1.5h-353v2q22 15 38 53t16 95v395q0 58 -16 95.5t-38 52.5v2h359q71 0 106 8l17 -179l-2 -1q-18 37 -58 55.5t-99 18.5h-132v-176h76q63 0 93 1.5t63 5.5l-29 -168h-2q-12 33 -39 48t-70 15h-92v-225h109q66 0 117.5 24t83.5 70
zM196 775.5q-17 17.5 -17 41.5q0 25 17 42t42 17q24 0 40.5 -17t16.5 -42q0 -24 -16.5 -41.5t-40.5 -17.5q-25 0 -42 17.5zM352 775.5q-17 17.5 -17 41.5q0 25 17 42t42 17q24 0 40.5 -17t16.5 -42q0 -24 -16.5 -41.5t-40.5 -17.5q-25 0 -42 17.5z" />
    <glyph glyph-name="Igrave" unicode="&#xcc;" horiz-adv-x="364" 
d="M59 2q22 15 38 53t16 95v395q0 58 -16 95.5t-38 52.5v2h246v-2q-22 -15 -38 -53t-16 -95v-395q0 -58 16 -95.5t38 -52.5v-2h-246v2zM133.5 806q-42.5 43 -69.5 63l88 85l2 -1q5 -25 48 -84t75 -90l-81 -42q-20 26 -62.5 69z" />
    <glyph glyph-name="Iacute" unicode="&#xcd;" horiz-adv-x="364" 
d="M59 2q22 15 38 53t16 95v395q0 58 -16 95.5t-38 52.5v2h246v-2q-22 -15 -38 -53t-16 -95v-395q0 -58 16 -95.5t38 -52.5v-2h-246v2zM103 779q34 32 75 90t46 84l2 1l89 -85q-28 -20 -69.5 -63t-61.5 -69z" />
    <glyph glyph-name="Icircumflex" unicode="&#xce;" horiz-adv-x="364" 
d="M59 2q22 15 38 53t16 95v395q0 58 -16 95.5t-38 52.5v2h246v-2q-22 -15 -38 -53t-16 -95v-395q0 -58 16 -95.5t38 -52.5v-2h-246v2zM281 872q39 -32 71 -50l-79 -94l-2 1q-6 17 -33.5 52t-56.5 65q-28 -29 -55.5 -64.5t-33.5 -52.5l-2 -1l-79 94q30 17 70 49.5t65 61.5
h71q25 -29 64 -61z" />
    <glyph glyph-name="Idieresis" unicode="&#xcf;" horiz-adv-x="364" 
d="M59 2q22 15 38 53t16 95v395q0 58 -16 95.5t-38 52.5v2h246v-2q-22 -15 -38 -53t-16 -95v-395q0 -58 16 -95.5t38 -52.5v-2h-246v2zM63 775.5q-17 17.5 -17 41.5q0 25 17 42t42 17q24 0 40.5 -17t16.5 -42q0 -24 -16.5 -41.5t-40.5 -17.5q-25 0 -42 17.5zM219 775.5
q-17 17.5 -17 41.5q0 25 17 42t42 17q24 0 40.5 -17t16.5 -42q0 -24 -16.5 -41.5t-40.5 -17.5q-25 0 -42 17.5z" />
    <glyph glyph-name="Eth" unicode="&#xd0;" horiz-adv-x="750" 
d="M541.5 653.5q78.5 -41.5 121.5 -119.5t43 -186q0 -167 -91 -257.5t-273 -90.5h-274v2q22 15 38 53t16 95v156h-16q-55 0 -79 -17l-2 1l17 106h80v149q0 52 -16.5 93t-37.5 55v2h290q105 0 183.5 -41.5zM505 163q53 64 53 185q0 127 -52 187.5t-159 60.5h-88v-200h49
q44 0 71 14l2 -1l-14 -103h-108v-207h93q100 0 153 64z" />
    <glyph glyph-name="Ntilde" unicode="&#xd1;" horiz-adv-x="790" 
d="M59 2q22 15 38 53t16 95v400q0 44 -14 84.5t-40 58.5v2h227q2 -17 10 -37.5t31 -58.5l144 -242q42 -71 92 -198h4q-16 91 -16 206v180q0 58 -14.5 96t-36.5 52v2h231v-2q-22 -14 -38 -52.5t-16 -95.5v-395q0 -57 16 -95.5t38 -52.5v-2h-211q-18 43 -50 95l-141 229
q-35 57 -58 107.5t-46 120.5h-4q11 -65 14.5 -117t3.5 -115v-170q0 -58 14.5 -96t36.5 -52v-2h-231v2zM215 823q32 34 62 49t67 15q20 0 34.5 -5t33.5 -15q15 -8 27 -12.5t26 -4.5q21 0 36 11t20 27h2l53 -83q-30 -27 -58 -39t-62 -12q-21 0 -36 5.5t-35 15.5
q-18 9 -29 13.5t-26 4.5q-39 0 -62 -45h-2z" />
    <glyph glyph-name="Ograve" unicode="&#xd2;" horiz-adv-x="816" 
d="M210 27q-81 47 -123.5 129t-42.5 185q0 112 44.5 196.5t128.5 131t198 46.5q106 0 187 -45t125.5 -127t44.5 -188q0 -110 -46.5 -195.5t-131 -132.5t-194.5 -47q-109 0 -190 47zM519.5 116q48.5 32 76 91.5t27.5 137.5q0 126 -58 196t-160 70q-65 0 -113 -32.5t-73.5 -91
t-25.5 -136.5q0 -125 56 -196t161 -71q61 0 109.5 32zM363.5 814q-42.5 43 -69.5 63l88 85l2 -1q5 -25 48 -84t75 -90l-81 -42q-20 26 -62.5 69z" />
    <glyph glyph-name="Oacute" unicode="&#xd3;" horiz-adv-x="816" 
d="M210 27q-81 47 -123.5 129t-42.5 185q0 112 44.5 196.5t128.5 131t198 46.5q106 0 187 -45t125.5 -127t44.5 -188q0 -110 -46.5 -195.5t-131 -132.5t-194.5 -47q-109 0 -190 47zM519.5 116q48.5 32 76 91.5t27.5 137.5q0 126 -58 196t-160 70q-65 0 -113 -32.5t-73.5 -91
t-25.5 -136.5q0 -125 56 -196t161 -71q61 0 109.5 32zM333 787q34 32 75 90t46 84l2 1l89 -85q-28 -20 -69.5 -63t-61.5 -69z" />
    <glyph glyph-name="Ocircumflex" unicode="&#xd4;" horiz-adv-x="816" 
d="M210 27q-81 47 -123.5 129t-42.5 185q0 112 44.5 196.5t128.5 131t198 46.5q106 0 187 -45t125.5 -127t44.5 -188q0 -110 -46.5 -195.5t-131 -132.5t-194.5 -47q-109 0 -190 47zM519.5 116q48.5 32 76 91.5t27.5 137.5q0 126 -58 196t-160 70q-65 0 -113 -32.5t-73.5 -91
t-25.5 -136.5q0 -125 56 -196t161 -71q61 0 109.5 32zM511 880q39 -32 71 -50l-79 -94l-2 1q-6 17 -33.5 52t-56.5 65q-28 -29 -55.5 -64.5t-33.5 -52.5l-2 -1l-79 94q30 17 70 49.5t65 61.5h71q25 -29 64 -61z" />
    <glyph glyph-name="Otilde" unicode="&#xd5;" horiz-adv-x="816" 
d="M210 27q-81 47 -123.5 129t-42.5 185q0 112 44.5 196.5t128.5 131t198 46.5q106 0 187 -45t125.5 -127t44.5 -188q0 -110 -46.5 -195.5t-131 -132.5t-194.5 -47q-109 0 -190 47zM519.5 116q48.5 32 76 91.5t27.5 137.5q0 126 -58 196t-160 70q-65 0 -113 -32.5t-73.5 -91
t-25.5 -136.5q0 -125 56 -196t161 -71q61 0 109.5 32zM229 831q32 34 62 49t67 15q20 0 34.5 -5t33.5 -15q15 -8 27 -12.5t26 -4.5q21 0 36 11t20 27h2l53 -83q-30 -27 -58 -39t-62 -12q-21 0 -36 5.5t-35 15.5q-18 9 -29 13.5t-26 4.5q-39 0 -62 -45h-2z" />
    <glyph glyph-name="Odieresis" unicode="&#xd6;" horiz-adv-x="816" 
d="M210 27q-81 47 -123.5 129t-42.5 185q0 112 44.5 196.5t128.5 131t198 46.5q106 0 187 -45t125.5 -127t44.5 -188q0 -110 -46.5 -195.5t-131 -132.5t-194.5 -47q-109 0 -190 47zM519.5 116q48.5 32 76 91.5t27.5 137.5q0 126 -58 196t-160 70q-65 0 -113 -32.5t-73.5 -91
t-25.5 -136.5q0 -125 56 -196t161 -71q61 0 109.5 32zM293 783.5q-17 17.5 -17 41.5q0 25 17 42t42 17q24 0 40.5 -17t16.5 -42q0 -24 -16.5 -41.5t-40.5 -17.5q-25 0 -42 17.5zM449 783.5q-17 17.5 -17 41.5q0 25 17 42t42 17q24 0 40.5 -17t16.5 -42q0 -24 -16.5 -41.5
t-40.5 -17.5q-25 0 -42 17.5z" />
    <glyph glyph-name="multiply" unicode="&#xd7;" horiz-adv-x="465" 
d="M420.5 232.5q13.5 -9.5 29.5 -12.5v-2l-109 -112h-2q-3 14 -14.5 29.5t-39.5 43.5l-56 55l-52 -55q-29 -30 -40 -45t-15 -27h-2l-106 101v2q18 3 32 12.5t43 39.5l55 56l-56 55q-29 29 -44.5 40t-28.5 14v2l106 111h2q4 -17 13.5 -31.5t39.5 -42.5l57 -56l50 52
q30 31 39.5 44.5t14.5 28.5h2l101 -99v-2q-14 -4 -30 -14.5t-43 -39.5l-49 -52l57 -56q32 -30 45.5 -39.5z" />
    <glyph glyph-name="Oslash" unicode="&#xd8;" horiz-adv-x="816" 
d="M691 596q39 -46 60 -107.5t21 -133.5q0 -110 -47 -195t-131.5 -132t-193.5 -47t-190 47l-24 -28q-38 -45 -54 -83l-2 -1l-88 85l83 98q-40 47 -60.5 109t-20.5 133q0 112 44.5 196t128.5 130.5t198 46.5q105 0 190 -47l16 20q47 56 60 88l2 1l91 -81zM292 577
q-48 -32 -73.5 -90.5t-25.5 -135.5q0 -88 28 -148l311 368q-52 38 -127 38q-65 0 -113 -32zM519.5 118.5q48.5 31.5 76 90t27.5 136.5q0 87 -29 148l-312 -368q52 -38 128 -38q61 0 109.5 31.5z" />
    <glyph glyph-name="Ugrave" unicode="&#xd9;" horiz-adv-x="744" 
d="M161 59q-71 76 -71 227v259q0 57 -16 95t-38 53v2h243v-2q-20 -15 -35.5 -53t-15.5 -95v-270q0 -102 34 -144.5t116 -42.5q73 0 107 45.5t34 141.5v270q0 56 -15.5 94.5t-35.5 53.5v2h240v-2q-22 -15 -38 -52.5t-16 -95.5v-259q0 -152 -71 -227.5t-216 -75.5
q-135 0 -206 76zM323.5 806q-42.5 43 -69.5 63l88 85l2 -1q5 -25 48 -84t75 -90l-81 -42q-20 26 -62.5 69z" />
    <glyph glyph-name="Uacute" unicode="&#xda;" horiz-adv-x="744" 
d="M161 59q-71 76 -71 227v259q0 57 -16 95t-38 53v2h243v-2q-20 -15 -35.5 -53t-15.5 -95v-270q0 -102 34 -144.5t116 -42.5q73 0 107 45.5t34 141.5v270q0 56 -15.5 94.5t-35.5 53.5v2h240v-2q-22 -15 -38 -52.5t-16 -95.5v-259q0 -152 -71 -227.5t-216 -75.5
q-135 0 -206 76zM293 779q34 32 75 90t46 84l2 1l89 -85q-28 -20 -69.5 -63t-61.5 -69z" />
    <glyph glyph-name="Ucircumflex" unicode="&#xdb;" horiz-adv-x="744" 
d="M161 59q-71 76 -71 227v259q0 57 -16 95t-38 53v2h243v-2q-20 -15 -35.5 -53t-15.5 -95v-270q0 -102 34 -144.5t116 -42.5q73 0 107 45.5t34 141.5v270q0 56 -15.5 94.5t-35.5 53.5v2h240v-2q-22 -15 -38 -52.5t-16 -95.5v-259q0 -152 -71 -227.5t-216 -75.5
q-135 0 -206 76zM471 872q39 -32 71 -50l-79 -94l-2 1q-6 17 -33.5 52t-56.5 65q-28 -29 -55.5 -64.5t-33.5 -52.5l-2 -1l-79 94q30 17 70 49.5t65 61.5h71q25 -29 64 -61z" />
    <glyph glyph-name="Udieresis" unicode="&#xdc;" horiz-adv-x="744" 
d="M161 59q-71 76 -71 227v259q0 57 -16 95t-38 53v2h243v-2q-20 -15 -35.5 -53t-15.5 -95v-270q0 -102 34 -144.5t116 -42.5q73 0 107 45.5t34 141.5v270q0 56 -15.5 94.5t-35.5 53.5v2h240v-2q-22 -15 -38 -52.5t-16 -95.5v-259q0 -152 -71 -227.5t-216 -75.5
q-135 0 -206 76zM253 775.5q-17 17.5 -17 41.5q0 25 17 42t42 17q24 0 40.5 -17t16.5 -42q0 -24 -16.5 -41.5t-40.5 -17.5q-25 0 -42 17.5zM409 775.5q-17 17.5 -17 41.5q0 25 17 42t42 17q24 0 40.5 -17t16.5 -42q0 -24 -16.5 -41.5t-40.5 -17.5q-25 0 -42 17.5z" />
    <glyph glyph-name="Yacute" unicode="&#xdd;" horiz-adv-x="643" 
d="M662 695v-2q-32 -24 -80 -102l-189 -312v-121q0 -61 17.5 -101.5t43.5 -54.5v-2h-259v2q24 14 42.5 55.5t18.5 100.5v116l-192 317q-46 75 -81 102v2h213v-2q-3 -9 -3 -20q0 -37 26 -82l77 -133q19 -31 31 -65h4q8 23 18.5 41.5t13.5 23.5l76 133q25 45 25 80q0 13 -3 22
v2h201zM244 779q34 32 75 90t46 84l2 1l89 -85q-28 -20 -69.5 -63t-61.5 -69z" />
    <glyph glyph-name="Thorn" unicode="&#xde;" horiz-adv-x="611" 
d="M582 352q0 -112 -67.5 -170.5t-182.5 -58.5h-82q2 -47 14.5 -77.5t31.5 -43.5v-2h-237v2q22 15 38 53t16 95v395q0 58 -16 95.5t-38 52.5v2h234v-2q-18 -12 -29.5 -41.5t-13.5 -73.5h82q250 0 250 -226zM408.5 252.5q33.5 32.5 33.5 94.5q0 68 -33 100.5t-100 31.5h-59
v-257l59 -1q66 -1 99.5 31.5z" />
    <glyph glyph-name="germandbls" unicode="&#xdf;" horiz-adv-x="730" 
d="M643.5 350.5q50.5 -58.5 50.5 -133.5q0 -63 -29 -117t-84 -86.5t-129 -32.5q-30 0 -52 3t-47 10l-16 126l2 1q42 -36 94 -36t86.5 35t34.5 87q0 66 -42 102t-116 36q-34 0 -60 -5v2l135 253h-221v-445q0 -57 15 -95t36 -53v-2h-242v2q22 15 38 53t16 95v395
q0 58 -16 95.5t-38 52.5v2h607l1 -3l-152 -266q78 -17 128.5 -75.5z" />
    <glyph glyph-name="agrave" unicode="&#xe0;" horiz-adv-x="676" 
d="M643 65.5q28 -44.5 51 -63.5v-2h-226v2q16 12 16 46q0 32 -16 77l-9 24h-258l-9 -24q-16 -41 -16 -76t14 -47v-2h-210v2q23 20 50.5 64t46.5 98l143 412q9 27 9 49q0 23 -8 41t-19 27v2h265v-2q-11 -10 -19 -27.5t-8 -40.5q0 -22 9 -49l147 -412q19 -54 47 -98.5z
M308 465.5q-13 -45.5 -37 -112.5l-37 -106h192l-37 106q-25 72 -38 115t-20 94h-4q-6 -51 -19 -96.5zM282.5 806q-42.5 43 -69.5 63l88 85l2 -1q5 -25 48 -84t75 -90l-81 -42q-20 26 -62.5 69z" />
    <glyph glyph-name="aacute" unicode="&#xe1;" horiz-adv-x="676" 
d="M643 65.5q28 -44.5 51 -63.5v-2h-226v2q16 12 16 46q0 32 -16 77l-9 24h-258l-9 -24q-16 -41 -16 -76t14 -47v-2h-210v2q23 20 50.5 64t46.5 98l143 412q9 27 9 49q0 23 -8 41t-19 27v2h265v-2q-11 -10 -19 -27.5t-8 -40.5q0 -22 9 -49l147 -412q19 -54 47 -98.5z
M308 465.5q-13 -45.5 -37 -112.5l-37 -106h192l-37 106q-25 72 -38 115t-20 94h-4q-6 -51 -19 -96.5zM252 779q34 32 75 90t46 84l2 1l89 -85q-28 -20 -69.5 -63t-61.5 -69z" />
    <glyph glyph-name="acircumflex" unicode="&#xe2;" horiz-adv-x="676" 
d="M643 65.5q28 -44.5 51 -63.5v-2h-226v2q16 12 16 46q0 32 -16 77l-9 24h-258l-9 -24q-16 -41 -16 -76t14 -47v-2h-210v2q23 20 50.5 64t46.5 98l143 412q9 27 9 49q0 23 -8 41t-19 27v2h265v-2q-11 -10 -19 -27.5t-8 -40.5q0 -22 9 -49l147 -412q19 -54 47 -98.5z
M308 465.5q-13 -45.5 -37 -112.5l-37 -106h192l-37 106q-25 72 -38 115t-20 94h-4q-6 -51 -19 -96.5zM430 872q39 -32 71 -50l-79 -94l-2 1q-6 17 -33.5 52t-56.5 65q-28 -29 -55.5 -64.5t-33.5 -52.5l-2 -1l-79 94q30 17 70 49.5t65 61.5h71q25 -29 64 -61z" />
    <glyph glyph-name="atilde" unicode="&#xe3;" horiz-adv-x="676" 
d="M643 65.5q28 -44.5 51 -63.5v-2h-226v2q16 12 16 46q0 32 -16 77l-9 24h-258l-9 -24q-16 -41 -16 -76t14 -47v-2h-210v2q23 20 50.5 64t46.5 98l143 412q9 27 9 49q0 23 -8 41t-19 27v2h265v-2q-11 -10 -19 -27.5t-8 -40.5q0 -22 9 -49l147 -412q19 -54 47 -98.5z
M308 465.5q-13 -45.5 -37 -112.5l-37 -106h192l-37 106q-25 72 -38 115t-20 94h-4q-6 -51 -19 -96.5zM148 823q32 34 62 49t67 15q20 0 34.5 -5t33.5 -15q15 -8 27 -12.5t26 -4.5q21 0 36 11t20 27h2l53 -83q-30 -27 -58 -39t-62 -12q-21 0 -36 5.5t-35 15.5q-18 9 -29 13.5
t-26 4.5q-39 0 -62 -45h-2z" />
    <glyph glyph-name="adieresis" unicode="&#xe4;" horiz-adv-x="676" 
d="M643 65.5q28 -44.5 51 -63.5v-2h-226v2q16 12 16 46q0 32 -16 77l-9 24h-258l-9 -24q-16 -41 -16 -76t14 -47v-2h-210v2q23 20 50.5 64t46.5 98l143 412q9 27 9 49q0 23 -8 41t-19 27v2h265v-2q-11 -10 -19 -27.5t-8 -40.5q0 -22 9 -49l147 -412q19 -54 47 -98.5z
M308 465.5q-13 -45.5 -37 -112.5l-37 -106h192l-37 106q-25 72 -38 115t-20 94h-4q-6 -51 -19 -96.5zM212 775.5q-17 17.5 -17 41.5q0 25 17 42t42 17q24 0 40.5 -17t16.5 -42q0 -24 -16.5 -41.5t-40.5 -17.5q-25 0 -42 17.5zM368 775.5q-17 17.5 -17 41.5q0 25 17 42t42 17
q24 0 40.5 -17t16.5 -42q0 -24 -16.5 -41.5t-40.5 -17.5q-25 0 -42 17.5z" />
    <glyph glyph-name="aring" unicode="&#xe5;" horiz-adv-x="672" 
d="M644.5 65q27.5 -44 50.5 -63v-2h-226v2q15 12 15 46q0 33 -15 77l-8 24h-259l-9 -24q-16 -43 -16 -77t14 -46v-2h-210v2q24 20 51.5 64t46.5 98l142 412q10 28 10 46q0 21 -12 37q-26 36 -26 81q0 39 19 71t52 50.5t73 18.5q39 0 71.5 -18.5t52 -50.5t19.5 -71
q0 -42 -24 -77q-15 -20 -15 -44q0 -16 9 -43l147 -412q20 -55 47.5 -99zM300 778.5q-14 -13.5 -14 -38.5q0 -24 13.5 -37.5t37.5 -13.5q23 0 36 13.5t13 37.5q0 25 -13 38.5t-36 13.5t-37 -13.5zM310 466.5q-13 -44.5 -38 -113.5l-38 -106h194l-36 102q-25 69 -38.5 115.5
t-20.5 97.5h-4q-6 -51 -19 -95.5z" />
    <glyph glyph-name="ae" unicode="&#xe6;" horiz-adv-x="863" 
d="M825 200l-28 -208q-49 8 -122 8h-304v2q19 15 27 45t8 78v24h-203l-11 -24q-17 -44 -17 -81q0 -32 12 -42v-2h-207v2q33 30 96 162l197 412q16 35 16 59q0 38 -32 58v2h424q71 0 106 8l17 -187l-2 -1q-18 37 -58 55.5t-99 18.5h-109v-168h53q64 0 93.5 1.5t62.5 5.5
l-29 -175h-2q-12 33 -39 48t-70 15h-69v-209h86q66 0 117.5 24t83.5 70zM406 247v318h-3q-4 -15 -29 -62q-2 -5 -4.5 -10.5t-5.5 -10.5l-112 -235h154z" />
    <glyph glyph-name="ccedilla" unicode="&#xe7;" horiz-adv-x="657" 
d="M431 -14l-6 -32q51 -5 83.5 -29.5t32.5 -75.5q0 -57 -41 -87t-96 -30q-23 0 -46.5 6t-41.5 17l-9 87l2 1q23 -20 42.5 -28.5t42.5 -8.5q27 0 42 11.5t15 30.5q0 21 -15 30t-47 9q-30 0 -50 -4l-2 2l21 102q-95 8 -166.5 56t-109.5 126t-38 174q0 111 46.5 194
t131.5 127.5t198 44.5q91 0 176 -25l16 -173l-2 -1q-30 46 -80.5 70t-110.5 24q-105 0 -165.5 -67.5t-60.5 -183.5q0 -118 55.5 -190t157.5 -72q77 0 130 28.5t95 83.5l2 -1l-24 -179q-90 -31 -178 -37z" />
    <glyph glyph-name="egrave" unicode="&#xe8;" 
d="M562 191l-28 -199q-28 5 -53.5 6.5t-68.5 1.5h-353v2q22 15 38 53t16 95v395q0 58 -16 95.5t-38 52.5v2h359q71 0 106 8l17 -179l-2 -1q-18 37 -58 55.5t-99 18.5h-132v-176h76q63 0 93 1.5t63 5.5l-29 -168h-2q-12 33 -39 48t-70 15h-92v-225h109q66 0 117.5 24t83.5 70
zM266.5 806q-42.5 43 -69.5 63l88 85l2 -1q5 -25 48 -84t75 -90l-81 -42q-20 26 -62.5 69z" />
    <glyph glyph-name="eacute" unicode="&#xe9;" 
d="M562 191l-28 -199q-28 5 -53.5 6.5t-68.5 1.5h-353v2q22 15 38 53t16 95v395q0 58 -16 95.5t-38 52.5v2h359q71 0 106 8l17 -179l-2 -1q-18 37 -58 55.5t-99 18.5h-132v-176h76q63 0 93 1.5t63 5.5l-29 -168h-2q-12 33 -39 48t-70 15h-92v-225h109q66 0 117.5 24t83.5 70
zM236 779q34 32 75 90t46 84l2 1l89 -85q-28 -20 -69.5 -63t-61.5 -69z" />
    <glyph glyph-name="ecircumflex" unicode="&#xea;" 
d="M562 191l-28 -199q-28 5 -53.5 6.5t-68.5 1.5h-353v2q22 15 38 53t16 95v395q0 58 -16 95.5t-38 52.5v2h359q71 0 106 8l17 -179l-2 -1q-18 37 -58 55.5t-99 18.5h-132v-176h76q63 0 93 1.5t63 5.5l-29 -168h-2q-12 33 -39 48t-70 15h-92v-225h109q66 0 117.5 24t83.5 70
zM414 872q39 -32 71 -50l-79 -94l-2 1q-6 17 -33.5 52t-56.5 65q-28 -29 -55.5 -64.5t-33.5 -52.5l-2 -1l-79 94q30 17 70 49.5t65 61.5h71q25 -29 64 -61z" />
    <glyph glyph-name="edieresis" unicode="&#xeb;" 
d="M562 191l-28 -199q-28 5 -53.5 6.5t-68.5 1.5h-353v2q22 15 38 53t16 95v395q0 58 -16 95.5t-38 52.5v2h359q71 0 106 8l17 -179l-2 -1q-18 37 -58 55.5t-99 18.5h-132v-176h76q63 0 93 1.5t63 5.5l-29 -168h-2q-12 33 -39 48t-70 15h-92v-225h109q66 0 117.5 24t83.5 70
zM196 775.5q-17 17.5 -17 41.5q0 25 17 42t42 17q24 0 40.5 -17t16.5 -42q0 -24 -16.5 -41.5t-40.5 -17.5q-25 0 -42 17.5zM352 775.5q-17 17.5 -17 41.5q0 25 17 42t42 17q24 0 40.5 -17t16.5 -42q0 -24 -16.5 -41.5t-40.5 -17.5q-25 0 -42 17.5z" />
    <glyph glyph-name="igrave" unicode="&#xec;" horiz-adv-x="364" 
d="M59 2q22 15 38 53t16 95v395q0 58 -16 95.5t-38 52.5v2h246v-2q-22 -15 -38 -53t-16 -95v-395q0 -58 16 -95.5t38 -52.5v-2h-246v2zM133.5 806q-42.5 43 -69.5 63l88 85l2 -1q5 -25 48 -84t75 -90l-81 -42q-20 26 -62.5 69z" />
    <glyph glyph-name="iacute" unicode="&#xed;" horiz-adv-x="364" 
d="M59 2q22 15 38 53t16 95v395q0 58 -16 95.5t-38 52.5v2h246v-2q-22 -15 -38 -53t-16 -95v-395q0 -58 16 -95.5t38 -52.5v-2h-246v2zM103 779q34 32 75 90t46 84l2 1l89 -85q-28 -20 -69.5 -63t-61.5 -69z" />
    <glyph glyph-name="icircumflex" unicode="&#xee;" horiz-adv-x="364" 
d="M59 2q22 15 38 53t16 95v395q0 58 -16 95.5t-38 52.5v2h246v-2q-22 -15 -38 -53t-16 -95v-395q0 -58 16 -95.5t38 -52.5v-2h-246v2zM281 872q39 -32 71 -50l-79 -94l-2 1q-6 17 -33.5 52t-56.5 65q-28 -29 -55.5 -64.5t-33.5 -52.5l-2 -1l-79 94q30 17 70 49.5t65 61.5
h71q25 -29 64 -61z" />
    <glyph glyph-name="idieresis" unicode="&#xef;" horiz-adv-x="364" 
d="M59 2q22 15 38 53t16 95v395q0 58 -16 95.5t-38 52.5v2h246v-2q-22 -15 -38 -53t-16 -95v-395q0 -58 16 -95.5t38 -52.5v-2h-246v2zM63 775.5q-17 17.5 -17 41.5q0 25 17 42t42 17q24 0 40.5 -17t16.5 -42q0 -24 -16.5 -41.5t-40.5 -17.5q-25 0 -42 17.5zM219 775.5
q-17 17.5 -17 41.5q0 25 17 42t42 17q24 0 40.5 -17t16.5 -42q0 -24 -16.5 -41.5t-40.5 -17.5q-25 0 -42 17.5z" />
    <glyph glyph-name="eth" unicode="&#xf0;" horiz-adv-x="750" 
d="M541.5 653.5q78.5 -41.5 121.5 -119.5t43 -186q0 -167 -91 -257.5t-273 -90.5h-274v2q22 15 38 53t16 95v156h-16q-55 0 -79 -17l-2 1l17 106h80v149q0 52 -16.5 93t-37.5 55v2h290q105 0 183.5 -41.5zM505 163q53 64 53 185q0 127 -52 187.5t-159 60.5h-88v-200h49
q44 0 71 14l2 -1l-14 -103h-108v-207h93q100 0 153 64z" />
    <glyph glyph-name="ntilde" unicode="&#xf1;" horiz-adv-x="790" 
d="M59 2q22 15 38 53t16 95v400q0 44 -14 84.5t-40 58.5v2h227q2 -17 10 -37.5t31 -58.5l144 -242q42 -71 92 -198h4q-16 91 -16 206v180q0 58 -14.5 96t-36.5 52v2h231v-2q-22 -14 -38 -52.5t-16 -95.5v-395q0 -57 16 -95.5t38 -52.5v-2h-211q-18 43 -50 95l-141 229
q-35 57 -58 107.5t-46 120.5h-4q11 -65 14.5 -117t3.5 -115v-170q0 -58 14.5 -96t36.5 -52v-2h-231v2zM215 823q32 34 62 49t67 15q20 0 34.5 -5t33.5 -15q15 -8 27 -12.5t26 -4.5q21 0 36 11t20 27h2l53 -83q-30 -27 -58 -39t-62 -12q-21 0 -36 5.5t-35 15.5
q-18 9 -29 13.5t-26 4.5q-39 0 -62 -45h-2z" />
    <glyph glyph-name="ograve" unicode="&#xf2;" horiz-adv-x="816" 
d="M210 27q-81 47 -123.5 129t-42.5 185q0 112 44.5 196.5t128.5 131t198 46.5q106 0 187 -45t125.5 -127t44.5 -188q0 -110 -46.5 -195.5t-131 -132.5t-194.5 -47q-109 0 -190 47zM519.5 116q48.5 32 76 91.5t27.5 137.5q0 126 -58 196t-160 70q-65 0 -113 -32.5t-73.5 -91
t-25.5 -136.5q0 -125 56 -196t161 -71q61 0 109.5 32zM363.5 814q-42.5 43 -69.5 63l88 85l2 -1q5 -25 48 -84t75 -90l-81 -42q-20 26 -62.5 69z" />
    <glyph glyph-name="oacute" unicode="&#xf3;" horiz-adv-x="816" 
d="M210 27q-81 47 -123.5 129t-42.5 185q0 112 44.5 196.5t128.5 131t198 46.5q106 0 187 -45t125.5 -127t44.5 -188q0 -110 -46.5 -195.5t-131 -132.5t-194.5 -47q-109 0 -190 47zM519.5 116q48.5 32 76 91.5t27.5 137.5q0 126 -58 196t-160 70q-65 0 -113 -32.5t-73.5 -91
t-25.5 -136.5q0 -125 56 -196t161 -71q61 0 109.5 32zM333 787q34 32 75 90t46 84l2 1l89 -85q-28 -20 -69.5 -63t-61.5 -69z" />
    <glyph glyph-name="ocircumflex" unicode="&#xf4;" horiz-adv-x="816" 
d="M210 27q-81 47 -123.5 129t-42.5 185q0 112 44.5 196.5t128.5 131t198 46.5q106 0 187 -45t125.5 -127t44.5 -188q0 -110 -46.5 -195.5t-131 -132.5t-194.5 -47q-109 0 -190 47zM519.5 116q48.5 32 76 91.5t27.5 137.5q0 126 -58 196t-160 70q-65 0 -113 -32.5t-73.5 -91
t-25.5 -136.5q0 -125 56 -196t161 -71q61 0 109.5 32zM511 880q39 -32 71 -50l-79 -94l-2 1q-6 17 -33.5 52t-56.5 65q-28 -29 -55.5 -64.5t-33.5 -52.5l-2 -1l-79 94q30 17 70 49.5t65 61.5h71q25 -29 64 -61z" />
    <glyph glyph-name="otilde" unicode="&#xf5;" horiz-adv-x="816" 
d="M210 27q-81 47 -123.5 129t-42.5 185q0 112 44.5 196.5t128.5 131t198 46.5q106 0 187 -45t125.5 -127t44.5 -188q0 -110 -46.5 -195.5t-131 -132.5t-194.5 -47q-109 0 -190 47zM519.5 116q48.5 32 76 91.5t27.5 137.5q0 126 -58 196t-160 70q-65 0 -113 -32.5t-73.5 -91
t-25.5 -136.5q0 -125 56 -196t161 -71q61 0 109.5 32zM229 831q32 34 62 49t67 15q20 0 34.5 -5t33.5 -15q15 -8 27 -12.5t26 -4.5q21 0 36 11t20 27h2l53 -83q-30 -27 -58 -39t-62 -12q-21 0 -36 5.5t-35 15.5q-18 9 -29 13.5t-26 4.5q-39 0 -62 -45h-2z" />
    <glyph glyph-name="odieresis" unicode="&#xf6;" horiz-adv-x="816" 
d="M210 27q-81 47 -123.5 129t-42.5 185q0 112 44.5 196.5t128.5 131t198 46.5q106 0 187 -45t125.5 -127t44.5 -188q0 -110 -46.5 -195.5t-131 -132.5t-194.5 -47q-109 0 -190 47zM519.5 116q48.5 32 76 91.5t27.5 137.5q0 126 -58 196t-160 70q-65 0 -113 -32.5t-73.5 -91
t-25.5 -136.5q0 -125 56 -196t161 -71q61 0 109.5 32zM293 783.5q-17 17.5 -17 41.5q0 25 17 42t42 17q24 0 40.5 -17t16.5 -42q0 -24 -16.5 -41.5t-40.5 -17.5q-25 0 -42 17.5zM449 783.5q-17 17.5 -17 41.5q0 25 17 42t42 17q24 0 40.5 -17t16.5 -42q0 -24 -16.5 -41.5
t-40.5 -17.5q-25 0 -42 17.5z" />
    <glyph glyph-name="divide" unicode="&#xf7;" horiz-adv-x="488" 
d="M200 459.5q-22 21.5 -22 53.5q0 31 22 53t54 22t53 -21.5t21 -53.5t-21.5 -53.5t-52.5 -21.5q-32 0 -54 21.5zM18 248l15 124h329q41 0 65 6.5t41 19.5l2 -1l-13 -125h-329q-43 0 -67 -5.5t-41 -19.5zM200 69.5q-22 21.5 -22 53.5q0 31 22 53t54 22t53 -21.5t21 -53.5
t-21.5 -53.5t-52.5 -21.5q-32 0 -54 21.5z" />
    <glyph glyph-name="oslash" unicode="&#xf8;" horiz-adv-x="816" 
d="M691 596q39 -46 60 -107.5t21 -133.5q0 -110 -47 -195t-131.5 -132t-193.5 -47t-190 47l-24 -28q-38 -45 -54 -83l-2 -1l-88 85l83 98q-40 47 -60.5 109t-20.5 133q0 112 44.5 196t128.5 130.5t198 46.5q105 0 190 -47l16 20q47 56 60 88l2 1l91 -81zM292 577
q-48 -32 -73.5 -90.5t-25.5 -135.5q0 -88 28 -148l311 368q-52 38 -127 38q-65 0 -113 -32zM519.5 118.5q48.5 31.5 76 90t27.5 136.5q0 87 -29 148l-312 -368q52 -38 128 -38q61 0 109.5 31.5z" />
    <glyph glyph-name="ugrave" unicode="&#xf9;" horiz-adv-x="744" 
d="M161 59q-71 76 -71 227v259q0 57 -16 95t-38 53v2h243v-2q-20 -15 -35.5 -53t-15.5 -95v-270q0 -102 34 -144.5t116 -42.5q73 0 107 45.5t34 141.5v270q0 56 -15.5 94.5t-35.5 53.5v2h240v-2q-22 -15 -38 -52.5t-16 -95.5v-259q0 -152 -71 -227.5t-216 -75.5
q-135 0 -206 76zM323.5 806q-42.5 43 -69.5 63l88 85l2 -1q5 -25 48 -84t75 -90l-81 -42q-20 26 -62.5 69z" />
    <glyph glyph-name="uacute" unicode="&#xfa;" horiz-adv-x="744" 
d="M161 59q-71 76 -71 227v259q0 57 -16 95t-38 53v2h243v-2q-20 -15 -35.5 -53t-15.5 -95v-270q0 -102 34 -144.5t116 -42.5q73 0 107 45.5t34 141.5v270q0 56 -15.5 94.5t-35.5 53.5v2h240v-2q-22 -15 -38 -52.5t-16 -95.5v-259q0 -152 -71 -227.5t-216 -75.5
q-135 0 -206 76zM293 779q34 32 75 90t46 84l2 1l89 -85q-28 -20 -69.5 -63t-61.5 -69z" />
    <glyph glyph-name="ucircumflex" unicode="&#xfb;" horiz-adv-x="744" 
d="M161 59q-71 76 -71 227v259q0 57 -16 95t-38 53v2h243v-2q-20 -15 -35.5 -53t-15.5 -95v-270q0 -102 34 -144.5t116 -42.5q73 0 107 45.5t34 141.5v270q0 56 -15.5 94.5t-35.5 53.5v2h240v-2q-22 -15 -38 -52.5t-16 -95.5v-259q0 -152 -71 -227.5t-216 -75.5
q-135 0 -206 76zM471 872q39 -32 71 -50l-79 -94l-2 1q-6 17 -33.5 52t-56.5 65q-28 -29 -55.5 -64.5t-33.5 -52.5l-2 -1l-79 94q30 17 70 49.5t65 61.5h71q25 -29 64 -61z" />
    <glyph glyph-name="udieresis" unicode="&#xfc;" horiz-adv-x="744" 
d="M161 59q-71 76 -71 227v259q0 57 -16 95t-38 53v2h243v-2q-20 -15 -35.5 -53t-15.5 -95v-270q0 -102 34 -144.5t116 -42.5q73 0 107 45.5t34 141.5v270q0 56 -15.5 94.5t-35.5 53.5v2h240v-2q-22 -15 -38 -52.5t-16 -95.5v-259q0 -152 -71 -227.5t-216 -75.5
q-135 0 -206 76zM253 775.5q-17 17.5 -17 41.5q0 25 17 42t42 17q24 0 40.5 -17t16.5 -42q0 -24 -16.5 -41.5t-40.5 -17.5q-25 0 -42 17.5zM409 775.5q-17 17.5 -17 41.5q0 25 17 42t42 17q24 0 40.5 -17t16.5 -42q0 -24 -16.5 -41.5t-40.5 -17.5q-25 0 -42 17.5z" />
    <glyph glyph-name="yacute" unicode="&#xfd;" horiz-adv-x="643" 
d="M662 695v-2q-32 -24 -80 -102l-189 -312v-121q0 -61 17.5 -101.5t43.5 -54.5v-2h-259v2q24 14 42.5 55.5t18.5 100.5v116l-192 317q-46 75 -81 102v2h213v-2q-3 -9 -3 -20q0 -37 26 -82l77 -133q19 -31 31 -65h4q8 23 18.5 41.5t13.5 23.5l76 133q25 45 25 80q0 13 -3 22
v2h201zM244 779q34 32 75 90t46 84l2 1l89 -85q-28 -20 -69.5 -63t-61.5 -69z" />
    <glyph glyph-name="thorn" unicode="&#xfe;" horiz-adv-x="611" 
d="M582 352q0 -112 -67.5 -170.5t-182.5 -58.5h-82q2 -47 14.5 -77.5t31.5 -43.5v-2h-237v2q22 15 38 53t16 95v395q0 58 -16 95.5t-38 52.5v2h234v-2q-18 -12 -29.5 -41.5t-13.5 -73.5h82q250 0 250 -226zM408.5 252.5q33.5 32.5 33.5 94.5q0 68 -33 100.5t-100 31.5h-59
v-257l59 -1q66 -1 99.5 31.5z" />
    <glyph glyph-name="ydieresis" unicode="&#xff;" horiz-adv-x="643" 
d="M662 695v-2q-32 -24 -80 -102l-189 -312v-121q0 -61 17.5 -101.5t43.5 -54.5v-2h-259v2q24 14 42.5 55.5t18.5 100.5v116l-192 317q-46 75 -81 102v2h213v-2q-3 -9 -3 -20q0 -37 26 -82l77 -133q19 -31 31 -65h4q8 23 18.5 41.5t13.5 23.5l76 133q25 45 25 80q0 13 -3 22
v2h201zM204 775.5q-17 17.5 -17 41.5q0 25 17 42t42 17q24 0 40.5 -17t16.5 -42q0 -24 -16.5 -41.5t-40.5 -17.5q-25 0 -42 17.5zM360 775.5q-17 17.5 -17 41.5q0 25 17 42t42 17q24 0 40.5 -17t16.5 -42q0 -24 -16.5 -41.5t-40.5 -17.5q-25 0 -42 17.5z" />
    <glyph glyph-name="Amacron" unicode="&#x100;" horiz-adv-x="676" 
d="M643 65.5q28 -44.5 51 -63.5v-2h-226v2q16 12 16 46q0 32 -16 77l-9 24h-258l-9 -24q-16 -41 -16 -76t14 -47v-2h-210v2q23 20 50.5 64t46.5 98l143 412q9 27 9 49q0 23 -8 41t-19 27v2h265v-2q-11 -10 -19 -27.5t-8 -40.5q0 -22 9 -49l147 -412q19 -54 47 -98.5z
M308 465.5q-13 -45.5 -37 -112.5l-37 -106h192l-37 106q-25 72 -38 115t-20 94h-4q-6 -51 -19 -96.5zM181 773l16 103h230q49 0 68 12l2 -1l-15 -106l-235 -1q-43 0 -64 -8z" />
    <glyph glyph-name="amacron" unicode="&#x101;" horiz-adv-x="676" 
d="M643 65.5q28 -44.5 51 -63.5v-2h-226v2q16 12 16 46q0 32 -16 77l-9 24h-258l-9 -24q-16 -41 -16 -76t14 -47v-2h-210v2q23 20 50.5 64t46.5 98l143 412q9 27 9 49q0 23 -8 41t-19 27v2h265v-2q-11 -10 -19 -27.5t-8 -40.5q0 -22 9 -49l147 -412q19 -54 47 -98.5z
M308 465.5q-13 -45.5 -37 -112.5l-37 -106h192l-37 106q-25 72 -38 115t-20 94h-4q-6 -51 -19 -96.5zM170 763l16 103h230q49 0 68 12l2 -1l-15 -106l-235 -1q-43 0 -64 -8z" />
    <glyph glyph-name="Abreve" unicode="&#x102;" horiz-adv-x="676" 
d="M643 65.5q28 -44.5 51 -63.5v-2h-226v2q16 12 16 46q0 32 -16 77l-9 24h-258l-9 -24q-16 -41 -16 -76t14 -47v-2h-210v2q23 20 50.5 64t46.5 98l143 412q9 27 9 49q0 23 -8 41t-19 27v2h265v-2q-11 -10 -19 -27.5t-8 -40.5q0 -22 9 -49l147 -412q19 -54 47 -98.5z
M308 465.5q-13 -45.5 -37 -112.5l-37 -106h192l-37 106q-25 72 -38 115t-20 94h-4q-6 -51 -19 -96.5zM212.5 780.5q-46.5 38.5 -58.5 103.5l102 34l1 -2q-3 -9 -3 -20q0 -26 20 -44.5t57 -18.5q38 0 58.5 19t20.5 46q0 9 -3 18l1 2l100 -33q-16 -66 -62 -104.5t-115 -38.5
q-72 0 -118.5 38.5z" />
    <glyph glyph-name="abreve" unicode="&#x103;" horiz-adv-x="676" 
d="M643 65.5q28 -44.5 51 -63.5v-2h-226v2q16 12 16 46q0 32 -16 77l-9 24h-258l-9 -24q-16 -41 -16 -76t14 -47v-2h-210v2q23 20 50.5 64t46.5 98l143 412q9 27 9 49q0 23 -8 41t-19 27v2h265v-2q-11 -10 -19 -27.5t-8 -40.5q0 -22 9 -49l147 -412q19 -54 47 -98.5z
M308 465.5q-13 -45.5 -37 -112.5l-37 -106h192l-37 106q-25 72 -38 115t-20 94h-4q-6 -51 -19 -96.5zM212.5 780.5q-46.5 38.5 -58.5 103.5l102 34l1 -2q-3 -9 -3 -20q0 -26 20 -44.5t57 -18.5q38 0 58.5 19t20.5 46q0 9 -3 18l1 2l100 -33q-16 -66 -62 -104.5t-115 -38.5
q-72 0 -118.5 38.5z" />
    <glyph glyph-name="Aogonek" unicode="&#x104;" horiz-adv-x="676" 
d="M532 -111q0 -28 17.5 -45t44.5 -17q22 0 43 10l1 -2l-64 -97q-60 -3 -104 27.5t-44 85.5q0 42 26.5 79.5t76.5 69.5h-61v2q16 12 16 46q0 32 -16 77l-9 24h-258l-9 -24q-16 -41 -16 -76t14 -47v-2h-210v2q23 20 50.5 64t46.5 98l143 412q9 27 9 49q0 23 -8 41t-19 27v2
h265v-2q-11 -10 -19 -27.5t-8 -40.5q0 -22 9 -49l147 -412q19 -54 47 -98.5t51 -63.5v-2h-65q-97 -44 -97 -111zM308 465.5q-13 -45.5 -37 -112.5l-37 -106h192l-37 106q-25 72 -38 115t-20 94h-4q-6 -51 -19 -96.5z" />
    <glyph glyph-name="aogonek" unicode="&#x105;" horiz-adv-x="676" 
d="M532 -111q0 -28 17.5 -45t44.5 -17q22 0 43 10l1 -2l-64 -97q-60 -3 -104 27.5t-44 85.5q0 42 26.5 79.5t76.5 69.5h-61v2q16 12 16 46q0 32 -16 77l-9 24h-258l-9 -24q-16 -41 -16 -76t14 -47v-2h-210v2q23 20 50.5 64t46.5 98l143 412q9 27 9 49q0 23 -8 41t-19 27v2
h265v-2q-11 -10 -19 -27.5t-8 -40.5q0 -22 9 -49l147 -412q19 -54 47 -98.5t51 -63.5v-2h-65q-97 -44 -97 -111zM308 465.5q-13 -45.5 -37 -112.5l-37 -106h192l-37 106q-25 72 -38 115t-20 94h-4q-6 -51 -19 -96.5z" />
    <glyph glyph-name="Cacute" unicode="&#x106;" horiz-adv-x="657" 
d="M210 31.5q-80 46.5 -123 128t-43 183.5q0 111 46.5 194t131.5 127.5t198 44.5q91 0 176 -25l16 -173l-2 -1q-30 46 -80.5 70t-110.5 24q-105 0 -165.5 -67.5t-60.5 -183.5q0 -118 55.5 -190t157.5 -72q77 0 130 28.5t95 83.5l2 -1l-24 -179q-108 -38 -213 -38
q-106 0 -186 46.5zM330 787q34 32 75 90t46 84l2 1l89 -85q-28 -20 -69.5 -63t-61.5 -69z" />
    <glyph glyph-name="cacute" unicode="&#x107;" horiz-adv-x="657" 
d="M210 31.5q-80 46.5 -123 128t-43 183.5q0 111 46.5 194t131.5 127.5t198 44.5q91 0 176 -25l16 -173l-2 -1q-30 46 -80.5 70t-110.5 24q-105 0 -165.5 -67.5t-60.5 -183.5q0 -118 55.5 -190t157.5 -72q77 0 130 28.5t95 83.5l2 -1l-24 -179q-108 -38 -213 -38
q-106 0 -186 46.5zM330 787q34 32 75 90t46 84l2 1l89 -85q-28 -20 -69.5 -63t-61.5 -69z" />
    <glyph glyph-name="Ccircumflex" unicode="&#x108;" horiz-adv-x="657" 
d="M210 31.5q-80 46.5 -123 128t-43 183.5q0 111 46.5 194t131.5 127.5t198 44.5q91 0 176 -25l16 -173l-2 -1q-30 46 -80.5 70t-110.5 24q-105 0 -165.5 -67.5t-60.5 -183.5q0 -118 55.5 -190t157.5 -72q77 0 130 28.5t95 83.5l2 -1l-24 -179q-108 -38 -213 -38
q-106 0 -186 46.5zM508 880q39 -32 71 -50l-79 -94l-2 1q-6 17 -33.5 52t-56.5 65q-28 -29 -55.5 -64.5t-33.5 -52.5l-2 -1l-79 94q30 17 70 49.5t65 61.5h71q25 -29 64 -61z" />
    <glyph glyph-name="ccircumflex" unicode="&#x109;" horiz-adv-x="657" 
d="M210 31.5q-80 46.5 -123 128t-43 183.5q0 111 46.5 194t131.5 127.5t198 44.5q91 0 176 -25l16 -173l-2 -1q-30 46 -80.5 70t-110.5 24q-105 0 -165.5 -67.5t-60.5 -183.5q0 -118 55.5 -190t157.5 -72q77 0 130 28.5t95 83.5l2 -1l-24 -179q-108 -38 -213 -38
q-106 0 -186 46.5zM508 880q39 -32 71 -50l-79 -94l-2 1q-6 17 -33.5 52t-56.5 65q-28 -29 -55.5 -64.5t-33.5 -52.5l-2 -1l-79 94q30 17 70 49.5t65 61.5h71q25 -29 64 -61z" />
    <glyph glyph-name="Cdotaccent" unicode="&#x10a;" horiz-adv-x="657" 
d="M210 31.5q-80 46.5 -123 128t-43 183.5q0 111 46.5 194t131.5 127.5t198 44.5q91 0 176 -25l16 -173l-2 -1q-30 46 -80.5 70t-110.5 24q-105 0 -165.5 -67.5t-60.5 -183.5q0 -118 55.5 -190t157.5 -72q77 0 130 28.5t95 83.5l2 -1l-24 -179q-108 -38 -213 -38
q-106 0 -186 46.5zM358.5 777q-20.5 21 -20.5 50q0 30 20.5 51t50.5 21q29 0 49.5 -21t20.5 -51q0 -29 -20.5 -50t-49.5 -21q-30 0 -50.5 21z" />
    <glyph glyph-name="cdotaccent" unicode="&#x10b;" horiz-adv-x="657" 
d="M210 31.5q-80 46.5 -123 128t-43 183.5q0 111 46.5 194t131.5 127.5t198 44.5q91 0 176 -25l16 -173l-2 -1q-30 46 -80.5 70t-110.5 24q-105 0 -165.5 -67.5t-60.5 -183.5q0 -118 55.5 -190t157.5 -72q77 0 130 28.5t95 83.5l2 -1l-24 -179q-108 -38 -213 -38
q-106 0 -186 46.5zM358.5 777q-20.5 21 -20.5 50q0 30 20.5 51t50.5 21q29 0 49.5 -21t20.5 -51q0 -29 -20.5 -50t-49.5 -21q-30 0 -50.5 21z" />
    <glyph glyph-name="Ccaron" unicode="&#x10c;" horiz-adv-x="657" 
d="M210 31.5q-80 46.5 -123 128t-43 183.5q0 111 46.5 194t131.5 127.5t198 44.5q91 0 176 -25l16 -173l-2 -1q-30 46 -80.5 70t-110.5 24q-105 0 -165.5 -67.5t-60.5 -183.5q0 -118 55.5 -190t157.5 -72q77 0 130 28.5t95 83.5l2 -1l-24 -179q-108 -38 -213 -38
q-106 0 -186 46.5zM579 857q-30 -17 -70 -49.5t-65 -61.5h-71q-25 29 -65.5 62t-69.5 49l79 94l2 -1q6 -17 33.5 -52t56.5 -65q30 31 57 66t32 51l2 1z" />
    <glyph glyph-name="ccaron" unicode="&#x10d;" horiz-adv-x="657" 
d="M210 31.5q-80 46.5 -123 128t-43 183.5q0 111 46.5 194t131.5 127.5t198 44.5q91 0 176 -25l16 -173l-2 -1q-30 46 -80.5 70t-110.5 24q-105 0 -165.5 -67.5t-60.5 -183.5q0 -118 55.5 -190t157.5 -72q77 0 130 28.5t95 83.5l2 -1l-24 -179q-108 -38 -213 -38
q-106 0 -186 46.5zM579 857q-30 -17 -70 -49.5t-65 -61.5h-71q-25 29 -65.5 62t-69.5 49l79 94l2 -1q6 -17 33.5 -52t56.5 -65q30 31 57 66t32 51l2 1z" />
    <glyph glyph-name="Dcaron" unicode="&#x10e;" horiz-adv-x="741" 
d="M59 2q22 15 38 53t16 95v395q0 52 -16.5 93t-37.5 55v2h290q105 0 183.5 -41.5t121.5 -119.5t43 -186q0 -167 -91 -257.5t-273 -90.5h-274v2zM343 99q100 0 153 64t53 185q0 127 -52 187.5t-159 60.5h-88v-497h93zM488 849q-30 -17 -70 -49.5t-65 -61.5h-71
q-25 29 -65.5 62t-69.5 49l79 94l2 -1q6 -17 33.5 -52t56.5 -65q30 31 57 66t32 51l2 1z" />
    <glyph glyph-name="dcaron" unicode="&#x10f;" horiz-adv-x="741" 
d="M59 2q22 15 38 53t16 95v395q0 52 -16.5 93t-37.5 55v2h290q105 0 183.5 -41.5t121.5 -119.5t43 -186q0 -167 -91 -257.5t-273 -90.5h-274v2zM343 99q100 0 153 64t53 185q0 127 -52 187.5t-159 60.5h-88v-497h93zM488 849q-30 -17 -70 -49.5t-65 -61.5h-71
q-25 29 -65.5 62t-69.5 49l79 94l2 -1q6 -17 33.5 -52t56.5 -65q30 31 57 66t32 51l2 1z" />
    <glyph glyph-name="Dcroat" unicode="&#x110;" horiz-adv-x="750" 
d="M541.5 653.5q78.5 -41.5 121.5 -119.5t43 -186q0 -167 -91 -257.5t-273 -90.5h-274v2q22 15 38 53t16 95v156h-16q-55 0 -79 -17l-2 1l17 106h80v149q0 52 -16.5 93t-37.5 55v2h290q105 0 183.5 -41.5zM505 163q53 64 53 185q0 127 -52 187.5t-159 60.5h-88v-200h49
q44 0 71 14l2 -1l-14 -103h-108v-207h93q100 0 153 64z" />
    <glyph glyph-name="dcroat" unicode="&#x111;" horiz-adv-x="750" 
d="M541.5 653.5q78.5 -41.5 121.5 -119.5t43 -186q0 -167 -91 -257.5t-273 -90.5h-274v2q22 15 38 53t16 95v156h-16q-55 0 -79 -17l-2 1l17 106h80v149q0 52 -16.5 93t-37.5 55v2h290q105 0 183.5 -41.5zM505 163q53 64 53 185q0 127 -52 187.5t-159 60.5h-88v-200h49
q44 0 71 14l2 -1l-14 -103h-108v-207h93q100 0 153 64z" />
    <glyph glyph-name="Emacron" unicode="&#x112;" 
d="M562 191l-28 -199q-28 5 -53.5 6.5t-68.5 1.5h-353v2q22 15 38 53t16 95v395q0 58 -16 95.5t-38 52.5v2h359q71 0 106 8l17 -179l-2 -1q-18 37 -58 55.5t-99 18.5h-132v-176h76q63 0 93 1.5t63 5.5l-29 -168h-2q-12 33 -39 48t-70 15h-92v-225h109q66 0 117.5 24t83.5 70
zM154 763l16 103h230q49 0 68 12l2 -1l-15 -106l-235 -1q-43 0 -64 -8z" />
    <glyph glyph-name="emacron" unicode="&#x113;" 
d="M562 191l-28 -199q-28 5 -53.5 6.5t-68.5 1.5h-353v2q22 15 38 53t16 95v395q0 58 -16 95.5t-38 52.5v2h359q71 0 106 8l17 -179l-2 -1q-18 37 -58 55.5t-99 18.5h-132v-176h76q63 0 93 1.5t63 5.5l-29 -168h-2q-12 33 -39 48t-70 15h-92v-225h109q66 0 117.5 24t83.5 70
zM154 763l16 103h230q49 0 68 12l2 -1l-15 -106l-235 -1q-43 0 -64 -8z" />
    <glyph glyph-name="Ebreve" unicode="&#x114;" 
d="M562 191l-28 -199q-28 5 -53.5 6.5t-68.5 1.5h-353v2q22 15 38 53t16 95v395q0 58 -16 95.5t-38 52.5v2h359q71 0 106 8l17 -179l-2 -1q-18 37 -58 55.5t-99 18.5h-132v-176h76q63 0 93 1.5t63 5.5l-29 -168h-2q-12 33 -39 48t-70 15h-92v-225h109q66 0 117.5 24t83.5 70
zM196.5 780.5q-46.5 38.5 -58.5 103.5l102 34l1 -2q-3 -9 -3 -20q0 -26 20 -44.5t57 -18.5q38 0 58.5 19t20.5 46q0 9 -3 18l1 2l100 -33q-16 -66 -62 -104.5t-115 -38.5q-72 0 -118.5 38.5z" />
    <glyph glyph-name="ebreve" unicode="&#x115;" 
d="M562 191l-28 -199q-28 5 -53.5 6.5t-68.5 1.5h-353v2q22 15 38 53t16 95v395q0 58 -16 95.5t-38 52.5v2h359q71 0 106 8l17 -179l-2 -1q-18 37 -58 55.5t-99 18.5h-132v-176h76q63 0 93 1.5t63 5.5l-29 -168h-2q-12 33 -39 48t-70 15h-92v-225h109q66 0 117.5 24t83.5 70
zM196.5 780.5q-46.5 38.5 -58.5 103.5l102 34l1 -2q-3 -9 -3 -20q0 -26 20 -44.5t57 -18.5q38 0 58.5 19t20.5 46q0 9 -3 18l1 2l100 -33q-16 -66 -62 -104.5t-115 -38.5q-72 0 -118.5 38.5z" />
    <glyph glyph-name="Edotaccent" unicode="&#x116;" 
d="M562 191l-28 -199q-28 5 -53.5 6.5t-68.5 1.5h-353v2q22 15 38 53t16 95v395q0 58 -16 95.5t-38 52.5v2h359q71 0 106 8l17 -179l-2 -1q-18 37 -58 55.5t-99 18.5h-132v-176h76q63 0 93 1.5t63 5.5l-29 -168h-2q-12 33 -39 48t-70 15h-92v-225h109q66 0 117.5 24t83.5 70
zM264.5 769q-20.5 21 -20.5 50q0 30 20.5 51t50.5 21q29 0 49.5 -21t20.5 -51q0 -29 -20.5 -50t-49.5 -21q-30 0 -50.5 21z" />
    <glyph glyph-name="edotaccent" unicode="&#x117;" 
d="M562 191l-28 -199q-28 5 -53.5 6.5t-68.5 1.5h-353v2q22 15 38 53t16 95v395q0 58 -16 95.5t-38 52.5v2h359q71 0 106 8l17 -179l-2 -1q-18 37 -58 55.5t-99 18.5h-132v-176h76q63 0 93 1.5t63 5.5l-29 -168h-2q-12 33 -39 48t-70 15h-92v-225h109q66 0 117.5 24t83.5 70
zM264.5 769q-20.5 21 -20.5 50q0 30 20.5 51t50.5 21q29 0 49.5 -21t20.5 -51q0 -29 -20.5 -50t-49.5 -21q-30 0 -50.5 21z" />
    <glyph glyph-name="Eogonek" unicode="&#x118;" 
d="M395 -111q0 -28 17.5 -45t44.5 -17q22 0 43 10l1 -2l-64 -97q-60 -3 -104 27.5t-44 85.5q0 42 26.5 79.5t76.5 69.5h-333v2q22 15 38 53t16 95v395q0 58 -16 95.5t-38 52.5v2h359q71 0 106 8l17 -179l-2 -1q-18 37 -58 55.5t-99 18.5h-132v-176h76q63 0 93 1.5t63 5.5
l-29 -168h-2q-12 33 -39 48t-70 15h-92v-225h109q66 0 117.5 24t83.5 70l2 -1l-28 -199q-24 5 -47 6q-92 -44 -92 -109z" />
    <glyph glyph-name="eogonek" unicode="&#x119;" 
d="M395 -111q0 -28 17.5 -45t44.5 -17q22 0 43 10l1 -2l-64 -97q-60 -3 -104 27.5t-44 85.5q0 42 26.5 79.5t76.5 69.5h-333v2q22 15 38 53t16 95v395q0 58 -16 95.5t-38 52.5v2h359q71 0 106 8l17 -179l-2 -1q-18 37 -58 55.5t-99 18.5h-132v-176h76q63 0 93 1.5t63 5.5
l-29 -168h-2q-12 33 -39 48t-70 15h-92v-225h109q66 0 117.5 24t83.5 70l2 -1l-28 -199q-24 5 -47 6q-92 -44 -92 -109z" />
    <glyph glyph-name="Ecaron" unicode="&#x11a;" 
d="M562 191l-28 -199q-28 5 -53.5 6.5t-68.5 1.5h-353v2q22 15 38 53t16 95v395q0 58 -16 95.5t-38 52.5v2h359q71 0 106 8l17 -179l-2 -1q-18 37 -58 55.5t-99 18.5h-132v-176h76q63 0 93 1.5t63 5.5l-29 -168h-2q-12 33 -39 48t-70 15h-92v-225h109q66 0 117.5 24t83.5 70
zM485 849q-30 -17 -70 -49.5t-65 -61.5h-71q-25 29 -65.5 62t-69.5 49l79 94l2 -1q6 -17 33.5 -52t56.5 -65q30 31 57 66t32 51l2 1z" />
    <glyph glyph-name="ecaron" unicode="&#x11b;" 
d="M562 191l-28 -199q-28 5 -53.5 6.5t-68.5 1.5h-353v2q22 15 38 53t16 95v395q0 58 -16 95.5t-38 52.5v2h359q71 0 106 8l17 -179l-2 -1q-18 37 -58 55.5t-99 18.5h-132v-176h76q63 0 93 1.5t63 5.5l-29 -168h-2q-12 33 -39 48t-70 15h-92v-225h109q66 0 117.5 24t83.5 70
zM485 849q-30 -17 -70 -49.5t-65 -61.5h-71q-25 29 -65.5 62t-69.5 49l79 94l2 -1q6 -17 33.5 -52t56.5 -65q30 31 57 66t32 51l2 1z" />
    <glyph glyph-name="Gcircumflex" unicode="&#x11c;" horiz-adv-x="702" 
d="M677 372v-2q-17 -11 -25 -46t-8 -102v-165q-50 -32 -119 -52t-129 -20q-103 0 -183 45t-124.5 125t-44.5 183q0 114 46.5 198t130.5 128.5t195 44.5q104 0 190 -27l15 -163l-2 -1q-77 86 -206 86q-104 0 -162.5 -68.5t-58.5 -187.5t57 -188t157 -69q63 0 110 22v163
q-101 -2 -149 -52l-2 1l16 153q33 -6 122 -6h174zM503 880q39 -32 71 -50l-79 -94l-2 1q-6 17 -33.5 52t-56.5 65q-28 -29 -55.5 -64.5t-33.5 -52.5l-2 -1l-79 94q30 17 70 49.5t65 61.5h71q25 -29 64 -61z" />
    <glyph glyph-name="gcircumflex" unicode="&#x11d;" horiz-adv-x="702" 
d="M677 372v-2q-17 -11 -25 -46t-8 -102v-165q-50 -32 -119 -52t-129 -20q-103 0 -183 45t-124.5 125t-44.5 183q0 114 46.5 198t130.5 128.5t195 44.5q104 0 190 -27l15 -163l-2 -1q-77 86 -206 86q-104 0 -162.5 -68.5t-58.5 -187.5t57 -188t157 -69q63 0 110 22v163
q-101 -2 -149 -52l-2 1l16 153q33 -6 122 -6h174zM503 880q39 -32 71 -50l-79 -94l-2 1q-6 17 -33.5 52t-56.5 65q-28 -29 -55.5 -64.5t-33.5 -52.5l-2 -1l-79 94q30 17 70 49.5t65 61.5h71q25 -29 64 -61z" />
    <glyph glyph-name="Gbreve" unicode="&#x11e;" horiz-adv-x="702" 
d="M677 372v-2q-17 -11 -25 -46t-8 -102v-165q-50 -32 -119 -52t-129 -20q-103 0 -183 45t-124.5 125t-44.5 183q0 114 46.5 198t130.5 128.5t195 44.5q104 0 190 -27l15 -163l-2 -1q-77 86 -206 86q-104 0 -162.5 -68.5t-58.5 -187.5t57 -188t157 -69q63 0 110 22v163
q-101 -2 -149 -52l-2 1l16 153q33 -6 122 -6h174zM285.5 788.5q-46.5 38.5 -58.5 103.5l102 34l1 -2q-3 -9 -3 -20q0 -26 20 -44.5t57 -18.5q38 0 58.5 19t20.5 46q0 9 -3 18l1 2l100 -33q-16 -66 -62 -104.5t-115 -38.5q-72 0 -118.5 38.5z" />
    <glyph glyph-name="gbreve" unicode="&#x11f;" horiz-adv-x="702" 
d="M677 372v-2q-17 -11 -25 -46t-8 -102v-165q-50 -32 -119 -52t-129 -20q-103 0 -183 45t-124.5 125t-44.5 183q0 114 46.5 198t130.5 128.5t195 44.5q104 0 190 -27l15 -163l-2 -1q-77 86 -206 86q-104 0 -162.5 -68.5t-58.5 -187.5t57 -188t157 -69q63 0 110 22v163
q-101 -2 -149 -52l-2 1l16 153q33 -6 122 -6h174zM285.5 788.5q-46.5 38.5 -58.5 103.5l102 34l1 -2q-3 -9 -3 -20q0 -26 20 -44.5t57 -18.5q38 0 58.5 19t20.5 46q0 9 -3 18l1 2l100 -33q-16 -66 -62 -104.5t-115 -38.5q-72 0 -118.5 38.5z" />
    <glyph glyph-name="Gdotaccent" unicode="&#x120;" horiz-adv-x="702" 
d="M677 372v-2q-17 -11 -25 -46t-8 -102v-165q-50 -32 -119 -52t-129 -20q-103 0 -183 45t-124.5 125t-44.5 183q0 114 46.5 198t130.5 128.5t195 44.5q104 0 190 -27l15 -163l-2 -1q-77 86 -206 86q-104 0 -162.5 -68.5t-58.5 -187.5t57 -188t157 -69q63 0 110 22v163
q-101 -2 -149 -52l-2 1l16 153q33 -6 122 -6h174zM353.5 777q-20.5 21 -20.5 50q0 30 20.5 51t50.5 21q29 0 49.5 -21t20.5 -51q0 -29 -20.5 -50t-49.5 -21q-30 0 -50.5 21z" />
    <glyph glyph-name="gdotaccent" unicode="&#x121;" horiz-adv-x="702" 
d="M677 372v-2q-17 -11 -25 -46t-8 -102v-165q-50 -32 -119 -52t-129 -20q-103 0 -183 45t-124.5 125t-44.5 183q0 114 46.5 198t130.5 128.5t195 44.5q104 0 190 -27l15 -163l-2 -1q-77 86 -206 86q-104 0 -162.5 -68.5t-58.5 -187.5t57 -188t157 -69q63 0 110 22v163
q-101 -2 -149 -52l-2 1l16 153q33 -6 122 -6h174zM353.5 777q-20.5 21 -20.5 50q0 30 20.5 51t50.5 21q29 0 49.5 -21t20.5 -51q0 -29 -20.5 -50t-49.5 -21q-30 0 -50.5 21z" />
    <glyph glyph-name="uni0122" unicode="&#x122;" horiz-adv-x="702" 
d="M677 372v-2q-17 -11 -25 -46t-8 -102v-165q-50 -32 -119 -52t-129 -20q-103 0 -183 45t-124.5 125t-44.5 183q0 114 46.5 198t130.5 128.5t195 44.5q104 0 190 -27l15 -163l-2 -1q-77 86 -206 86q-104 0 -162.5 -68.5t-58.5 -187.5t57 -188t157 -69q63 0 110 22v163
q-101 -2 -149 -52l-2 1l16 153q33 -6 122 -6h174zM293 -241q14 24 32 90.5t21 98.5l130 -9l1 -2q-35 -50 -62.5 -107.5t-38.5 -100.5z" />
    <glyph glyph-name="uni0123" unicode="&#x123;" horiz-adv-x="702" 
d="M677 372v-2q-17 -11 -25 -46t-8 -102v-165q-50 -32 -119 -52t-129 -20q-103 0 -183 45t-124.5 125t-44.5 183q0 114 46.5 198t130.5 128.5t195 44.5q104 0 190 -27l15 -163l-2 -1q-77 86 -206 86q-104 0 -162.5 -68.5t-58.5 -187.5t57 -188t157 -69q63 0 110 22v163
q-101 -2 -149 -52l-2 1l16 153q33 -6 122 -6h174zM293 -241q14 24 32 90.5t21 98.5l130 -9l1 -2q-35 -50 -62.5 -107.5t-38.5 -100.5z" />
    <glyph glyph-name="Hcircumflex" unicode="&#x124;" horiz-adv-x="766" 
d="M669 640q-16 -38 -16 -95v-399q0 -55 16 -92.5t38 -51.5v-2h-242v2q20 15 35.5 52.5t15.5 91.5v175h-266v-171q0 -57 15 -95t36 -53v-2h-242v2q22 15 38 53t16 95v395q0 58 -16 95.5t-38 52.5v2h242v-2q-20 -15 -35.5 -53.5t-15.5 -94.5v-124h266v124q0 57 -15 95t-36 53
v2h242v-2q-22 -15 -38 -53zM482 872q39 -32 71 -50l-79 -94l-2 1q-6 17 -33.5 52t-56.5 65q-28 -29 -55.5 -64.5t-33.5 -52.5l-2 -1l-79 94q30 17 70 49.5t65 61.5h71q25 -29 64 -61z" />
    <glyph glyph-name="hcircumflex" unicode="&#x125;" horiz-adv-x="766" 
d="M669 640q-16 -38 -16 -95v-399q0 -55 16 -92.5t38 -51.5v-2h-242v2q20 15 35.5 52.5t15.5 91.5v175h-266v-171q0 -57 15 -95t36 -53v-2h-242v2q22 15 38 53t16 95v395q0 58 -16 95.5t-38 52.5v2h242v-2q-20 -15 -35.5 -53.5t-15.5 -94.5v-124h266v124q0 57 -15 95t-36 53
v2h242v-2q-22 -15 -38 -53zM482 872q39 -32 71 -50l-79 -94l-2 1q-6 17 -33.5 52t-56.5 65q-28 -29 -55.5 -64.5t-33.5 -52.5l-2 -1l-79 94q30 17 70 49.5t65 61.5h71q25 -29 64 -61z" />
    <glyph glyph-name="Hbar" unicode="&#x126;" horiz-adv-x="789" 
d="M662 501v-355q0 -55 16 -92.5t38 -51.5v-2h-242v2q20 15 35.5 52.5t15.5 91.5v175h-266v-171q0 -57 15 -95t36 -53v-2h-242v2q22 15 38 53t16 95v351h-36q-40 0 -67 -13l-2 1l16 99h86q-5 40 -19 66.5t-32 38.5v2h242v-2q-16 -12 -29.5 -39t-18.5 -66h260q-5 40 -18 66.5
t-30 38.5v2h242v-2q-17 -12 -31 -39t-20 -66h34q34 0 71 14l2 -1l-14 -100h-96zM525 501h-266v-80h266v80z" />
    <glyph glyph-name="hbar" unicode="&#x127;" horiz-adv-x="848" 
d="M688 486v-340q0 -56 16 -94.5t36 -51.5h-241q20 13 36 52.5t16 97.5v167h-266v-171q0 -56 16 -94.5t36 -51.5h-241q20 13 36 52.5t16 97.5v336h-32q-22 0 -42 -7t-30 -18l19 115h84q-3 53 -17 79.5t-34 39.5h241q-45 -23 -51 -119h264q-3 53 -17 79.5t-34 39.5h241
q-45 -23 -51 -119h40q19 0 40 6t35 15l-16 -111h-100zM551 486h-266v-63h266v63z" />
    <glyph glyph-name="Itilde" unicode="&#x128;" horiz-adv-x="364" 
d="M59 2q22 15 38 53t16 95v395q0 58 -16 95.5t-38 52.5v2h246v-2q-22 -15 -38 -53t-16 -95v-395q0 -58 16 -95.5t38 -52.5v-2h-246v2zM-1 823q32 34 62 49t67 15q20 0 34.5 -5t33.5 -15q15 -8 27 -12.5t26 -4.5q21 0 36 11t20 27h2l53 -83q-30 -27 -58 -39t-62 -12
q-21 0 -36 5.5t-35 15.5q-18 9 -29 13.5t-26 4.5q-39 0 -62 -45h-2z" />
    <glyph glyph-name="itilde" unicode="&#x129;" horiz-adv-x="364" 
d="M59 2q22 15 38 53t16 95v395q0 58 -16 95.5t-38 52.5v2h246v-2q-22 -15 -38 -53t-16 -95v-395q0 -58 16 -95.5t38 -52.5v-2h-246v2zM-1 823q32 34 62 49t67 15q20 0 34.5 -5t33.5 -15q15 -8 27 -12.5t26 -4.5q21 0 36 11t20 27h2l53 -83q-30 -27 -58 -39t-62 -12
q-21 0 -36 5.5t-35 15.5q-18 9 -29 13.5t-26 4.5q-39 0 -62 -45h-2z" />
    <glyph glyph-name="Imacron" unicode="&#x12a;" horiz-adv-x="364" 
d="M59 2q22 15 38 53t16 95v395q0 58 -16 95.5t-38 52.5v2h246v-2q-22 -15 -38 -53t-16 -95v-395q0 -58 16 -95.5t38 -52.5v-2h-246v2zM21 763l16 103h230q49 0 68 12l2 -1l-15 -106l-235 -1q-43 0 -64 -8z" />
    <glyph glyph-name="imacron" unicode="&#x12b;" horiz-adv-x="364" 
d="M59 2q22 15 38 53t16 95v395q0 58 -16 95.5t-38 52.5v2h246v-2q-22 -15 -38 -53t-16 -95v-395q0 -58 16 -95.5t38 -52.5v-2h-246v2zM21 763l16 103h230q49 0 68 12l2 -1l-15 -106l-235 -1q-43 0 -64 -8z" />
    <glyph glyph-name="Ibreve" unicode="&#x12c;" horiz-adv-x="364" 
d="M59 2q22 15 38 53t16 95v395q0 58 -16 95.5t-38 52.5v2h246v-2q-22 -15 -38 -53t-16 -95v-395q0 -58 16 -95.5t38 -52.5v-2h-246v2zM63.5 780.5q-46.5 38.5 -58.5 103.5l102 34l1 -2q-3 -9 -3 -20q0 -26 20 -44.5t57 -18.5q38 0 58.5 19t20.5 46q0 9 -3 18l1 2l100 -33
q-16 -66 -62 -104.5t-115 -38.5q-72 0 -118.5 38.5z" />
    <glyph glyph-name="ibreve" unicode="&#x12d;" horiz-adv-x="364" 
d="M59 2q22 15 38 53t16 95v395q0 58 -16 95.5t-38 52.5v2h246v-2q-22 -15 -38 -53t-16 -95v-395q0 -58 16 -95.5t38 -52.5v-2h-246v2zM63.5 780.5q-46.5 38.5 -58.5 103.5l102 34l1 -2q-3 -9 -3 -20q0 -26 20 -44.5t57 -18.5q38 0 58.5 19t20.5 46q0 9 -3 18l1 2l100 -33
q-16 -66 -62 -104.5t-115 -38.5q-72 0 -118.5 38.5z" />
    <glyph glyph-name="Iogonek" unicode="&#x12e;" horiz-adv-x="364" 
d="M267 640q-16 -38 -16 -95v-395q0 -58 16 -95.5t38 -52.5v-2h-54q-97 -44 -97 -111q0 -28 17.5 -45t44.5 -17q22 0 43 10l1 -2l-64 -97q-60 -3 -104 27.5t-44 85.5q0 42 26.5 79.5t76.5 69.5h-92v2q22 15 38 53t16 95v395q0 58 -16 95.5t-38 52.5v2h246v-2
q-22 -15 -38 -53z" />
    <glyph glyph-name="iogonek" unicode="&#x12f;" horiz-adv-x="364" 
d="M267 640q-16 -38 -16 -95v-395q0 -58 16 -95.5t38 -52.5v-2h-54q-97 -44 -97 -111q0 -28 17.5 -45t44.5 -17q22 0 43 10l1 -2l-64 -97q-60 -3 -104 27.5t-44 85.5q0 42 26.5 79.5t76.5 69.5h-92v2q22 15 38 53t16 95v395q0 58 -16 95.5t-38 52.5v2h246v-2
q-22 -15 -38 -53z" />
    <glyph glyph-name="Idotaccent" unicode="&#x130;" horiz-adv-x="364" 
d="M59 2q22 15 38 53t16 95v395q0 58 -16 95.5t-38 52.5v2h246v-2q-22 -15 -38 -53t-16 -95v-395q0 -58 16 -95.5t38 -52.5v-2h-246v2zM131.5 769q-20.5 21 -20.5 50q0 30 20.5 51t50.5 21q29 0 49.5 -21t20.5 -51q0 -29 -20.5 -50t-49.5 -21q-30 0 -50.5 21z" />
    <glyph glyph-name="IJ" unicode="&#x132;" horiz-adv-x="793" 
d="M59 2q22 15 38 53t16 95v395q0 58 -16 95.5t-38 52.5v2h246v-2q-22 -15 -38 -53t-16 -95v-395q0 -58 16 -95.5t38 -52.5v-2h-246v2zM360 -7l-10 155h2q11 -20 36 -40.5t66 -20.5q56 0 84 28.5t28 83.5v345q0 58 -16 96t-38 53v2h245v-2q-22 -15 -38 -53t-16 -95v-310
q0 -133 -58 -195t-185 -62q-43 0 -100 15z" />
    <glyph glyph-name="ij" unicode="&#x133;" horiz-adv-x="793" 
d="M59 2q22 15 38 53t16 95v395q0 58 -16 95.5t-38 52.5v2h246v-2q-22 -15 -38 -53t-16 -95v-395q0 -58 16 -95.5t38 -52.5v-2h-246v2zM360 -7l-10 155h2q11 -20 36 -40.5t66 -20.5q56 0 84 28.5t28 83.5v345q0 58 -16 96t-38 53v2h245v-2q-22 -15 -38 -53t-16 -95v-310
q0 -133 -58 -195t-185 -62q-43 0 -100 15z" />
    <glyph glyph-name="Jcircumflex" unicode="&#x134;" horiz-adv-x="449" 
d="M16 -7l-10 155h2q11 -20 36 -40.5t66 -20.5q56 0 84 28.5t28 83.5v345q0 58 -16 96t-38 53v2h245v-2q-22 -15 -38 -53t-16 -95v-310q0 -133 -58 -195t-185 -62q-43 0 -100 15zM378 872q39 -32 71 -50l-79 -94l-2 1q-6 17 -33.5 52t-56.5 65q-28 -29 -55.5 -64.5
t-33.5 -52.5l-2 -1l-79 94q30 17 70 49.5t65 61.5h71q25 -29 64 -61z" />
    <glyph glyph-name="jcircumflex" unicode="&#x135;" horiz-adv-x="449" 
d="M16 -7l-10 155h2q11 -20 36 -40.5t66 -20.5q56 0 84 28.5t28 83.5v345q0 58 -16 96t-38 53v2h245v-2q-22 -15 -38 -53t-16 -95v-310q0 -133 -58 -195t-185 -62q-43 0 -100 15zM378 872q39 -32 71 -50l-79 -94l-2 1q-6 17 -33.5 52t-56.5 65q-28 -29 -55.5 -64.5
t-33.5 -52.5l-2 -1l-79 94q30 17 70 49.5t65 61.5h71q25 -29 64 -61z" />
    <glyph glyph-name="uni0136" unicode="&#x136;" horiz-adv-x="680" 
d="M264.5 54.5q14.5 -37.5 34.5 -52.5v-2h-240v2q22 15 38 53t16 95v399q0 55 -16 92.5t-38 51.5v2h240v-2q-20 -15 -34.5 -53t-14.5 -95v-396q0 -57 14.5 -94.5zM652.5 53.5q24.5 -21.5 60.5 -36.5v-2l-201 -34q-4 17 -17.5 43t-31.5 52l-202 300l169 239q35 50 33 80h208
v-2q-29 -14 -60 -44t-58 -67l-141 -191l190 -278q26 -38 50.5 -59.5zM272 -233q14 24 32 90.5t21 98.5l130 -9l1 -2q-35 -50 -62.5 -107.5t-38.5 -100.5z" />
    <glyph glyph-name="uni0137" unicode="&#x137;" horiz-adv-x="680" 
d="M264.5 54.5q14.5 -37.5 34.5 -52.5v-2h-240v2q22 15 38 53t16 95v399q0 55 -16 92.5t-38 51.5v2h240v-2q-20 -15 -34.5 -53t-14.5 -95v-396q0 -57 14.5 -94.5zM652.5 53.5q24.5 -21.5 60.5 -36.5v-2l-201 -34q-4 17 -17.5 43t-31.5 52l-202 300l169 239q35 50 33 80h208
v-2q-29 -14 -60 -44t-58 -67l-141 -191l190 -278q26 -38 50.5 -59.5zM272 -233q14 24 32 90.5t21 98.5l130 -9l1 -2q-35 -50 -62.5 -107.5t-38.5 -100.5z" />
    <glyph glyph-name="Lacute" unicode="&#x139;" horiz-adv-x="554" 
d="M474.5 -1.5q-23.5 1.5 -60.5 1.5h-355v2q22 15 38 53t16 95v399q0 55 -16 92.5t-38 51.5v2h245v-2q-22 -15 -38 -53t-16 -95v-445h99q66 0 117 22.5t83 67.5l2 -1l-26 -197q-27 5 -50.5 6.5zM100 779q34 32 75 90t46 84l2 1l89 -85q-28 -20 -69.5 -63t-61.5 -69z" />
    <glyph glyph-name="lacute" unicode="&#x13a;" horiz-adv-x="554" 
d="M474.5 -1.5q-23.5 1.5 -60.5 1.5h-355v2q22 15 38 53t16 95v399q0 55 -16 92.5t-38 51.5v2h245v-2q-22 -15 -38 -53t-16 -95v-445h99q66 0 117 22.5t83 67.5l2 -1l-26 -197q-27 5 -50.5 6.5zM100 779q34 32 75 90t46 84l2 1l89 -85q-28 -20 -69.5 -63t-61.5 -69z" />
    <glyph glyph-name="uni013B" unicode="&#x13b;" horiz-adv-x="554" 
d="M474.5 -1.5q-23.5 1.5 -60.5 1.5h-355v2q22 15 38 53t16 95v399q0 55 -16 92.5t-38 51.5v2h245v-2q-22 -15 -38 -53t-16 -95v-445h99q66 0 117 22.5t83 67.5l2 -1l-26 -197q-27 5 -50.5 6.5zM199 -233q14 24 32 90.5t21 98.5l130 -9l1 -2q-35 -50 -62.5 -107.5
t-38.5 -100.5z" />
    <glyph glyph-name="uni013C" unicode="&#x13c;" horiz-adv-x="554" 
d="M474.5 -1.5q-23.5 1.5 -60.5 1.5h-355v2q22 15 38 53t16 95v399q0 55 -16 92.5t-38 51.5v2h245v-2q-22 -15 -38 -53t-16 -95v-445h99q66 0 117 22.5t83 67.5l2 -1l-26 -197q-27 5 -50.5 6.5zM199 -233q14 24 32 90.5t21 98.5l130 -9l1 -2q-35 -50 -62.5 -107.5
t-38.5 -100.5z" />
    <glyph glyph-name="Lcaron" unicode="&#x13d;" horiz-adv-x="554" 
d="M474.5 -1.5q-23.5 1.5 -60.5 1.5h-355v2q22 15 38 53t16 95v399q0 55 -16 92.5t-38 51.5v2h245v-2q-22 -15 -38 -53t-16 -95v-445h99q66 0 117 22.5t83 67.5l2 -1l-26 -197q-27 5 -50.5 6.5zM349 849q-30 -17 -70 -49.5t-65 -61.5h-71q-25 29 -65.5 62t-69.5 49l79 94
l2 -1q6 -17 33.5 -52t56.5 -65q30 31 57 66t32 51l2 1z" />
    <glyph glyph-name="lcaron" unicode="&#x13e;" horiz-adv-x="554" 
d="M474.5 -1.5q-23.5 1.5 -60.5 1.5h-355v2q22 15 38 53t16 95v399q0 55 -16 92.5t-38 51.5v2h245v-2q-22 -15 -38 -53t-16 -95v-445h99q66 0 117 22.5t83 67.5l2 -1l-26 -197q-27 5 -50.5 6.5zM349 849q-30 -17 -70 -49.5t-65 -61.5h-71q-25 29 -65.5 62t-69.5 49l79 94
l2 -1q6 -17 33.5 -52t56.5 -65q30 31 57 66t32 51l2 1z" />
    <glyph glyph-name="Ldot" unicode="&#x13f;" horiz-adv-x="554" 
d="M474.5 -1.5q-23.5 1.5 -60.5 1.5h-355v2q22 15 38 53t16 95v399q0 55 -16 92.5t-38 51.5v2h245v-2q-22 -15 -38 -53t-16 -95v-445h99q66 0 117 22.5t83 67.5l2 -1l-26 -197q-27 5 -50.5 6.5z" />
    <glyph glyph-name="ldot" unicode="&#x140;" horiz-adv-x="554" 
d="M474.5 -1.5q-23.5 1.5 -60.5 1.5h-355v2q22 15 38 53t16 95v399q0 55 -16 92.5t-38 51.5v2h245v-2q-22 -15 -38 -53t-16 -95v-445h99q66 0 117 22.5t83 67.5l2 -1l-26 -197q-27 5 -50.5 6.5z" />
    <glyph glyph-name="Lslash" unicode="&#x141;" horiz-adv-x="569" 
d="M566 189l-26 -197q-27 5 -50.5 6.5t-60.5 1.5h-355v2q22 15 38 53t16 95v92l-26 -14q-49 -25 -65 -55h-2l-22 99l115 62v215q0 55 -16 92.5t-38 51.5v2h245v-2q-22 -15 -38 -53t-16 -95v-137l71 38q23 12 44 30t28 30h2l27 -101l-172 -91v-214h99q66 0 117 22.5t83 67.5z
" />
    <glyph glyph-name="lslash" unicode="&#x142;" horiz-adv-x="569" 
d="M566 189l-26 -197q-27 5 -50.5 6.5t-60.5 1.5h-355v2q22 15 38 53t16 95v92l-26 -14q-49 -25 -65 -55h-2l-22 99l115 62v215q0 55 -16 92.5t-38 51.5v2h245v-2q-22 -15 -38 -53t-16 -95v-137l71 38q23 12 44 30t28 30h2l27 -101l-172 -91v-214h99q66 0 117 22.5t83 67.5z
" />
    <glyph glyph-name="Nacute" unicode="&#x143;" horiz-adv-x="790" 
d="M59 2q22 15 38 53t16 95v400q0 44 -14 84.5t-40 58.5v2h227q2 -17 10 -37.5t31 -58.5l144 -242q42 -71 92 -198h4q-16 91 -16 206v180q0 58 -14.5 96t-36.5 52v2h231v-2q-22 -14 -38 -52.5t-16 -95.5v-395q0 -57 16 -95.5t38 -52.5v-2h-211q-18 43 -50 95l-141 229
q-35 57 -58 107.5t-46 120.5h-4q11 -65 14.5 -117t3.5 -115v-170q0 -58 14.5 -96t36.5 -52v-2h-231v2zM319 779q34 32 75 90t46 84l2 1l89 -85q-28 -20 -69.5 -63t-61.5 -69z" />
    <glyph glyph-name="nacute" unicode="&#x144;" horiz-adv-x="790" 
d="M59 2q22 15 38 53t16 95v400q0 44 -14 84.5t-40 58.5v2h227q2 -17 10 -37.5t31 -58.5l144 -242q42 -71 92 -198h4q-16 91 -16 206v180q0 58 -14.5 96t-36.5 52v2h231v-2q-22 -14 -38 -52.5t-16 -95.5v-395q0 -57 16 -95.5t38 -52.5v-2h-211q-18 43 -50 95l-141 229
q-35 57 -58 107.5t-46 120.5h-4q11 -65 14.5 -117t3.5 -115v-170q0 -58 14.5 -96t36.5 -52v-2h-231v2zM319 779q34 32 75 90t46 84l2 1l89 -85q-28 -20 -69.5 -63t-61.5 -69z" />
    <glyph glyph-name="uni0145" unicode="&#x145;" horiz-adv-x="790" 
d="M59 2q22 15 38 53t16 95v400q0 44 -14 84.5t-40 58.5v2h227q2 -17 10 -37.5t31 -58.5l144 -242q42 -71 92 -198h4q-16 91 -16 206v180q0 58 -14.5 96t-36.5 52v2h231v-2q-22 -14 -38 -52.5t-16 -95.5v-395q0 -57 16 -95.5t38 -52.5v-2h-211q-18 43 -50 95l-141 229
q-35 57 -58 107.5t-46 120.5h-4q11 -65 14.5 -117t3.5 -115v-170q0 -58 14.5 -96t36.5 -52v-2h-231v2zM300 -233q14 24 32 90.5t21 98.5l130 -9l1 -2q-35 -50 -62.5 -107.5t-38.5 -100.5z" />
    <glyph glyph-name="uni0146" unicode="&#x146;" horiz-adv-x="790" 
d="M59 2q22 15 38 53t16 95v400q0 44 -14 84.5t-40 58.5v2h227q2 -17 10 -37.5t31 -58.5l144 -242q42 -71 92 -198h4q-16 91 -16 206v180q0 58 -14.5 96t-36.5 52v2h231v-2q-22 -14 -38 -52.5t-16 -95.5v-395q0 -57 16 -95.5t38 -52.5v-2h-211q-18 43 -50 95l-141 229
q-35 57 -58 107.5t-46 120.5h-4q11 -65 14.5 -117t3.5 -115v-170q0 -58 14.5 -96t36.5 -52v-2h-231v2zM300 -233q14 24 32 90.5t21 98.5l130 -9l1 -2q-35 -50 -62.5 -107.5t-38.5 -100.5z" />
    <glyph glyph-name="Ncaron" unicode="&#x147;" horiz-adv-x="790" 
d="M59 2q22 15 38 53t16 95v400q0 44 -14 84.5t-40 58.5v2h227q2 -17 10 -37.5t31 -58.5l144 -242q42 -71 92 -198h4q-16 91 -16 206v180q0 58 -14.5 96t-36.5 52v2h231v-2q-22 -14 -38 -52.5t-16 -95.5v-395q0 -57 16 -95.5t38 -52.5v-2h-211q-18 43 -50 95l-141 229
q-35 57 -58 107.5t-46 120.5h-4q11 -65 14.5 -117t3.5 -115v-170q0 -58 14.5 -96t36.5 -52v-2h-231v2zM568 849q-30 -17 -70 -49.5t-65 -61.5h-71q-25 29 -65.5 62t-69.5 49l79 94l2 -1q6 -17 33.5 -52t56.5 -65q30 31 57 66t32 51l2 1z" />
    <glyph glyph-name="ncaron" unicode="&#x148;" horiz-adv-x="790" 
d="M59 2q22 15 38 53t16 95v400q0 44 -14 84.5t-40 58.5v2h227q2 -17 10 -37.5t31 -58.5l144 -242q42 -71 92 -198h4q-16 91 -16 206v180q0 58 -14.5 96t-36.5 52v2h231v-2q-22 -14 -38 -52.5t-16 -95.5v-395q0 -57 16 -95.5t38 -52.5v-2h-211q-18 43 -50 95l-141 229
q-35 57 -58 107.5t-46 120.5h-4q11 -65 14.5 -117t3.5 -115v-170q0 -58 14.5 -96t36.5 -52v-2h-231v2zM568 849q-30 -17 -70 -49.5t-65 -61.5h-71q-25 29 -65.5 62t-69.5 49l79 94l2 -1q6 -17 33.5 -52t56.5 -65q30 31 57 66t32 51l2 1z" />
    <glyph glyph-name="Eng" unicode="&#x14a;" horiz-adv-x="790" 
d="M399 -169l-14 122h2q13 -18 34.5 -28.5t46.5 -10.5q35 0 53.5 17.5t18.5 42.5q-20 41 -70 121l-141 225q-34 54 -57 106.5t-47 125.5h-4q11 -71 14.5 -121t3.5 -123v-158q0 -58 14.5 -96t36.5 -52v-2h-231v2q22 15 38 53t16 95v400q0 44 -14 84.5t-40 58.5v2h227
q2 -17 10 -37.5t31 -58.5l144 -242q42 -71 92 -198h4q-10 62 -13 107t-3 99l-1 180q0 59 -14 96.5t-35 51.5v2h230v-2q-22 -14 -38 -52.5t-16 -95.5v-492q0 -239 -187 -239q-45 0 -91 17z" />
    <glyph glyph-name="eng" unicode="&#x14b;" horiz-adv-x="790" 
d="M399 -169l-14 122h2q13 -18 34.5 -28.5t46.5 -10.5q35 0 53.5 17.5t18.5 42.5q-20 41 -70 121l-141 225q-34 54 -57 106.5t-47 125.5h-4q11 -71 14.5 -121t3.5 -123v-158q0 -58 14.5 -96t36.5 -52v-2h-231v2q22 15 38 53t16 95v400q0 44 -14 84.5t-40 58.5v2h227
q2 -17 10 -37.5t31 -58.5l144 -242q42 -71 92 -198h4q-10 62 -13 107t-3 99l-1 180q0 59 -14 96.5t-35 51.5v2h230v-2q-22 -14 -38 -52.5t-16 -95.5v-492q0 -239 -187 -239q-45 0 -91 17z" />
    <glyph glyph-name="Omacron" unicode="&#x14c;" horiz-adv-x="816" 
d="M210 27q-81 47 -123.5 129t-42.5 185q0 112 44.5 196.5t128.5 131t198 46.5q106 0 187 -45t125.5 -127t44.5 -188q0 -110 -46.5 -195.5t-131 -132.5t-194.5 -47q-109 0 -190 47zM519.5 116q48.5 32 76 91.5t27.5 137.5q0 126 -58 196t-160 70q-65 0 -113 -32.5t-73.5 -91
t-25.5 -136.5q0 -125 56 -196t161 -71q61 0 109.5 32zM251 771l16 103h230q49 0 68 12l2 -1l-15 -106l-235 -1q-43 0 -64 -8z" />
    <glyph glyph-name="omacron" unicode="&#x14d;" horiz-adv-x="816" 
d="M210 27q-81 47 -123.5 129t-42.5 185q0 112 44.5 196.5t128.5 131t198 46.5q106 0 187 -45t125.5 -127t44.5 -188q0 -110 -46.5 -195.5t-131 -132.5t-194.5 -47q-109 0 -190 47zM519.5 116q48.5 32 76 91.5t27.5 137.5q0 126 -58 196t-160 70q-65 0 -113 -32.5t-73.5 -91
t-25.5 -136.5q0 -125 56 -196t161 -71q61 0 109.5 32zM251 771l16 103h230q49 0 68 12l2 -1l-15 -106l-235 -1q-43 0 -64 -8z" />
    <glyph glyph-name="Obreve" unicode="&#x14e;" horiz-adv-x="816" 
d="M210 27q-81 47 -123.5 129t-42.5 185q0 112 44.5 196.5t128.5 131t198 46.5q106 0 187 -45t125.5 -127t44.5 -188q0 -110 -46.5 -195.5t-131 -132.5t-194.5 -47q-109 0 -190 47zM519.5 116q48.5 32 76 91.5t27.5 137.5q0 126 -58 196t-160 70q-65 0 -113 -32.5t-73.5 -91
t-25.5 -136.5q0 -125 56 -196t161 -71q61 0 109.5 32zM293.5 788.5q-46.5 38.5 -58.5 103.5l102 34l1 -2q-3 -9 -3 -20q0 -26 20 -44.5t57 -18.5q38 0 58.5 19t20.5 46q0 9 -3 18l1 2l100 -33q-16 -66 -62 -104.5t-115 -38.5q-72 0 -118.5 38.5z" />
    <glyph glyph-name="obreve" unicode="&#x14f;" horiz-adv-x="816" 
d="M210 27q-81 47 -123.5 129t-42.5 185q0 112 44.5 196.5t128.5 131t198 46.5q106 0 187 -45t125.5 -127t44.5 -188q0 -110 -46.5 -195.5t-131 -132.5t-194.5 -47q-109 0 -190 47zM519.5 116q48.5 32 76 91.5t27.5 137.5q0 126 -58 196t-160 70q-65 0 -113 -32.5t-73.5 -91
t-25.5 -136.5q0 -125 56 -196t161 -71q61 0 109.5 32zM293.5 788.5q-46.5 38.5 -58.5 103.5l102 34l1 -2q-3 -9 -3 -20q0 -26 20 -44.5t57 -18.5q38 0 58.5 19t20.5 46q0 9 -3 18l1 2l100 -33q-16 -66 -62 -104.5t-115 -38.5q-72 0 -118.5 38.5z" />
    <glyph glyph-name="Ohungarumlaut" unicode="&#x150;" horiz-adv-x="816" 
d="M210 27q-81 47 -123.5 129t-42.5 185q0 112 44.5 196.5t128.5 131t198 46.5q106 0 187 -45t125.5 -127t44.5 -188q0 -110 -46.5 -195.5t-131 -132.5t-194.5 -47q-109 0 -190 47zM519.5 116q48.5 32 76 91.5t27.5 137.5q0 126 -58 196t-160 70q-65 0 -113 -32.5t-73.5 -91
t-25.5 -136.5q0 -125 56 -196t161 -71q61 0 109.5 32zM239 785q31 29 72.5 87.5t46.5 83.5l2 1l79 -79q-33 -32 -71 -70.5t-55 -59.5zM384 780q31 30 72 87.5t47 83.5l2 1l83 -81q-27 -20 -68 -61t-62 -67z" />
    <glyph glyph-name="ohungarumlaut" unicode="&#x151;" horiz-adv-x="816" 
d="M210 27q-81 47 -123.5 129t-42.5 185q0 112 44.5 196.5t128.5 131t198 46.5q106 0 187 -45t125.5 -127t44.5 -188q0 -110 -46.5 -195.5t-131 -132.5t-194.5 -47q-109 0 -190 47zM519.5 116q48.5 32 76 91.5t27.5 137.5q0 126 -58 196t-160 70q-65 0 -113 -32.5t-73.5 -91
t-25.5 -136.5q0 -125 56 -196t161 -71q61 0 109.5 32zM239 785q31 29 72.5 87.5t46.5 83.5l2 1l79 -79q-33 -32 -71 -70.5t-55 -59.5zM384 780q31 30 72 87.5t47 83.5l2 1l83 -81q-27 -20 -68 -61t-62 -67z" />
    <glyph glyph-name="OE" unicode="&#x152;" horiz-adv-x="964" 
d="M926 200l-28 -208q-28 5 -53.5 6.5t-68.5 1.5h-268q-50 -9 -99 -9q-113 0 -195.5 46.5t-126 126t-43.5 177.5q0 107 45 189t130.5 127.5t201.5 45.5q49 0 86 -8h275q71 0 106 8l17 -187l-2 -1q-18 37 -58 55.5t-99 18.5h-110v-168h54q63 0 93 1.5t63 5.5l-29 -175h-2
q-12 33 -39 48t-70 15h-70v-209h87q66 0 117.5 24t83.5 70zM249.5 165q57.5 -68 169.5 -68q54 0 87 11v475q-36 15 -95 15q-67 0 -117 -33t-76 -89.5t-26 -124.5q0 -118 57.5 -186z" />
    <glyph glyph-name="oe" unicode="&#x153;" horiz-adv-x="964" 
d="M926 200l-28 -208q-28 5 -53.5 6.5t-68.5 1.5h-268q-50 -9 -99 -9q-113 0 -195.5 46.5t-126 126t-43.5 177.5q0 107 45 189t130.5 127.5t201.5 45.5q49 0 86 -8h275q71 0 106 8l17 -187l-2 -1q-18 37 -58 55.5t-99 18.5h-110v-168h54q63 0 93 1.5t63 5.5l-29 -175h-2
q-12 33 -39 48t-70 15h-70v-209h87q66 0 117.5 24t83.5 70zM249.5 165q57.5 -68 169.5 -68q54 0 87 11v475q-36 15 -95 15q-67 0 -117 -33t-76 -89.5t-26 -124.5q0 -118 57.5 -186z" />
    <glyph glyph-name="Racute" unicode="&#x154;" horiz-adv-x="661" 
d="M683 18v-2l-205 -37q-19 57 -51 111l-155 265h48q66 0 100 29.5t34 94.5q0 55 -35 87t-99 31l-70 -1v-450q0 -54 15 -91.5t35 -52.5v-2h-241v2q22 14 38 52.5t16 95.5v399q0 55 -16 92.5t-38 51.5v2h284q119 0 186 -56.5t67 -154.5q0 -78 -35.5 -127.5t-100.5 -70.5
l93 -151q58 -93 130 -117zM222 779q34 32 75 90t46 84l2 1l89 -85q-28 -20 -69.5 -63t-61.5 -69z" />
    <glyph glyph-name="racute" unicode="&#x155;" horiz-adv-x="661" 
d="M683 18v-2l-205 -37q-19 57 -51 111l-155 265h48q66 0 100 29.5t34 94.5q0 55 -35 87t-99 31l-70 -1v-450q0 -54 15 -91.5t35 -52.5v-2h-241v2q22 14 38 52.5t16 95.5v399q0 55 -16 92.5t-38 51.5v2h284q119 0 186 -56.5t67 -154.5q0 -78 -35.5 -127.5t-100.5 -70.5
l93 -151q58 -93 130 -117zM222 779q34 32 75 90t46 84l2 1l89 -85q-28 -20 -69.5 -63t-61.5 -69z" />
    <glyph glyph-name="uni0156" unicode="&#x156;" horiz-adv-x="661" 
d="M683 18v-2l-205 -37q-19 57 -51 111l-155 265h48q66 0 100 29.5t34 94.5q0 55 -35 87t-99 31l-70 -1v-450q0 -54 15 -91.5t35 -52.5v-2h-241v2q22 14 38 52.5t16 95.5v399q0 55 -16 92.5t-38 51.5v2h284q119 0 186 -56.5t67 -154.5q0 -78 -35.5 -127.5t-100.5 -70.5
l93 -151q58 -93 130 -117zM266 -233q14 24 32 90.5t21 98.5l130 -9l1 -2q-35 -50 -62.5 -107.5t-38.5 -100.5z" />
    <glyph glyph-name="uni0157" unicode="&#x157;" horiz-adv-x="661" 
d="M683 18v-2l-205 -37q-19 57 -51 111l-155 265h48q66 0 100 29.5t34 94.5q0 55 -35 87t-99 31l-70 -1v-450q0 -54 15 -91.5t35 -52.5v-2h-241v2q22 14 38 52.5t16 95.5v399q0 55 -16 92.5t-38 51.5v2h284q119 0 186 -56.5t67 -154.5q0 -78 -35.5 -127.5t-100.5 -70.5
l93 -151q58 -93 130 -117zM266 -233q14 24 32 90.5t21 98.5l130 -9l1 -2q-35 -50 -62.5 -107.5t-38.5 -100.5z" />
    <glyph glyph-name="Rcaron" unicode="&#x158;" horiz-adv-x="661" 
d="M683 18v-2l-205 -37q-19 57 -51 111l-155 265h48q66 0 100 29.5t34 94.5q0 55 -35 87t-99 31l-70 -1v-450q0 -54 15 -91.5t35 -52.5v-2h-241v2q22 14 38 52.5t16 95.5v399q0 55 -16 92.5t-38 51.5v2h284q119 0 186 -56.5t67 -154.5q0 -78 -35.5 -127.5t-100.5 -70.5
l93 -151q58 -93 130 -117zM471 849q-30 -17 -70 -49.5t-65 -61.5h-71q-25 29 -65.5 62t-69.5 49l79 94l2 -1q6 -17 33.5 -52t56.5 -65q30 31 57 66t32 51l2 1z" />
    <glyph glyph-name="rcaron" unicode="&#x159;" horiz-adv-x="661" 
d="M683 18v-2l-205 -37q-19 57 -51 111l-155 265h48q66 0 100 29.5t34 94.5q0 55 -35 87t-99 31l-70 -1v-450q0 -54 15 -91.5t35 -52.5v-2h-241v2q22 14 38 52.5t16 95.5v399q0 55 -16 92.5t-38 51.5v2h284q119 0 186 -56.5t67 -154.5q0 -78 -35.5 -127.5t-100.5 -70.5
l93 -151q58 -93 130 -117zM471 849q-30 -17 -70 -49.5t-65 -61.5h-71q-25 29 -65.5 62t-69.5 49l79 94l2 -1q6 -17 33.5 -52t56.5 -65q30 31 57 66t32 51l2 1z" />
    <glyph glyph-name="Sacute" unicode="&#x15a;" horiz-adv-x="548" 
d="M148.5 -4.5q-51.5 10.5 -83.5 29.5l-17 168l2 1q42 -56 90.5 -80.5t108.5 -24.5q124 0 124 90q0 32 -17 54.5t-42.5 36.5t-69.5 32q-59 24 -95.5 46.5t-62.5 63.5t-26 106q0 51 28.5 94.5t82.5 69.5t129 26q76 0 157 -21l13 -164h-2q-30 46 -69.5 64t-88.5 18
q-115 0 -115 -77q0 -27 15.5 -46t39 -31.5t66.5 -30.5q61 -25 100 -49t67 -68t28 -114q0 -58 -28.5 -104t-85.5 -73t-138 -27q-59 0 -110.5 10.5zM216 786q34 32 75 90t46 84l2 1l89 -85q-28 -20 -69.5 -63t-61.5 -69z" />
    <glyph glyph-name="sacute" unicode="&#x15b;" horiz-adv-x="548" 
d="M148.5 -4.5q-51.5 10.5 -83.5 29.5l-17 168l2 1q42 -56 90.5 -80.5t108.5 -24.5q124 0 124 90q0 32 -17 54.5t-42.5 36.5t-69.5 32q-59 24 -95.5 46.5t-62.5 63.5t-26 106q0 51 28.5 94.5t82.5 69.5t129 26q76 0 157 -21l13 -164h-2q-30 46 -69.5 64t-88.5 18
q-115 0 -115 -77q0 -27 15.5 -46t39 -31.5t66.5 -30.5q61 -25 100 -49t67 -68t28 -114q0 -58 -28.5 -104t-85.5 -73t-138 -27q-59 0 -110.5 10.5zM216 786q34 32 75 90t46 84l2 1l89 -85q-28 -20 -69.5 -63t-61.5 -69z" />
    <glyph glyph-name="Scircumflex" unicode="&#x15c;" horiz-adv-x="548" 
d="M148.5 -4.5q-51.5 10.5 -83.5 29.5l-17 168l2 1q42 -56 90.5 -80.5t108.5 -24.5q124 0 124 90q0 32 -17 54.5t-42.5 36.5t-69.5 32q-59 24 -95.5 46.5t-62.5 63.5t-26 106q0 51 28.5 94.5t82.5 69.5t129 26q76 0 157 -21l13 -164h-2q-30 46 -69.5 64t-88.5 18
q-115 0 -115 -77q0 -27 15.5 -46t39 -31.5t66.5 -30.5q61 -25 100 -49t67 -68t28 -114q0 -58 -28.5 -104t-85.5 -73t-138 -27q-59 0 -110.5 10.5zM394 879q39 -32 71 -50l-79 -94l-2 1q-6 17 -33.5 52t-56.5 65q-28 -29 -55.5 -64.5t-33.5 -52.5l-2 -1l-79 94q30 17 70 49.5
t65 61.5h71q25 -29 64 -61z" />
    <glyph glyph-name="scircumflex" unicode="&#x15d;" horiz-adv-x="548" 
d="M148.5 -4.5q-51.5 10.5 -83.5 29.5l-17 168l2 1q42 -56 90.5 -80.5t108.5 -24.5q124 0 124 90q0 32 -17 54.5t-42.5 36.5t-69.5 32q-59 24 -95.5 46.5t-62.5 63.5t-26 106q0 51 28.5 94.5t82.5 69.5t129 26q76 0 157 -21l13 -164h-2q-30 46 -69.5 64t-88.5 18
q-115 0 -115 -77q0 -27 15.5 -46t39 -31.5t66.5 -30.5q61 -25 100 -49t67 -68t28 -114q0 -58 -28.5 -104t-85.5 -73t-138 -27q-59 0 -110.5 10.5zM394 879q39 -32 71 -50l-79 -94l-2 1q-6 17 -33.5 52t-56.5 65q-28 -29 -55.5 -64.5t-33.5 -52.5l-2 -1l-79 94q30 17 70 49.5
t65 61.5h71q25 -29 64 -61z" />
    <glyph glyph-name="Scedilla" unicode="&#x15e;" horiz-adv-x="548" 
d="M455 51q-56 -56 -159 -65l-5 -27q51 -5 83.5 -29.5t32.5 -75.5q0 -57 -41 -87t-96 -30q-23 0 -46.5 6t-41.5 17l-9 87l2 1q23 -20 42.5 -28.5t42.5 -8.5q27 0 42 11.5t15 30.5q0 21 -15 30t-47 9q-30 0 -50 -4l-2 2l20 96q-103 6 -158 39l-17 168l2 1q42 -56 90.5 -80.5
t108.5 -24.5q124 0 124 90q0 32 -17 54.5t-42.5 36.5t-69.5 32q-59 24 -95.5 46.5t-62.5 63.5t-26 106q0 51 28.5 94.5t82.5 69.5t129 26q76 0 157 -21l13 -164h-2q-30 46 -69.5 64t-88.5 18q-115 0 -115 -77q0 -27 15.5 -46t39 -31.5t66.5 -30.5q61 -25 100 -49t67 -68
t28 -114q0 -82 -56 -138z" />
    <glyph glyph-name="scedilla" unicode="&#x15f;" horiz-adv-x="548" 
d="M455 51q-56 -56 -159 -65l-5 -27q51 -5 83.5 -29.5t32.5 -75.5q0 -57 -41 -87t-96 -30q-23 0 -46.5 6t-41.5 17l-9 87l2 1q23 -20 42.5 -28.5t42.5 -8.5q27 0 42 11.5t15 30.5q0 21 -15 30t-47 9q-30 0 -50 -4l-2 2l20 96q-103 6 -158 39l-17 168l2 1q42 -56 90.5 -80.5
t108.5 -24.5q124 0 124 90q0 32 -17 54.5t-42.5 36.5t-69.5 32q-59 24 -95.5 46.5t-62.5 63.5t-26 106q0 51 28.5 94.5t82.5 69.5t129 26q76 0 157 -21l13 -164h-2q-30 46 -69.5 64t-88.5 18q-115 0 -115 -77q0 -27 15.5 -46t39 -31.5t66.5 -30.5q61 -25 100 -49t67 -68
t28 -114q0 -82 -56 -138z" />
    <glyph glyph-name="Scaron" unicode="&#x160;" horiz-adv-x="548" 
d="M148.5 -4.5q-51.5 10.5 -83.5 29.5l-17 168l2 1q42 -56 90.5 -80.5t108.5 -24.5q124 0 124 90q0 32 -17 54.5t-42.5 36.5t-69.5 32q-59 24 -95.5 46.5t-62.5 63.5t-26 106q0 51 28.5 94.5t82.5 69.5t129 26q76 0 157 -21l13 -164h-2q-30 46 -69.5 64t-88.5 18
q-115 0 -115 -77q0 -27 15.5 -46t39 -31.5t66.5 -30.5q61 -25 100 -49t67 -68t28 -114q0 -58 -28.5 -104t-85.5 -73t-138 -27q-59 0 -110.5 10.5zM465 856q-30 -17 -70 -49.5t-65 -61.5h-71q-25 29 -65.5 62t-69.5 49l79 94l2 -1q6 -17 33.5 -52t56.5 -65q30 31 57 66t32 51
l2 1z" />
    <glyph glyph-name="scaron" unicode="&#x161;" horiz-adv-x="548" 
d="M148.5 -4.5q-51.5 10.5 -83.5 29.5l-17 168l2 1q42 -56 90.5 -80.5t108.5 -24.5q124 0 124 90q0 32 -17 54.5t-42.5 36.5t-69.5 32q-59 24 -95.5 46.5t-62.5 63.5t-26 106q0 51 28.5 94.5t82.5 69.5t129 26q76 0 157 -21l13 -164h-2q-30 46 -69.5 64t-88.5 18
q-115 0 -115 -77q0 -27 15.5 -46t39 -31.5t66.5 -30.5q61 -25 100 -49t67 -68t28 -114q0 -58 -28.5 -104t-85.5 -73t-138 -27q-59 0 -110.5 10.5zM465 856q-30 -17 -70 -49.5t-65 -61.5h-71q-25 29 -65.5 62t-69.5 49l79 94l2 -1q6 -17 33.5 -52t56.5 -65q30 31 57 66t32 51
l2 1z" />
    <glyph glyph-name="uni0162" unicode="&#x162;" horiz-adv-x="592" 
d="M572 520l-2 -1q-18 32 -52.5 53t-77.5 21h-75v-435q0 -61 17.5 -101.5t43.5 -54.5v-2h-93l-5 -26q51 -5 83.5 -29.5t32.5 -75.5q0 -57 -41 -87t-96 -30q-23 0 -46.5 6t-41.5 17l-9 87l2 1q23 -20 42.5 -28.5t42.5 -8.5q27 0 42 11.5t15 30.5q0 21 -15 30t-47 9
q-30 0 -50 -4l-2 2l20 95h-93v2q24 14 42.5 55.5t18.5 100.5v435h-76q-43 0 -77.5 -21t-52.5 -53l-2 1l17 183q61 -8 137 -8h244q76 0 137 8z" />
    <glyph glyph-name="uni0163" unicode="&#x163;" horiz-adv-x="592" 
d="M572 520l-2 -1q-18 32 -52.5 53t-77.5 21h-75v-435q0 -61 17.5 -101.5t43.5 -54.5v-2h-93l-5 -26q51 -5 83.5 -29.5t32.5 -75.5q0 -57 -41 -87t-96 -30q-23 0 -46.5 6t-41.5 17l-9 87l2 1q23 -20 42.5 -28.5t42.5 -8.5q27 0 42 11.5t15 30.5q0 21 -15 30t-47 9
q-30 0 -50 -4l-2 2l20 95h-93v2q24 14 42.5 55.5t18.5 100.5v435h-76q-43 0 -77.5 -21t-52.5 -53l-2 1l17 183q61 -8 137 -8h244q76 0 137 8z" />
    <glyph glyph-name="Tcaron" unicode="&#x164;" horiz-adv-x="592" 
d="M572 520l-2 -1q-18 32 -52.5 53t-77.5 21h-75v-435q0 -61 17.5 -101.5t43.5 -54.5v-2h-259v2q24 14 42.5 55.5t18.5 100.5v435h-76q-43 0 -77.5 -21t-52.5 -53l-2 1l17 183q61 -8 137 -8h244q76 0 137 8zM466 849q-30 -17 -70 -49.5t-65 -61.5h-71q-25 29 -65.5 62
t-69.5 49l79 94l2 -1q6 -17 33.5 -52t56.5 -65q30 31 57 66t32 51l2 1z" />
    <glyph glyph-name="tcaron" unicode="&#x165;" horiz-adv-x="592" 
d="M572 520l-2 -1q-18 32 -52.5 53t-77.5 21h-75v-435q0 -61 17.5 -101.5t43.5 -54.5v-2h-259v2q24 14 42.5 55.5t18.5 100.5v435h-76q-43 0 -77.5 -21t-52.5 -53l-2 1l17 183q61 -8 137 -8h244q76 0 137 8zM466 849q-30 -17 -70 -49.5t-65 -61.5h-71q-25 29 -65.5 62
t-69.5 49l79 94l2 -1q6 -17 33.5 -52t56.5 -65q30 31 57 66t32 51l2 1z" />
    <glyph glyph-name="Tbar" unicode="&#x166;" horiz-adv-x="592" 
d="M572 520l-2 -1q-18 32 -52.5 53t-77.5 21h-75v-217h50q18 0 39 5.5t34 14.5l2 -1l-16 -109h-109v-128q0 -61 17.5 -101.5t43.5 -54.5v-2h-259v2q24 14 42.5 55.5t18.5 100.5v128h-46q-20 0 -39 -6t-30 -16l-2 1l18 111h99v217h-76q-43 0 -77.5 -21t-52.5 -53l-2 1l17 183
q61 -8 137 -8h244q76 0 137 8z" />
    <glyph glyph-name="tbar" unicode="&#x167;" horiz-adv-x="592" 
d="M572 520l-2 -1q-18 32 -52.5 53t-77.5 21h-75v-217h50q18 0 39 5.5t34 14.5l2 -1l-16 -109h-109v-128q0 -61 17.5 -101.5t43.5 -54.5v-2h-259v2q24 14 42.5 55.5t18.5 100.5v128h-46q-20 0 -39 -6t-30 -16l-2 1l18 111h99v217h-76q-43 0 -77.5 -21t-52.5 -53l-2 1l17 183
q61 -8 137 -8h244q76 0 137 8z" />
    <glyph glyph-name="Utilde" unicode="&#x168;" horiz-adv-x="744" 
d="M161 59q-71 76 -71 227v259q0 57 -16 95t-38 53v2h243v-2q-20 -15 -35.5 -53t-15.5 -95v-270q0 -102 34 -144.5t116 -42.5q73 0 107 45.5t34 141.5v270q0 56 -15.5 94.5t-35.5 53.5v2h240v-2q-22 -15 -38 -52.5t-16 -95.5v-259q0 -152 -71 -227.5t-216 -75.5
q-135 0 -206 76zM189 823q32 34 62 49t67 15q20 0 34.5 -5t33.5 -15q15 -8 27 -12.5t26 -4.5q21 0 36 11t20 27h2l53 -83q-30 -27 -58 -39t-62 -12q-21 0 -36 5.5t-35 15.5q-18 9 -29 13.5t-26 4.5q-39 0 -62 -45h-2z" />
    <glyph glyph-name="utilde" unicode="&#x169;" horiz-adv-x="744" 
d="M161 59q-71 76 -71 227v259q0 57 -16 95t-38 53v2h243v-2q-20 -15 -35.5 -53t-15.5 -95v-270q0 -102 34 -144.5t116 -42.5q73 0 107 45.5t34 141.5v270q0 56 -15.5 94.5t-35.5 53.5v2h240v-2q-22 -15 -38 -52.5t-16 -95.5v-259q0 -152 -71 -227.5t-216 -75.5
q-135 0 -206 76zM189 823q32 34 62 49t67 15q20 0 34.5 -5t33.5 -15q15 -8 27 -12.5t26 -4.5q21 0 36 11t20 27h2l53 -83q-30 -27 -58 -39t-62 -12q-21 0 -36 5.5t-35 15.5q-18 9 -29 13.5t-26 4.5q-39 0 -62 -45h-2z" />
    <glyph glyph-name="Umacron" unicode="&#x16a;" horiz-adv-x="744" 
d="M161 59q-71 76 -71 227v259q0 57 -16 95t-38 53v2h243v-2q-20 -15 -35.5 -53t-15.5 -95v-270q0 -102 34 -144.5t116 -42.5q73 0 107 45.5t34 141.5v270q0 56 -15.5 94.5t-35.5 53.5v2h240v-2q-22 -15 -38 -52.5t-16 -95.5v-259q0 -152 -71 -227.5t-216 -75.5
q-135 0 -206 76zM211 763l16 103h230q49 0 68 12l2 -1l-15 -106l-235 -1q-43 0 -64 -8z" />
    <glyph glyph-name="umacron" unicode="&#x16b;" horiz-adv-x="744" 
d="M161 59q-71 76 -71 227v259q0 57 -16 95t-38 53v2h243v-2q-20 -15 -35.5 -53t-15.5 -95v-270q0 -102 34 -144.5t116 -42.5q73 0 107 45.5t34 141.5v270q0 56 -15.5 94.5t-35.5 53.5v2h240v-2q-22 -15 -38 -52.5t-16 -95.5v-259q0 -152 -71 -227.5t-216 -75.5
q-135 0 -206 76zM211 763l16 103h230q49 0 68 12l2 -1l-15 -106l-235 -1q-43 0 -64 -8z" />
    <glyph glyph-name="Uring" unicode="&#x16e;" horiz-adv-x="744" 
d="M161 59q-71 76 -71 227v259q0 57 -16 95t-38 53v2h243v-2q-20 -15 -35.5 -53t-15.5 -95v-270q0 -102 34 -144.5t116 -42.5q73 0 107 45.5t34 141.5v270q0 56 -15.5 94.5t-35.5 53.5v2h240v-2q-22 -15 -38 -52.5t-16 -95.5v-259q0 -152 -71 -227.5t-216 -75.5
q-135 0 -206 76zM301 721q-33 18 -52 49.5t-19 70.5t19 71t52 50.5t73 18.5q39 0 71.5 -18.5t52 -50.5t19.5 -71q0 -38 -19.5 -69.5t-52 -50t-71.5 -18.5q-40 0 -73 18zM410 803.5q13 13.5 13 37.5q0 25 -13 38.5t-36 13.5q-24 0 -37.5 -13.5t-13.5 -38.5q0 -24 13.5 -37.5
t37.5 -13.5q23 0 36 13.5z" />
    <glyph glyph-name="uring" unicode="&#x16f;" horiz-adv-x="744" 
d="M161 59q-71 76 -71 227v259q0 57 -16 95t-38 53v2h243v-2q-20 -15 -35.5 -53t-15.5 -95v-270q0 -102 34 -144.5t116 -42.5q73 0 107 45.5t34 141.5v270q0 56 -15.5 94.5t-35.5 53.5v2h240v-2q-22 -15 -38 -52.5t-16 -95.5v-259q0 -152 -71 -227.5t-216 -75.5
q-135 0 -206 76zM301 713q-33 18 -52 49.5t-19 70.5t19 71t52 50.5t73 18.5q39 0 71.5 -18.5t52 -50.5t19.5 -71q0 -38 -19.5 -69.5t-52 -50t-71.5 -18.5q-40 0 -73 18zM410 795.5q13 13.5 13 37.5q0 25 -13 38.5t-36 13.5q-24 0 -37.5 -13.5t-13.5 -38.5q0 -24 13.5 -37.5
t37.5 -13.5q23 0 36 13.5z" />
    <glyph glyph-name="Uhungarumlaut" unicode="&#x170;" horiz-adv-x="744" 
d="M161 59q-71 76 -71 227v259q0 57 -16 95t-38 53v2h243v-2q-20 -15 -35.5 -53t-15.5 -95v-270q0 -102 34 -144.5t116 -42.5q73 0 107 45.5t34 141.5v270q0 56 -15.5 94.5t-35.5 53.5v2h240v-2q-22 -15 -38 -52.5t-16 -95.5v-259q0 -152 -71 -227.5t-216 -75.5
q-135 0 -206 76zM199 777q31 29 72.5 87.5t46.5 83.5l2 1l79 -79q-33 -32 -71 -70.5t-55 -59.5zM344 772q31 30 72 87.5t47 83.5l2 1l83 -81q-27 -20 -68 -61t-62 -67z" />
    <glyph glyph-name="uhungarumlaut" unicode="&#x171;" horiz-adv-x="744" 
d="M161 59q-71 76 -71 227v259q0 57 -16 95t-38 53v2h243v-2q-20 -15 -35.5 -53t-15.5 -95v-270q0 -102 34 -144.5t116 -42.5q73 0 107 45.5t34 141.5v270q0 56 -15.5 94.5t-35.5 53.5v2h240v-2q-22 -15 -38 -52.5t-16 -95.5v-259q0 -152 -71 -227.5t-216 -75.5
q-135 0 -206 76zM199 777q31 29 72.5 87.5t46.5 83.5l2 1l79 -79q-33 -32 -71 -70.5t-55 -59.5zM344 772q31 30 72 87.5t47 83.5l2 1l83 -81q-27 -20 -68 -61t-62 -67z" />
    <glyph glyph-name="Uogonek" unicode="&#x172;" horiz-adv-x="744" 
d="M708 695v-2q-22 -15 -38 -52.5t-16 -95.5v-259q0 -200 -122 -267q-39 -28 -59 -61.5t-20 -68.5q0 -28 17.5 -45t44.5 -17q22 0 43 10l1 -2l-64 -97q-60 -3 -104 27.5t-44 85.5q0 35 18.5 70t52.5 65q-24 -3 -51 -3q-135 0 -206 76t-71 227v259q0 57 -16 95t-38 53v2h243
v-2q-20 -15 -35.5 -53t-15.5 -95v-270q0 -102 34 -144.5t116 -42.5q73 0 107 45.5t34 141.5v270q0 56 -15.5 94.5t-35.5 53.5v2h240z" />
    <glyph glyph-name="uogonek" unicode="&#x173;" horiz-adv-x="744" 
d="M708 695v-2q-22 -15 -38 -52.5t-16 -95.5v-259q0 -231 -165 -286q-48 -20 -73 -48.5t-25 -62.5q0 -28 17.5 -45t44.5 -17q22 0 43 10l1 -2l-64 -97q-60 -3 -104 27.5t-44 85.5q0 72 79 132q-134 1 -204 76.5t-70 226.5v259q0 57 -16 95t-38 53v2h243v-2
q-20 -15 -35.5 -53t-15.5 -95v-270q0 -102 34 -144.5t116 -42.5q73 0 107 45.5t34 141.5v270q0 56 -15.5 94.5t-35.5 53.5v2h240z" />
    <glyph glyph-name="Wcircumflex" unicode="&#x174;" horiz-adv-x="1052" 
d="M168 2q32 35 32 91q0 30 -9 63l-116 422q-24 91 -68 115v2h242v-2q-31 -26 -31 -82q0 -23 5 -42l57 -223q11 -43 16.5 -83t7.5 -98h4q23 95 70 191l107 219q35 74 49 126h6q10 -33 20 -60.5t29 -64.5l97 -190q34 -68 50.5 -116t28.5 -105h4q7 101 31 204l49 200
q6 23 6 44q0 52 -31 80l1 2h222v-2q-25 -14 -42 -46.5t-26 -69.5l-101 -421q-8 -35 -8 -60q0 -52 31 -94v-2h-234v2q12 20 12 50q0 37 -18 74l-73 156q-16 35 -29 77.5t-18 75.5h-4q-18 -73 -44 -130l-84 -179q-18 -40 -18 -75q0 -30 13 -49v-2h-236v2zM634 872
q39 -32 71 -50l-79 -94l-2 1q-6 17 -33.5 52t-56.5 65q-28 -29 -55.5 -64.5t-33.5 -52.5l-2 -1l-79 94q30 17 70 49.5t65 61.5h71q25 -29 64 -61z" />
    <glyph glyph-name="wcircumflex" unicode="&#x175;" horiz-adv-x="1052" 
d="M168 2q32 35 32 91q0 30 -9 63l-116 422q-24 91 -68 115v2h242v-2q-31 -26 -31 -82q0 -23 5 -42l57 -223q11 -43 16.5 -83t7.5 -98h4q23 95 70 191l107 219q35 74 49 126h6q10 -33 20 -60.5t29 -64.5l97 -190q34 -68 50.5 -116t28.5 -105h4q7 101 31 204l49 200
q6 23 6 44q0 52 -31 80l1 2h222v-2q-25 -14 -42 -46.5t-26 -69.5l-101 -421q-8 -35 -8 -60q0 -52 31 -94v-2h-234v2q12 20 12 50q0 37 -18 74l-73 156q-16 35 -29 77.5t-18 75.5h-4q-18 -73 -44 -130l-84 -179q-18 -40 -18 -75q0 -30 13 -49v-2h-236v2zM634 872
q39 -32 71 -50l-79 -94l-2 1q-6 17 -33.5 52t-56.5 65q-28 -29 -55.5 -64.5t-33.5 -52.5l-2 -1l-79 94q30 17 70 49.5t65 61.5h71q25 -29 64 -61z" />
    <glyph glyph-name="Ycircumflex" unicode="&#x176;" horiz-adv-x="643" 
d="M662 695v-2q-32 -24 -80 -102l-189 -312v-121q0 -61 17.5 -101.5t43.5 -54.5v-2h-259v2q24 14 42.5 55.5t18.5 100.5v116l-192 317q-46 75 -81 102v2h213v-2q-3 -9 -3 -20q0 -37 26 -82l77 -133q19 -31 31 -65h4q8 23 18.5 41.5t13.5 23.5l76 133q25 45 25 80q0 13 -3 22
v2h201zM422 872q39 -32 71 -50l-79 -94l-2 1q-6 17 -33.5 52t-56.5 65q-28 -29 -55.5 -64.5t-33.5 -52.5l-2 -1l-79 94q30 17 70 49.5t65 61.5h71q25 -29 64 -61z" />
    <glyph glyph-name="ycircumflex" unicode="&#x177;" horiz-adv-x="643" 
d="M662 695v-2q-32 -24 -80 -102l-189 -312v-121q0 -61 17.5 -101.5t43.5 -54.5v-2h-259v2q24 14 42.5 55.5t18.5 100.5v116l-192 317q-46 75 -81 102v2h213v-2q-3 -9 -3 -20q0 -37 26 -82l77 -133q19 -31 31 -65h4q8 23 18.5 41.5t13.5 23.5l76 133q25 45 25 80q0 13 -3 22
v2h201zM422 872q39 -32 71 -50l-79 -94l-2 1q-6 17 -33.5 52t-56.5 65q-28 -29 -55.5 -64.5t-33.5 -52.5l-2 -1l-79 94q30 17 70 49.5t65 61.5h71q25 -29 64 -61z" />
    <glyph glyph-name="Ydieresis" unicode="&#x178;" horiz-adv-x="643" 
d="M662 695v-2q-32 -24 -80 -102l-189 -312v-121q0 -61 17.5 -101.5t43.5 -54.5v-2h-259v2q24 14 42.5 55.5t18.5 100.5v116l-192 317q-46 75 -81 102v2h213v-2q-3 -9 -3 -20q0 -37 26 -82l77 -133q19 -31 31 -65h4q8 23 18.5 41.5t13.5 23.5l76 133q25 45 25 80q0 13 -3 22
v2h201zM204 775.5q-17 17.5 -17 41.5q0 25 17 42t42 17q24 0 40.5 -17t16.5 -42q0 -24 -16.5 -41.5t-40.5 -17.5q-25 0 -42 17.5zM360 775.5q-17 17.5 -17 41.5q0 25 17 42t42 17q24 0 40.5 -17t16.5 -42q0 -24 -16.5 -41.5t-40.5 -17.5q-25 0 -42 17.5z" />
    <glyph glyph-name="Zacute" unicode="&#x179;" horiz-adv-x="599" 
d="M575 190l-26 -198q-32 5 -55 6.5t-79 1.5h-405v2l341 594h-125q-60 0 -103 -16t-68 -52l-2 1l27 172q28 -4 63.5 -5t85.5 -1h329v-2l-341 -594h153q67 0 120 24.5t83 67.5zM229 779q34 32 75 90t46 84l2 1l89 -85q-28 -20 -69.5 -63t-61.5 -69z" />
    <glyph glyph-name="zacute" unicode="&#x17a;" horiz-adv-x="599" 
d="M575 190l-26 -198q-32 5 -55 6.5t-79 1.5h-405v2l341 594h-125q-60 0 -103 -16t-68 -52l-2 1l27 172q28 -4 63.5 -5t85.5 -1h329v-2l-341 -594h153q67 0 120 24.5t83 67.5zM229 779q34 32 75 90t46 84l2 1l89 -85q-28 -20 -69.5 -63t-61.5 -69z" />
    <glyph glyph-name="Zdotaccent" unicode="&#x17b;" horiz-adv-x="599" 
d="M575 190l-26 -198q-32 5 -55 6.5t-79 1.5h-405v2l341 594h-125q-60 0 -103 -16t-68 -52l-2 1l27 172q28 -4 63.5 -5t85.5 -1h329v-2l-341 -594h153q67 0 120 24.5t83 67.5zM257.5 769q-20.5 21 -20.5 50q0 30 20.5 51t50.5 21q29 0 49.5 -21t20.5 -51q0 -29 -20.5 -50
t-49.5 -21q-30 0 -50.5 21z" />
    <glyph glyph-name="zdotaccent" unicode="&#x17c;" horiz-adv-x="599" 
d="M575 190l-26 -198q-32 5 -55 6.5t-79 1.5h-405v2l341 594h-125q-60 0 -103 -16t-68 -52l-2 1l27 172q28 -4 63.5 -5t85.5 -1h329v-2l-341 -594h153q67 0 120 24.5t83 67.5zM257.5 769q-20.5 21 -20.5 50q0 30 20.5 51t50.5 21q29 0 49.5 -21t20.5 -51q0 -29 -20.5 -50
t-49.5 -21q-30 0 -50.5 21z" />
    <glyph glyph-name="Zcaron" unicode="&#x17d;" horiz-adv-x="599" 
d="M575 190l-26 -198q-32 5 -55 6.5t-79 1.5h-405v2l341 594h-125q-60 0 -103 -16t-68 -52l-2 1l27 172q28 -4 63.5 -5t85.5 -1h329v-2l-341 -594h153q67 0 120 24.5t83 67.5zM478 849q-30 -17 -70 -49.5t-65 -61.5h-71q-25 29 -65.5 62t-69.5 49l79 94l2 -1q6 -17 33.5 -52
t56.5 -65q30 31 57 66t32 51l2 1z" />
    <glyph glyph-name="zcaron" unicode="&#x17e;" horiz-adv-x="599" 
d="M575 190l-26 -198q-32 5 -55 6.5t-79 1.5h-405v2l341 594h-125q-60 0 -103 -16t-68 -52l-2 1l27 172q28 -4 63.5 -5t85.5 -1h329v-2l-341 -594h153q67 0 120 24.5t83 67.5zM478 849q-30 -17 -70 -49.5t-65 -61.5h-71q-25 29 -65.5 62t-69.5 49l79 94l2 -1q6 -17 33.5 -52
t56.5 -65q30 31 57 66t32 51l2 1z" />
    <glyph glyph-name="Aringacute" unicode="&#x1fa;" horiz-adv-x="676" 
d="M358.5 948q-46.5 -36 -71.5 -60l-74 53q38 26 86.5 78t57.5 77l2 1l76 -97q-30 -16 -76.5 -52zM643.5 65q27.5 -44 50.5 -63v-2h-226v2q15 12 15 46q0 33 -15 77l-8 24h-259l-9 -24q-16 -43 -16 -77t14 -46v-2h-210v2q24 20 51.5 64t46.5 98l142 412q10 28 10 46
q0 21 -12 37q-26 36 -26 81q0 39 19 71t52 50.5t73 18.5q39 0 71.5 -18.5t52 -50.5t19.5 -71q0 -42 -24 -77q-15 -20 -15 -44q0 -16 9 -43l147 -412q20 -55 47.5 -99zM299 778.5q-14 -13.5 -14 -38.5q0 -24 13.5 -37.5t37.5 -13.5q23 0 36 13.5t13 37.5q0 25 -13 38.5
t-36 13.5t-37 -13.5zM309 466.5q-13 -44.5 -38 -113.5l-38 -106h194l-36 102q-25 69 -38.5 115.5t-20.5 97.5h-4q-6 -51 -19 -95.5z" />
    <glyph glyph-name="aringacute" unicode="&#x1fb;" horiz-adv-x="676" 
d="M358.5 948q-46.5 -36 -71.5 -60l-74 53q38 26 86.5 78t57.5 77l2 1l76 -97q-30 -16 -76.5 -52zM643.5 65q27.5 -44 50.5 -63v-2h-226v2q15 12 15 46q0 33 -15 77l-8 24h-259l-9 -24q-16 -43 -16 -77t14 -46v-2h-210v2q24 20 51.5 64t46.5 98l142 412q10 28 10 46
q0 21 -12 37q-26 36 -26 81q0 39 19 71t52 50.5t73 18.5q39 0 71.5 -18.5t52 -50.5t19.5 -71q0 -42 -24 -77q-15 -20 -15 -44q0 -16 9 -43l147 -412q20 -55 47.5 -99zM299 778.5q-14 -13.5 -14 -38.5q0 -24 13.5 -37.5t37.5 -13.5q23 0 36 13.5t13 37.5q0 25 -13 38.5
t-36 13.5t-37 -13.5zM309 466.5q-13 -44.5 -38 -113.5l-38 -106h194l-36 102q-25 69 -38.5 115.5t-20.5 97.5h-4q-6 -51 -19 -95.5z" />
    <glyph glyph-name="AEacute" unicode="&#x1fc;" horiz-adv-x="863" 
d="M825 200l-28 -208q-49 8 -122 8h-304v2q19 15 27 45t8 78v24h-203l-11 -24q-17 -44 -17 -81q0 -32 12 -42v-2h-207v2q33 30 96 162l197 412q16 35 16 59q0 38 -32 58v2h424q71 0 106 8l17 -187l-2 -1q-18 37 -58 55.5t-99 18.5h-109v-168h53q64 0 93.5 1.5t62.5 5.5
l-29 -175h-2q-12 33 -39 48t-70 15h-69v-209h86q66 0 117.5 24t83.5 70zM406 247v318h-3q-4 -15 -29 -62q-2 -5 -4.5 -10.5t-5.5 -10.5l-112 -235h154zM408 779q34 32 75 90t46 84l2 1l89 -85q-28 -20 -69.5 -63t-61.5 -69z" />
    <glyph glyph-name="aeacute" unicode="&#x1fd;" horiz-adv-x="863" 
d="M825 200l-28 -208q-49 8 -122 8h-304v2q19 15 27 45t8 78v24h-203l-11 -24q-17 -44 -17 -81q0 -32 12 -42v-2h-207v2q33 30 96 162l197 412q16 35 16 59q0 38 -32 58v2h424q71 0 106 8l17 -187l-2 -1q-18 37 -58 55.5t-99 18.5h-109v-168h53q64 0 93.5 1.5t62.5 5.5
l-29 -175h-2q-12 33 -39 48t-70 15h-69v-209h86q66 0 117.5 24t83.5 70zM406 247v318h-3q-4 -15 -29 -62q-2 -5 -4.5 -10.5t-5.5 -10.5l-112 -235h154zM408 779q34 32 75 90t46 84l2 1l89 -85q-28 -20 -69.5 -63t-61.5 -69z" />
    <glyph glyph-name="Oslashacute" unicode="&#x1fe;" horiz-adv-x="816" 
d="M691 596q39 -46 60 -107.5t21 -133.5q0 -110 -47 -195t-131.5 -132t-193.5 -47t-190 47l-24 -28q-38 -45 -54 -83l-2 -1l-88 85l83 98q-40 47 -60.5 109t-20.5 133q0 112 44.5 196t128.5 130.5t198 46.5q105 0 190 -47l16 20q47 56 60 88l2 1l91 -81zM292 577
q-48 -32 -73.5 -90.5t-25.5 -135.5q0 -88 28 -148l311 368q-52 38 -127 38q-65 0 -113 -32zM519.5 118.5q48.5 31.5 76 90t27.5 136.5q0 87 -29 148l-312 -368q52 -38 128 -38q61 0 109.5 31.5zM332 779q34 32 75 90t46 84l2 1l89 -85q-28 -20 -69.5 -63t-61.5 -69z" />
    <glyph glyph-name="oslashacute" unicode="&#x1ff;" horiz-adv-x="816" 
d="M691 596q39 -46 60 -107.5t21 -133.5q0 -110 -47 -195t-131.5 -132t-193.5 -47t-190 47l-24 -28q-38 -45 -54 -83l-2 -1l-88 85l83 98q-40 47 -60.5 109t-20.5 133q0 112 44.5 196t128.5 130.5t198 46.5q105 0 190 -47l16 20q47 56 60 88l2 1l91 -81zM292 577
q-48 -32 -73.5 -90.5t-25.5 -135.5q0 -88 28 -148l311 368q-52 38 -127 38q-65 0 -113 -32zM519.5 118.5q48.5 31.5 76 90t27.5 136.5q0 87 -29 148l-312 -368q52 -38 128 -38q61 0 109.5 31.5zM332 779q34 32 75 90t46 84l2 1l89 -85q-28 -20 -69.5 -63t-61.5 -69z" />
    <glyph glyph-name="uni0218" unicode="&#x218;" horiz-adv-x="548" 
d="M148.5 -4.5q-51.5 10.5 -83.5 29.5l-17 168l2 1q42 -56 90.5 -80.5t108.5 -24.5q124 0 124 90q0 32 -17 54.5t-42.5 36.5t-69.5 32q-59 24 -95.5 46.5t-62.5 63.5t-26 106q0 51 28.5 94.5t82.5 69.5t129 26q76 0 157 -21l13 -164h-2q-30 46 -69.5 64t-88.5 18
q-115 0 -115 -77q0 -27 15.5 -46t39 -31.5t66.5 -30.5q61 -25 100 -49t67 -68t28 -114q0 -58 -28.5 -104t-85.5 -73t-138 -27q-59 0 -110.5 10.5zM155 -236q14 24 32 90.5t21 98.5l130 -9l1 -2q-35 -50 -62.5 -107.5t-38.5 -100.5z" />
    <glyph glyph-name="uni0219" unicode="&#x219;" horiz-adv-x="548" 
d="M148.5 -4.5q-51.5 10.5 -83.5 29.5l-17 168l2 1q42 -56 90.5 -80.5t108.5 -24.5q124 0 124 90q0 32 -17 54.5t-42.5 36.5t-69.5 32q-59 24 -95.5 46.5t-62.5 63.5t-26 106q0 51 28.5 94.5t82.5 69.5t129 26q76 0 157 -21l13 -164h-2q-30 46 -69.5 64t-88.5 18
q-115 0 -115 -77q0 -27 15.5 -46t39 -31.5t66.5 -30.5q61 -25 100 -49t67 -68t28 -114q0 -58 -28.5 -104t-85.5 -73t-138 -27q-59 0 -110.5 10.5zM155 -236q14 24 32 90.5t21 98.5l130 -9l1 -2q-35 -50 -62.5 -107.5t-38.5 -100.5z" />
    <glyph glyph-name="uni021A" unicode="&#x21a;" horiz-adv-x="592" 
d="M572 520l-2 -1q-18 32 -52.5 53t-77.5 21h-75v-435q0 -61 17.5 -101.5t43.5 -54.5v-2h-259v2q24 14 42.5 55.5t18.5 100.5v435h-76q-43 0 -77.5 -21t-52.5 -53l-2 1l17 183q61 -8 137 -8h244q76 0 137 8zM184 -221q14 24 32 90.5t21 98.5l130 -9l1 -2
q-35 -50 -62.5 -107.5t-38.5 -100.5z" />
    <glyph glyph-name="uni021B" unicode="&#x21b;" horiz-adv-x="592" 
d="M572 520l-2 -1q-18 32 -52.5 53t-77.5 21h-75v-435q0 -61 17.5 -101.5t43.5 -54.5v-2h-259v2q24 14 42.5 55.5t18.5 100.5v435h-76q-43 0 -77.5 -21t-52.5 -53l-2 1l17 183q61 -8 137 -8h244q76 0 137 8zM184 -221q14 24 32 90.5t21 98.5l130 -9l1 -2
q-35 -50 -62.5 -107.5t-38.5 -100.5z" />
    <glyph glyph-name="circumflex" unicode="&#x2c6;" 
d="M390 872q39 -32 71 -50l-79 -94l-2 1q-6 17 -33.5 52t-56.5 65q-28 -29 -55.5 -64.5t-33.5 -52.5l-2 -1l-79 94q30 17 70 49.5t65 61.5h71q25 -29 64 -61z" />
    <glyph glyph-name="caron" unicode="&#x2c7;" 
d="M465 829q-19 0 -38 -13l-93 -63h-86l-93 63q-19 13 -38 13l70 77l104 -85l104 85z" />
    <glyph glyph-name="breve" unicode="&#x2d8;" 
d="M220.5 780.5q-46.5 38.5 -58.5 103.5l102 34l1 -2q-3 -9 -3 -20q0 -26 20 -44.5t57 -18.5q38 0 58.5 19t20.5 46q0 9 -3 18l1 2l100 -33q-16 -66 -62 -104.5t-115 -38.5q-72 0 -118.5 38.5z" />
    <glyph glyph-name="dotaccent" unicode="&#x2d9;" 
d="M249.5 769q-20.5 21 -20.5 50q0 30 20.5 51t50.5 21q29 0 49.5 -21t20.5 -51q0 -29 -20.5 -50t-49.5 -21q-30 0 -50.5 21z" />
    <glyph glyph-name="ring" unicode="&#x2da;" 
d="M267 713q-33 18 -52 49.5t-19 70.5t19 71t52 50.5t73 18.5q39 0 71.5 -18.5t52 -50.5t19.5 -71q0 -38 -19.5 -69.5t-52 -50t-71.5 -18.5q-40 0 -73 18zM376 795.5q13 13.5 13 37.5q0 25 -13 38.5t-36 13.5q-24 0 -37.5 -13.5t-13.5 -38.5q0 -24 13.5 -37.5t37.5 -13.5
q23 0 36 13.5z" />
    <glyph glyph-name="ogonek" unicode="&#x2db;" 
d="M225 -234.5q-44 30.5 -44 85.5q0 45 30 85t88 73l90 2l7 -6q-109 -44 -109 -116q0 -28 17.5 -45t44.5 -17q22 0 43 10l1 -2l-64 -97q-60 -3 -104 27.5z" />
    <glyph glyph-name="tilde" unicode="&#x2dc;" 
d="M130 823q32 34 62 49t67 15q20 0 34.5 -5t33.5 -15q15 -8 27 -12.5t26 -4.5q21 0 36 11t20 27h2l53 -83q-30 -27 -58 -39t-62 -12q-21 0 -36 5.5t-35 15.5q-18 9 -29 13.5t-26 4.5q-39 0 -62 -45h-2z" />
    <glyph glyph-name="hungarumlaut" unicode="&#x2dd;" 
d="M213 777q31 29 72.5 87.5t46.5 83.5l2 1l79 -79q-33 -32 -71 -70.5t-55 -59.5zM358 772q31 30 72 87.5t47 83.5l2 1l83 -81q-27 -20 -68 -61t-62 -67z" />
    <glyph glyph-name="gravecomb" unicode="&#x300;" horiz-adv-x="0" 
d="M-319.5 806q-42.5 43 -69.5 63l88 85l2 -1q5 -25 48 -84t75 -90l-81 -42q-20 26 -62.5 69z" />
    <glyph glyph-name="acutecomb" unicode="&#x301;" horiz-adv-x="0" 
d="M-350 779q34 32 75 90t46 84l2 1l89 -85q-28 -20 -69.5 -63t-61.5 -69z" />
    <glyph glyph-name="uni0302" unicode="&#x302;" horiz-adv-x="0" 
d="M-210 872q39 -32 71 -50l-79 -94l-2 1q-6 17 -33.5 52t-56.5 65q-28 -29 -55.5 -64.5t-33.5 -52.5l-2 -1l-79 94q30 17 70 49.5t65 61.5h71q25 -29 64 -61z" />
    <glyph glyph-name="tildecomb" unicode="&#x303;" horiz-adv-x="0" 
d="M-470 823q32 34 62 49t67 15q20 0 34.5 -5t33.5 -15q15 -8 27 -12.5t26 -4.5q21 0 36 11t20 27h2l53 -83q-30 -27 -58 -39t-62 -12q-21 0 -36 5.5t-35 15.5q-18 9 -29 13.5t-26 4.5q-39 0 -62 -45h-2z" />
    <glyph glyph-name="uni0304" unicode="&#x304;" horiz-adv-x="0" 
d="M-417 763l16 103h230q49 0 68 12l2 -1l-15 -106l-235 -1q-43 0 -64 -8z" />
    <glyph glyph-name="uni0306" unicode="&#x306;" horiz-adv-x="0" 
d="M-379.5 780.5q-46.5 38.5 -58.5 103.5l102 34l1 -2q-3 -9 -3 -20q0 -26 20 -44.5t57 -18.5q38 0 58.5 19t20.5 46q0 9 -3 18l1 2l100 -33q-16 -66 -62 -104.5t-115 -38.5q-72 0 -118.5 38.5z" />
    <glyph glyph-name="uni0307" unicode="&#x307;" horiz-adv-x="0" 
d="M-350.5 769q-20.5 21 -20.5 50q0 30 20.5 51t50.5 21q29 0 49.5 -21t20.5 -51q0 -29 -20.5 -50t-49.5 -21q-30 0 -50.5 21z" />
    <glyph glyph-name="uni0308" unicode="&#x308;" horiz-adv-x="0" 
d="M-402 775.5q-17 17.5 -17 41.5q0 25 17 42t42 17q24 0 40.5 -17t16.5 -42q0 -24 -16.5 -41.5t-40.5 -17.5q-25 0 -42 17.5zM-246 775.5q-17 17.5 -17 41.5q0 25 17 42t42 17q24 0 40.5 -17t16.5 -42q0 -24 -16.5 -41.5t-40.5 -17.5q-25 0 -42 17.5z" />
    <glyph glyph-name="uni030A" unicode="&#x30a;" horiz-adv-x="0" 
d="M-333 713q-33 18 -52 49.5t-19 70.5t19 71t52 50.5t73 18.5q39 0 71.5 -18.5t52 -50.5t19.5 -71q0 -38 -19.5 -69.5t-52 -50t-71.5 -18.5q-40 0 -73 18zM-224 795.5q13 13.5 13 37.5q0 25 -13 38.5t-36 13.5q-24 0 -37.5 -13.5t-13.5 -38.5q0 -24 13.5 -37.5t37.5 -13.5
q23 0 36 13.5z" />
    <glyph glyph-name="uni030B" unicode="&#x30b;" horiz-adv-x="0" 
d="M-387 777q31 29 72.5 87.5t46.5 83.5l2 1l79 -79q-33 -32 -71 -70.5t-55 -59.5zM-242 772q31 30 72 87.5t47 83.5l2 1l83 -81q-27 -20 -68 -61t-62 -67z" />
    <glyph glyph-name="uni030C" unicode="&#x30c;" horiz-adv-x="0" 
d="M-139 849q-30 -17 -70 -49.5t-65 -61.5h-71q-25 29 -65.5 62t-69.5 49l79 94l2 -1q6 -17 33.5 -52t56.5 -65q30 31 57 66t32 51l2 1z" />
    <glyph glyph-name="uni0312" unicode="&#x312;" horiz-adv-x="0" 
d="M-383 783l-1 2q33 33 62.5 86.5t44.5 100.5l82 -32q-15 -27 -36.5 -90.5t-26.5 -95.5z" />
    <glyph glyph-name="uni0326" unicode="&#x326;" horiz-adv-x="0" 
d="M-321 -233q14 24 32 90.5t21 98.5l130 -9l1 -2q-35 -50 -62.5 -107.5t-38.5 -100.5z" />
    <glyph glyph-name="uni0327" unicode="&#x327;" horiz-adv-x="0" 
d="M-173.5 -67.5q32.5 -24.5 32.5 -75.5q0 -57 -41 -87t-96 -30q-23 0 -46.5 6t-41.5 17l-9 87l2 1q23 -20 42.5 -28.5t42.5 -8.5q27 0 42 11.5t15 30.5q0 21 -15 30t-47 9q-30 0 -50 -4l-2 2l32 153h71l-15 -84q51 -5 83.5 -29.5z" />
    <glyph glyph-name="uni0328" unicode="&#x328;" horiz-adv-x="0" 
d="M-375 -234.5q-44 30.5 -44 85.5q0 45 30 85t88 73l90 2l7 -6q-109 -44 -109 -116q0 -28 17.5 -45t44.5 -17q22 0 43 10l1 -2l-64 -97q-60 -3 -104 27.5z" />
    <glyph glyph-name="uni0335" unicode="&#x335;" horiz-adv-x="0" 
 />
    <glyph glyph-name="uni0337" unicode="&#x337;" horiz-adv-x="0" 
 />
    <glyph glyph-name="uni0338" unicode="&#x338;" horiz-adv-x="0" 
 />
    <glyph glyph-name="uni0401" unicode="&#x401;" 
d="M562 191l-28 -199q-28 5 -53.5 6.5t-68.5 1.5h-353v2q22 15 38 53t16 95v395q0 58 -16 95.5t-38 52.5v2h359q71 0 106 8l17 -179l-2 -1q-18 37 -58 55.5t-99 18.5h-132v-176h76q63 0 93 1.5t63 5.5l-29 -168h-2q-12 33 -39 48t-70 15h-92v-225h109q66 0 117.5 24t83.5 70
zM196 775.5q-17 17.5 -17 41.5q0 25 17 42t42 17q24 0 40.5 -17t16.5 -42q0 -24 -16.5 -41.5t-40.5 -17.5q-25 0 -42 17.5zM352 775.5q-17 17.5 -17 41.5q0 25 17 42t42 17q24 0 40.5 -17t16.5 -42q0 -24 -16.5 -41.5t-40.5 -17.5q-25 0 -42 17.5z" />
    <glyph glyph-name="uni0402" unicode="&#x402;" horiz-adv-x="733" 
d="M629.5 383q70.5 -59 70.5 -167q0 -95 -48 -155t-146 -69l-41 116l2 1q17 -3 30 -3q42 0 57.5 29.5t15.5 77.5q0 132 -148 132q-30 0 -57 -6v-181q0 -124 29 -156v-2h-220v2q24 15 39 55.5t15 100.5v435h-76q-43 0 -77.5 -21t-52.5 -53l-2 1l17 183q61 -8 137 -8h244
q76 0 137 8l15 -174l-2 -1q-18 26 -52 45.5t-76 19.5h-75v-158q31 7 67 7q127 0 197.5 -59z" />
    <glyph glyph-name="uni0403" unicode="&#x403;" horiz-adv-x="525" 
d="M59 2q22 14 39 56.5t17 96.5v394q0 55 -16 92.5t-38 51.5v2h294q109 0 147 7l17 -179l-2 -1q-18 37 -58 55.5t-99 18.5h-108v-445q0 -54 17.5 -95t43.5 -54v-2h-254v2zM219 779q34 32 75 90t46 84l2 1l89 -85q-28 -20 -69.5 -63t-61.5 -69z" />
    <glyph glyph-name="uni0404" unicode="&#x404;" horiz-adv-x="666" 
d="M633 202l-24 -179q-108 -38 -213 -38q-106 0 -186 46.5t-123 128t-43 183.5q0 111 46.5 194t131.5 127.5t198 44.5q91 0 176 -25l16 -173l-2 -1q-30 46 -80.5 70t-110.5 24q-92 0 -150 -51.5t-72 -142.5h189q53 0 87.5 1t67.5 5l-27 -158h-2q-27 54 -110 54h-207
q9 -101 64 -161t147 -60q77 0 130 28.5t95 83.5z" />
    <glyph glyph-name="uni0405" unicode="&#x405;" horiz-adv-x="548" 
d="M148.5 -4.5q-51.5 10.5 -83.5 29.5l-17 168l2 1q42 -56 90.5 -80.5t108.5 -24.5q124 0 124 90q0 32 -17 54.5t-42.5 36.5t-69.5 32q-59 24 -95.5 46.5t-62.5 63.5t-26 106q0 51 28.5 94.5t82.5 69.5t129 26q76 0 157 -21l13 -164h-2q-30 46 -69.5 64t-88.5 18
q-115 0 -115 -77q0 -27 15.5 -46t39 -31.5t66.5 -30.5q61 -25 100 -49t67 -68t28 -114q0 -58 -28.5 -104t-85.5 -73t-138 -27q-59 0 -110.5 10.5z" />
    <glyph glyph-name="uni0406" unicode="&#x406;" horiz-adv-x="364" 
d="M59 2q22 15 38 53t16 95v395q0 58 -16 95.5t-38 52.5v2h246v-2q-22 -15 -38 -53t-16 -95v-395q0 -58 16 -95.5t38 -52.5v-2h-246v2z" />
    <glyph glyph-name="uni0407" unicode="&#x407;" horiz-adv-x="364" 
d="M59 2q22 15 38 53t16 95v395q0 58 -16 95.5t-38 52.5v2h246v-2q-22 -15 -38 -53t-16 -95v-395q0 -58 16 -95.5t38 -52.5v-2h-246v2zM63 775.5q-17 17.5 -17 41.5q0 25 17 42t42 17q24 0 40.5 -17t16.5 -42q0 -24 -16.5 -41.5t-40.5 -17.5q-25 0 -42 17.5zM219 775.5
q-17 17.5 -17 41.5q0 25 17 42t42 17q24 0 40.5 -17t16.5 -42q0 -24 -16.5 -41.5t-40.5 -17.5q-25 0 -42 17.5z" />
    <glyph glyph-name="uni0408" unicode="&#x408;" horiz-adv-x="449" 
d="M16 -7l-10 155h2q11 -20 36 -40.5t66 -20.5q56 0 84 28.5t28 83.5v345q0 58 -16 96t-38 53v2h245v-2q-22 -15 -38 -53t-16 -95v-310q0 -133 -58 -195t-185 -62q-43 0 -100 15z" />
    <glyph glyph-name="uni0409" unicode="&#x409;" horiz-adv-x="908" 
d="M810.5 399.5q68.5 -57.5 68.5 -161.5q0 -76 -32 -129.5t-86.5 -81t-121.5 -27.5h-233v565h-3q-4 -15 -29 -62q-2 -5 -4.5 -10.5t-5.5 -10.5l-161 -357q-19 -42 -19 -77q0 -32 14 -46v-2h-207v2q19 18 44.5 61t51.5 101l186 412q15 33 15 59q0 39 -31 58v2h336v-2
q-22 -15 -38 -53t-16 -95v-88h91q112 0 180.5 -57.5zM736 230q0 65 -34.5 96.5t-107.5 31.5h-55v-258h55q142 0 142 130z" />
    <glyph glyph-name="uni040A" unicode="&#x40a;" horiz-adv-x="993" 
d="M896 377.5q68 -53.5 68 -152.5q0 -68 -29.5 -119t-83.5 -78.5t-127 -27.5h-289v2q20 15 35.5 52.5t15.5 91.5v185h-236v-181q0 -57 15 -95t36 -53v-2h-242v2q22 15 38 53t16 95v395q0 58 -16 95.5t-38 52.5v2h242v-2q-20 -15 -35.5 -53.5t-15.5 -94.5v-114h236v114
q0 57 -15 95t-36 53v2h242v-2q-22 -15 -38 -53t-16 -95v-114h92q113 0 181 -53.5zM786 129q35 29 35 88q0 57 -36.5 85.5t-105.5 28.5h-56v-231h56q72 0 107 29z" />
    <glyph glyph-name="uni040B" unicode="&#x40b;" horiz-adv-x="746" 
d="M694 53.5q14 -37.5 34 -51.5v-2h-226v2q18 13 29.5 50.5t11.5 93.5v68q0 57 -28.5 88t-80.5 31q-35 0 -69 -9v-166q0 -124 31 -156v-2h-222v2q24 15 39 55.5t15 100.5v435h-76q-43 0 -77.5 -21t-52.5 -53l-2 1l17 183q61 -8 137 -8h244q76 0 137 8l15 -174l-2 -1
q-18 26 -52 45.5t-76 19.5h-75v-170q39 9 79 9q113 0 174.5 -54t61.5 -156v-76q0 -55 14 -92.5z" />
    <glyph glyph-name="uni040C" unicode="&#x40c;" horiz-adv-x="680" 
d="M264.5 54.5q14.5 -37.5 34.5 -52.5v-2h-240v2q22 15 38 53t16 95v399q0 55 -16 92.5t-38 51.5v2h240v-2q-20 -15 -34.5 -53t-14.5 -95v-396q0 -57 14.5 -94.5zM652.5 53.5q24.5 -21.5 60.5 -36.5v-2l-201 -34q-4 17 -17.5 43t-31.5 52l-202 300l169 239q35 50 33 80h208
v-2q-29 -14 -60 -44t-58 -67l-141 -191l190 -278q26 -38 50.5 -59.5zM277 779q34 32 75 90t46 84l2 1l89 -85q-28 -20 -69.5 -63t-61.5 -69z" />
    <glyph glyph-name="uni040D" unicode="&#x40d;" horiz-adv-x="795" 
d="M62 2q20 15 35.5 53.5t15.5 94.5v395q0 58 -16 95.5t-38 52.5v2h244v-2q-20 -15 -36 -53.5t-16 -94.5v-176q0 -88 -22 -210h4q33 94 97 201l144 239q23 38 31 58.5t10 37.5h221v-2q-12 -6 -26 -28.5t-23.5 -53.5t-9.5 -61v-400q0 -58 16 -95.5t38 -52.5v-2h-246v2
q22 15 38 53t16 95v180q0 100 28 222h-4q-40 -114 -101 -213l-151 -244q-32 -52 -50 -95h-199v2zM349.5 806q-42.5 43 -69.5 63l88 85l2 -1q5 -25 48 -84t75 -90l-81 -42q-20 26 -62.5 69z" />
    <glyph glyph-name="uni040E" unicode="&#x40e;" horiz-adv-x="655" 
d="M652 695v-2q-36 -27 -60.5 -63t-42.5 -85l-141 -379q-23 -63 -23 -99q0 -38 24 -65v-2h-238v2q60 60 97 158l38 100h-93l-131 295q-24 53 -45 85.5t-47 52.5v2h234v-2q-16 -32 -16 -58q0 -32 21 -80l100 -234l89 234q21 56 21 94q0 22 -6 46h219zM210.5 780.5
q-46.5 38.5 -58.5 103.5l102 34l1 -2q-2 -10 -2 -16q0 -29 20 -51t56 -22q37 0 57.5 22t20.5 51q0 6 -2 16l1 2l100 -33q-16 -66 -62 -104.5t-115 -38.5q-72 0 -118.5 38.5z" />
    <glyph glyph-name="uni040F" unicode="&#x40f;" horiz-adv-x="754" 
d="M658 640q-16 -38 -16 -95v-395q0 -58 12 -96.5t32 -51.5v-2h-251q0 -39 5.5 -66t21.5 -56l-1 -2h-167l-1 2q16 29 21.5 56t5.5 66h-252v2q20 13 32.5 51.5t12.5 96.5v395q0 57 -16 95t-37 53v2h245v-2q-22 -15 -38.5 -53t-16.5 -95v-445h255v445q0 58 -16 95.5t-38 52.5
v2h245v-2q-22 -15 -38 -53z" />
    <glyph glyph-name="uni0410" unicode="&#x410;" horiz-adv-x="676" 
d="M643 65.5q28 -44.5 51 -63.5v-2h-226v2q16 12 16 46q0 32 -16 77l-9 24h-258l-9 -24q-16 -41 -16 -76t14 -47v-2h-210v2q23 20 50.5 64t46.5 98l143 412q9 27 9 49q0 23 -8 41t-19 27v2h265v-2q-11 -10 -19 -27.5t-8 -40.5q0 -22 9 -49l147 -412q19 -54 47 -98.5z
M308 465.5q-13 -45.5 -37 -112.5l-37 -106h192l-37 106q-25 72 -38 115t-20 94h-4q-6 -51 -19 -96.5z" />
    <glyph glyph-name="uni0411" unicode="&#x411;" horiz-adv-x="636" 
d="M536 370.5q65 -54.5 65 -146.5q0 -103 -65 -163.5t-186 -60.5h-291v2q22 15 38 53t16 95v395q0 58 -16 95.5t-38 52.5v2h328q107 0 145 7l16 -178l-2 -1q-17 36 -57 55t-99 19h-140v-172h100q121 0 186 -54.5zM427.5 130.5q29.5 30.5 29.5 87.5q0 54 -29.5 82.5
t-89.5 28.5l-88 -1v-230l88 1q60 1 89.5 31.5z" />
    <glyph glyph-name="uni0412" unicode="&#x412;" horiz-adv-x="642" 
d="M519.5 341q34.5 -24 55 -60t20.5 -76q0 -96 -65 -150.5t-169 -54.5h-304v2q24 18 41.5 55.5t17.5 98.5v384q0 58 -16.5 96.5t-42.5 56.5v2h276q113 0 169.5 -43t56.5 -132q0 -37 -16.5 -69t-43 -52.5t-55.5 -25.5v-3q41 -5 75.5 -29zM253 597v-180h72q44 0 68.5 24.5
t24.5 71.5q0 42 -24 63t-69 21h-72zM424 128.5q28 30.5 28 81.5t-28 80.5t-83 29.5h-88v-222h88q55 0 83 30.5z" />
    <glyph glyph-name="uni0413" unicode="&#x413;" horiz-adv-x="525" 
d="M59 2q22 14 39 56.5t17 96.5v394q0 55 -16 92.5t-38 51.5v2h294q109 0 147 7l17 -179l-2 -1q-18 37 -58 55.5t-99 18.5h-108v-445q0 -54 17.5 -95t43.5 -54v-2h-254v2z" />
    <glyph glyph-name="uni0414" unicode="&#x414;" horiz-adv-x="687" 
d="M717 103l-51 -205h-2q-10 47 -49 74.5t-95 27.5h-353q-56 0 -95.5 -28t-48.5 -74h-2l-51 205q31 -2 91 -4l156 455q14 39 14 73q0 44 -24 66v2h274v-2q-26 -23 -26 -68q0 -30 11 -60l164 -466q58 2 87 4zM197 99h286l-85 250q-24 70 -36.5 116t-19.5 102h-4
q-9 -56 -21.5 -100t-36.5 -118z" />
    <glyph glyph-name="uni0415" unicode="&#x415;" 
d="M562 191l-28 -199q-28 5 -53.5 6.5t-68.5 1.5h-353v2q22 15 38 53t16 95v395q0 58 -16 95.5t-38 52.5v2h359q71 0 106 8l17 -179l-2 -1q-18 37 -58 55.5t-99 18.5h-132v-176h76q63 0 93 1.5t63 5.5l-29 -168h-2q-12 33 -39 48t-70 15h-92v-225h109q66 0 117.5 24t83.5 70
z" />
    <glyph glyph-name="uni0416" unicode="&#x416;" horiz-adv-x="982" 
d="M218 88q-30 -43 -30 -74q0 -6 2 -14h-218v2q33 15 57 39.5t57 71.5l181 256l-135 213q-22 36 -54 66t-63 45v2h224v-1q-1 -14 7 -32t26 -47l146 -239zM577 54.5q16 -37.5 38 -52.5v-2h-240v2q22 15 38 53t16 95v399q0 55 -16 92.5t-38 51.5v2h240v-2q-22 -15 -38 -53
t-16 -95v-396q0 -57 16 -94.5zM954 53.5q25 -21.5 61 -36.5v-2l-207 -35q-8 41 -43 96l-193 300l159 239q18 28 26 46.5t7 32.5v1h210v-2q-31 -14 -63 -45t-56 -66l-132 -195l181 -274q25 -38 50 -59.5z" />
    <glyph glyph-name="uni0417" unicode="&#x417;" horiz-adv-x="537" 
d="M126.5 -6.5q-46.5 9.5 -74.5 25.5l-14 156l2 1q29 -48 75 -68.5t108 -20.5t95.5 31.5t33.5 87.5q0 54 -32 87t-88 33q-37 0 -62.5 -5.5t-55.5 -21.5l-2 1l19 130q27 -4 85 -4q57 0 85 27t28 71q0 39 -27 61.5t-79 22.5q-53 0 -97 -20.5t-73 -57.5l-2 1l23 150
q36 13 79 21.5t80 8.5q111 0 173 -47t62 -130q0 -51 -23.5 -90.5t-64.5 -63.5v-2q51 -21 82.5 -68.5t31.5 -111.5q0 -62 -30.5 -110.5t-90.5 -76t-147 -27.5q-53 0 -99.5 9.5z" />
    <glyph glyph-name="uni0418" unicode="&#x418;" horiz-adv-x="795" 
d="M62 2q20 15 35.5 53.5t15.5 94.5v395q0 58 -16 95.5t-38 52.5v2h244v-2q-20 -15 -36 -53.5t-16 -94.5v-176q0 -88 -22 -210h4q33 94 97 201l144 239q23 38 31 58.5t10 37.5h221v-2q-12 -6 -26 -28.5t-23.5 -53.5t-9.5 -61v-400q0 -58 16 -95.5t38 -52.5v-2h-246v2
q22 15 38 53t16 95v180q0 100 28 222h-4q-40 -114 -101 -213l-151 -244q-32 -52 -50 -95h-199v2z" />
    <glyph glyph-name="uni0419" unicode="&#x419;" horiz-adv-x="795" 
d="M62 2q20 15 35.5 53.5t15.5 94.5v395q0 58 -16 95.5t-38 52.5v2h244v-2q-20 -15 -36 -53.5t-16 -94.5v-176q0 -88 -22 -210h4q33 94 97 201l144 239q23 38 31 58.5t10 37.5h221v-2q-12 -6 -26 -28.5t-23.5 -53.5t-9.5 -61v-400q0 -58 16 -95.5t38 -52.5v-2h-246v2
q22 15 38 53t16 95v180q0 100 28 222h-4q-40 -114 -101 -213l-151 -244q-32 -52 -50 -95h-199v2zM279.5 780.5q-46.5 38.5 -58.5 103.5l102 34l1 -2q-2 -10 -2 -16q0 -29 20 -51t56 -22q37 0 57.5 22t20.5 51q0 6 -2 16l1 2l100 -33q-16 -66 -62 -104.5t-115 -38.5
q-72 0 -118.5 38.5z" />
    <glyph glyph-name="uni041A" unicode="&#x41a;" horiz-adv-x="680" 
d="M264.5 54.5q14.5 -37.5 34.5 -52.5v-2h-240v2q22 15 38 53t16 95v399q0 55 -16 92.5t-38 51.5v2h240v-2q-20 -15 -34.5 -53t-14.5 -95v-396q0 -57 14.5 -94.5zM652.5 53.5q24.5 -21.5 60.5 -36.5v-2l-201 -34q-4 17 -17.5 43t-31.5 52l-202 300l169 239q35 50 33 80h208
v-2q-29 -14 -60 -44t-58 -67l-141 -191l190 -278q26 -38 50.5 -59.5z" />
    <glyph glyph-name="uni041B" unicode="&#x41b;" horiz-adv-x="663" 
d="M-20 2q24 21 52 64.5t46 97.5l130 395q11 35 11 60q0 24 -7.5 43t-20.5 31v2h273v-2q-25 -20 -25 -66q0 -28 12 -64l132 -399q18 -54 46 -97.5t52 -64.5v-2h-231v2q13 13 13 43q0 29 -15 80l-69 224q-20 65 -32.5 112.5t-19.5 94.5h-4q-6 -47 -18 -91.5t-33 -115.5
l-69 -224q-15 -51 -15 -80q0 -32 13 -43v-2h-221v2z" />
    <glyph glyph-name="uni041C" unicode="&#x41c;" horiz-adv-x="958" 
d="M32 2q26 29 41 62.5t19 82.5l26 388l1 19q0 44 -13.5 83t-41.5 56l1 2h229q-7 -8 -7 -24q0 -27 23 -67l99 -170q50 -86 62 -165h4q10 41 26.5 75.5t47.5 89.5l98 173q22 40 22 65q0 15 -7 23h231l1 -2q-31 -17 -46 -64.5t-12 -93.5l31 -388q3 -39 18.5 -79.5t40.5 -65.5
l-1 -2h-229l-1 2q14 12 24 40t10 64q0 13 -1 20l-16 207q-2 34 -2 54q0 55 8 118h-4q-15 -48 -33 -86.5t-44 -83.5l-111 -188q-42 -70 -47 -121h-8q-7 52 -50 120l-119 190q-25 40 -41.5 79t-30.5 90h-4q7 -70 7 -125q0 -33 -1 -47l-11 -207q-2 -44 7.5 -77t25.5 -47l-1 -2
h-220z" />
    <glyph glyph-name="uni041D" unicode="&#x41d;" horiz-adv-x="766" 
d="M669 640q-16 -38 -16 -95v-399q0 -55 16 -92.5t38 -51.5v-2h-242v2q20 15 35.5 52.5t15.5 91.5v175h-266v-171q0 -57 15 -95t36 -53v-2h-242v2q22 15 38 53t16 95v395q0 58 -16 95.5t-38 52.5v2h242v-2q-20 -15 -35.5 -53.5t-15.5 -94.5v-124h266v124q0 57 -15 95t-36 53
v2h242v-2q-22 -15 -38 -53z" />
    <glyph glyph-name="uni041E" unicode="&#x41e;" horiz-adv-x="816" 
d="M210 27q-81 47 -123.5 129t-42.5 185q0 112 44.5 196.5t128.5 131t198 46.5q106 0 187 -45t125.5 -127t44.5 -188q0 -110 -46.5 -195.5t-131 -132.5t-194.5 -47q-109 0 -190 47zM519.5 116q48.5 32 76 91.5t27.5 137.5q0 126 -58 196t-160 70q-65 0 -113 -32.5t-73.5 -91
t-25.5 -136.5q0 -125 56 -196t161 -71q61 0 109.5 32z" />
    <glyph glyph-name="uni041F" unicode="&#x41f;" horiz-adv-x="754" 
d="M59 2q22 15 38 53t16 95v395q0 58 -12 96.5t-32 51.5v2h618v-2q-20 -13 -32.5 -51.5t-12.5 -96.5v-395q0 -57 16 -95t37 -53v-2h-245v2q22 15 38.5 53t16.5 95v445h-255v-445q0 -58 16 -95.5t38 -52.5v-2h-245v2z" />
    <glyph glyph-name="uni0420" unicode="&#x420;" horiz-adv-x="614" 
d="M518 636q66 -59 66 -167q0 -120 -65 -180t-187 -60h-82v-83q0 -55 16 -92.5t38 -51.5v-2h-245v2q22 15 38 53t16 95v399q0 55 -16 92.5t-38 51.5v2h273q120 0 186 -59zM442 462q0 69 -32.5 101.5t-100.5 32.5h-59v-267l59 -1q133 -1 133 134z" />
    <glyph glyph-name="uni0421" unicode="&#x421;" horiz-adv-x="657" 
d="M210 31.5q-80 46.5 -123 128t-43 183.5q0 111 46.5 194t131.5 127.5t198 44.5q91 0 176 -25l16 -173l-2 -1q-30 46 -80.5 70t-110.5 24q-105 0 -165.5 -67.5t-60.5 -183.5q0 -118 55.5 -190t157.5 -72q77 0 130 28.5t95 83.5l2 -1l-24 -179q-108 -38 -213 -38
q-106 0 -186 46.5z" />
    <glyph glyph-name="uni0422" unicode="&#x422;" horiz-adv-x="592" 
d="M572 520l-2 -1q-18 32 -52.5 53t-77.5 21h-75v-435q0 -61 17.5 -101.5t43.5 -54.5v-2h-259v2q24 14 42.5 55.5t18.5 100.5v435h-76q-43 0 -77.5 -21t-52.5 -53l-2 1l17 183q61 -8 137 -8h244q76 0 137 8z" />
    <glyph glyph-name="uni0423" unicode="&#x423;" horiz-adv-x="655" 
d="M652 695v-2q-36 -27 -60.5 -63t-42.5 -85l-141 -379q-23 -63 -23 -99q0 -38 24 -65v-2h-238v2q60 60 97 158l38 100h-93l-131 295q-24 53 -45 85.5t-47 52.5v2h234v-2q-16 -32 -16 -58q0 -32 21 -80l100 -234l89 234q21 56 21 94q0 22 -6 46h219z" />
    <glyph glyph-name="uni0424" unicode="&#x424;" horiz-adv-x="909" 
d="M824.5 177q-43.5 -80 -121.5 -127t-179 -51q3 -46 18.5 -77t34.5 -44v-2h-245v2q19 13 34.5 45t18.5 78q-106 4 -183.5 46.5t-119 117.5t-41.5 175q0 96 43 174.5t121 125.5t178 52q-6 40 -20 66.5t-31 38.5v2h245v-2q-17 -12 -31 -38.5t-20 -66.5q103 -5 180.5 -49.5
t119.5 -119t42 -167.5q0 -99 -43.5 -179zM215 226.5q25 -54.5 70 -86.5t103 -37v487q-95 -6 -146.5 -70.5t-51.5 -169.5q0 -69 25 -123.5zM625 136.5q45 31.5 69.5 86t24.5 123.5q0 67 -24.5 120.5t-69.5 86.5t-104 37v-488q59 3 104 34.5z" />
    <glyph glyph-name="uni0425" unicode="&#x425;" horiz-adv-x="637" 
d="M617 73.5q37 -36.5 67 -56.5v-2l-209 -37q0 20 -15.5 51.5t-47.5 81.5l-102 158l-110 -179q-20 -33 -20 -57q0 -20 14 -31v-2h-236v2q26 12 59.5 47t64.5 82l155 239l-158 236q-21 31 -41 50.5t-49 36.5v2h233v-2q-2 -12 -2 -17q0 -17 7 -35t22 -43l76 -127l71 122
q15 27 22 43t7 30t-7 27v2h220v-2q-24 -9 -54 -40t-61 -81l-123 -202l147 -212q33 -48 70 -84.5z" />
    <glyph glyph-name="uni0426" unicode="&#x426;" horiz-adv-x="765" 
d="M757 107l-52 -219h-2q-20 53 -56.5 82.5t-97.5 29.5h-490v2q22 15 38 53t16 95v395q0 58 -16 95.5t-38 52.5v2h242v-2q-20 -15 -35.5 -53.5t-15.5 -94.5v-445l255 -1v446q0 57 -15.5 95t-35.5 53v2h242v-2q-22 -15 -38 -53t-16 -95v-446q43 2 115 8z" />
    <glyph glyph-name="uni0427" unicode="&#x427;" horiz-adv-x="689" 
d="M592 640q-16 -38 -16 -95v-395q0 -58 16 -95.5t38 -52.5v-2h-245v2q22 15 38 53t16 95v103q-45 -8 -98 -8q-142 0 -202.5 66.5t-60.5 194.5v39q0 57 -15.5 95t-37.5 53v2h236v-2q-20 -14 -33 -52t-13 -96v-54q0 -73 40 -109t125 -36q31 0 59 5v194q0 58 -13 96.5
t-33 51.5v2h237v-2q-22 -15 -38 -53z" />
    <glyph glyph-name="uni0428" unicode="&#x428;" horiz-adv-x="1085" 
d="M988 640.5q-16 -37.5 -16 -95.5v-395q0 -57 16 -95t38 -53v-2h-967v2q22 15 38 53t16 95v395q0 58 -16 95.5t-38 52.5v2h239v-2q-20 -15 -35.5 -53.5t-15.5 -94.5v-446h229v446q0 56 -15.5 94.5t-35.5 53.5v2h235v-2q-20 -15 -35.5 -53t-15.5 -95v-446h229v446
q0 56 -15.5 94.5t-35.5 53.5v2h239v-2q-22 -15 -38 -52.5z" />
    <glyph glyph-name="uni0429" unicode="&#x429;" horiz-adv-x="1095" 
d="M1087 106l-52 -218h-2q-20 53 -56.5 82.5t-97.5 29.5h-820v2q22 15 38 53t16 95v395q0 58 -16 95.5t-38 52.5v2h239v-2q-20 -15 -35.5 -53.5t-15.5 -94.5v-446h229v446q0 56 -15.5 94.5t-35.5 53.5v2h235v-2q-20 -15 -35.5 -53t-15.5 -95v-446h229v446q0 56 -15.5 94.5
t-35.5 53.5v2h239v-2q-22 -15 -38 -52.5t-16 -95.5v-446q65 2 115 7z" />
    <glyph glyph-name="uni042A" unicode="&#x42a;" horiz-adv-x="657" 
d="M564.5 390.5q68.5 -56.5 68.5 -158.5q0 -114 -68 -173t-192 -59h-273v2q22 14 38 52.5t16 95.5v438q-51 -8 -90 -34.5t-69 -75.5l-2 1l43 223q60 -7 171 -7h138v-2q-22 -15 -38 -53t-16 -95v-98h82q123 0 191.5 -56.5zM456 129q34 29 34 94t-34 95t-107 30h-58v-248h58
q73 0 107 29z" />
    <glyph glyph-name="uni042B" unicode="&#x42b;" horiz-adv-x="937" 
d="M632 2q22 15 38 53t16 95v395q0 58 -16 95.5t-38 52.5v2h246v-2q-22 -15 -38 -53t-16 -95v-395q0 -58 16 -95.5t38 -52.5v-2h-246v2zM524.5 399.5q68.5 -57.5 68.5 -161.5q0 -76 -32 -129.5t-86.5 -81t-121.5 -27.5h-294v2q22 15 38 53t16 95v399q0 55 -16 92.5t-38 51.5
v2h245v-2q-22 -15 -38 -53t-16 -95v-88h94q112 0 180.5 -57.5zM450 230q0 65 -34.5 96.5t-107.5 31.5h-58v-258h58q142 0 142 130z" />
    <glyph glyph-name="uni042C" unicode="&#x42c;" horiz-adv-x="622" 
d="M524.5 399.5q68.5 -57.5 68.5 -161.5q0 -76 -32 -129.5t-86.5 -81t-121.5 -27.5h-294v2q22 15 38 53t16 95v399q0 55 -16 92.5t-38 51.5v2h245v-2q-22 -15 -38 -53t-16 -95v-88h94q112 0 180.5 -57.5zM450 230q0 65 -34.5 96.5t-107.5 31.5h-58v-258h58q142 0 142 130z
" />
    <glyph glyph-name="uni042D" unicode="&#x42d;" horiz-adv-x="666" 
d="M447 667q81 -42 128 -122t47 -189q0 -110 -47 -194t-131 -130.5t-193 -46.5q-47 0 -98 10.5t-92 27.5l-24 171l2 1q35 -52 91 -78t123 -26q105 0 160 63.5t61 166.5h-219q-50 0 -78 -9.5t-53 -34.5l-2 1l23 146q45 -5 101 -5h223q-16 90 -72.5 137.5t-139.5 47.5
q-67 0 -117.5 -21.5t-89.5 -69.5l-2 1l29 167q94 28 189 28q100 0 181 -42z" />
    <glyph glyph-name="uni042E" unicode="&#x42e;" horiz-adv-x="1116" 
d="M902 669.5q81 -45.5 125.5 -127t44.5 -187.5q0 -110 -46.5 -195t-131 -132.5t-194.5 -47.5q-103 0 -180 43t-120.5 119t-49.5 172h-100v-164q0 -58 15 -96t36 -52v-2h-242v2q22 15 38 53t16 95v395q0 58 -16 95.5t-38 52.5v2h242v-2q-21 -15 -36 -53t-15 -95v-132h104
q14 92 61 160t124 105t177 37q105 0 186 -45.5zM821 115.5q48 31.5 75.5 91t27.5 138.5q0 126 -58 196t-160 70q-65 0 -113 -32.5t-73.5 -91t-25.5 -136.5q0 -125 56 -196t161 -71q62 0 110 31.5z" />
    <glyph glyph-name="uni042F" unicode="&#x42f;" horiz-adv-x="636" 
d="M539 640q-16 -38 -16 -95v-395q0 -58 16 -95.5t38 -52.5v-2h-239v2q19 15 33.5 53.5t14.5 94.5v446l-76 1q-65 1 -99 -30t-34 -95q0 -55 35 -86t98 -31h54l-148 -264q-33 -59 -48 -112l-190 37v2q29 8 60.5 38.5t56.5 73.5l86 150q-67 21 -105 68.5t-38 114.5
q0 114 64.5 173t190.5 59h284v-2q-22 -15 -38 -53z" />
    <glyph glyph-name="uni0430" unicode="&#x430;" horiz-adv-x="676" 
d="M643 65.5q28 -44.5 51 -63.5v-2h-226v2q16 12 16 46q0 32 -16 77l-9 24h-258l-9 -24q-16 -41 -16 -76t14 -47v-2h-210v2q23 20 50.5 64t46.5 98l143 412q9 27 9 49q0 23 -8 41t-19 27v2h265v-2q-11 -10 -19 -27.5t-8 -40.5q0 -22 9 -49l147 -412q19 -54 47 -98.5z
M308 465.5q-13 -45.5 -37 -112.5l-37 -106h192l-37 106q-25 72 -38 115t-20 94h-4q-6 -51 -19 -96.5z" />
    <glyph glyph-name="uni0431" unicode="&#x431;" horiz-adv-x="636" 
d="M536 370.5q65 -54.5 65 -146.5q0 -103 -65 -163.5t-186 -60.5h-291v2q22 15 38 53t16 95v395q0 58 -16 95.5t-38 52.5v2h328q107 0 145 7l16 -178l-2 -1q-17 36 -57 55t-99 19h-140v-172h100q121 0 186 -54.5zM427.5 130.5q29.5 30.5 29.5 87.5q0 54 -29.5 82.5
t-89.5 28.5l-88 -1v-230l88 1q60 1 89.5 31.5z" />
    <glyph glyph-name="uni0432" unicode="&#x432;" horiz-adv-x="642" 
d="M519.5 341q34.5 -24 55 -60t20.5 -76q0 -96 -65 -150.5t-169 -54.5h-304v2q24 18 41.5 55.5t17.5 98.5v384q0 58 -16.5 96.5t-42.5 56.5v2h276q113 0 169.5 -43t56.5 -132q0 -37 -16.5 -69t-43 -52.5t-55.5 -25.5v-3q41 -5 75.5 -29zM253 597v-180h72q44 0 68.5 24.5
t24.5 71.5q0 42 -24 63t-69 21h-72zM424 128.5q28 30.5 28 81.5t-28 80.5t-83 29.5h-88v-222h88q55 0 83 30.5z" />
    <glyph glyph-name="uni0433" unicode="&#x433;" horiz-adv-x="525" 
d="M59 2q22 14 39 56.5t17 96.5v394q0 55 -16 92.5t-38 51.5v2h294q109 0 147 7l17 -179l-2 -1q-18 37 -58 55.5t-99 18.5h-108v-445q0 -54 17.5 -95t43.5 -54v-2h-254v2z" />
    <glyph glyph-name="uni0434" unicode="&#x434;" horiz-adv-x="687" 
d="M717 103l-51 -205h-2q-10 47 -49 74.5t-95 27.5h-353q-56 0 -95.5 -28t-48.5 -74h-2l-51 205q31 -2 91 -4l156 455q14 39 14 73q0 44 -24 66v2h274v-2q-26 -23 -26 -68q0 -30 11 -60l164 -466q58 2 87 4zM197 99h286l-85 250q-24 70 -36.5 116t-19.5 102h-4
q-9 -56 -21.5 -100t-36.5 -118z" />
    <glyph glyph-name="uni0435" unicode="&#x435;" 
d="M562 191l-28 -199q-28 5 -53.5 6.5t-68.5 1.5h-353v2q22 15 38 53t16 95v395q0 58 -16 95.5t-38 52.5v2h359q71 0 106 8l17 -179l-2 -1q-18 37 -58 55.5t-99 18.5h-132v-176h76q63 0 93 1.5t63 5.5l-29 -168h-2q-12 33 -39 48t-70 15h-92v-225h109q66 0 117.5 24t83.5 70
z" />
    <glyph glyph-name="uni0436" unicode="&#x436;" horiz-adv-x="982" 
d="M218 88q-30 -43 -30 -74q0 -6 2 -14h-218v2q33 15 57 39.5t57 71.5l181 256l-135 213q-22 36 -54 66t-63 45v2h224v-1q-1 -14 7 -32t26 -47l146 -239zM577 54.5q16 -37.5 38 -52.5v-2h-240v2q22 15 38 53t16 95v399q0 55 -16 92.5t-38 51.5v2h240v-2q-22 -15 -38 -53
t-16 -95v-396q0 -57 16 -94.5zM954 53.5q25 -21.5 61 -36.5v-2l-207 -35q-8 41 -43 96l-193 300l159 239q18 28 26 46.5t7 32.5v1h210v-2q-31 -14 -63 -45t-56 -66l-132 -195l181 -274q25 -38 50 -59.5z" />
    <glyph glyph-name="uni0437" unicode="&#x437;" horiz-adv-x="537" 
d="M126.5 -6.5q-46.5 9.5 -74.5 25.5l-14 156l2 1q29 -48 75 -68.5t108 -20.5t95.5 31.5t33.5 87.5q0 54 -32 87t-88 33q-37 0 -62.5 -5.5t-55.5 -21.5l-2 1l19 130q27 -4 85 -4q57 0 85 27t28 71q0 39 -27 61.5t-79 22.5q-53 0 -97 -20.5t-73 -57.5l-2 1l23 150
q36 13 79 21.5t80 8.5q111 0 173 -47t62 -130q0 -51 -23.5 -90.5t-64.5 -63.5v-2q51 -21 82.5 -68.5t31.5 -111.5q0 -62 -30.5 -110.5t-90.5 -76t-147 -27.5q-53 0 -99.5 9.5z" />
    <glyph glyph-name="uni0438" unicode="&#x438;" horiz-adv-x="795" 
d="M62 2q20 15 35.5 53.5t15.5 94.5v395q0 58 -16 95.5t-38 52.5v2h244v-2q-20 -15 -36 -53.5t-16 -94.5v-176q0 -88 -22 -210h4q33 94 97 201l144 239q23 38 31 58.5t10 37.5h221v-2q-12 -6 -26 -28.5t-23.5 -53.5t-9.5 -61v-400q0 -58 16 -95.5t38 -52.5v-2h-246v2
q22 15 38 53t16 95v180q0 100 28 222h-4q-40 -114 -101 -213l-151 -244q-32 -52 -50 -95h-199v2z" />
    <glyph glyph-name="uni0439" unicode="&#x439;" horiz-adv-x="795" 
d="M62 2q20 15 35.5 53.5t15.5 94.5v395q0 58 -16 95.5t-38 52.5v2h244v-2q-20 -15 -36 -53.5t-16 -94.5v-176q0 -88 -22 -210h4q33 94 97 201l144 239q23 38 31 58.5t10 37.5h221v-2q-12 -6 -26 -28.5t-23.5 -53.5t-9.5 -61v-400q0 -58 16 -95.5t38 -52.5v-2h-246v2
q22 15 38 53t16 95v180q0 100 28 222h-4q-40 -114 -101 -213l-151 -244q-32 -52 -50 -95h-199v2zM279.5 780.5q-46.5 38.5 -58.5 103.5l102 34l1 -2q-2 -10 -2 -16q0 -29 20 -51t56 -22q37 0 57.5 22t20.5 51q0 6 -2 16l1 2l100 -33q-16 -66 -62 -104.5t-115 -38.5
q-72 0 -118.5 38.5z" />
    <glyph glyph-name="uni043A" unicode="&#x43a;" horiz-adv-x="680" 
d="M264.5 54.5q14.5 -37.5 34.5 -52.5v-2h-240v2q22 15 38 53t16 95v399q0 55 -16 92.5t-38 51.5v2h240v-2q-20 -15 -34.5 -53t-14.5 -95v-396q0 -57 14.5 -94.5zM652.5 53.5q24.5 -21.5 60.5 -36.5v-2l-201 -34q-4 17 -17.5 43t-31.5 52l-202 300l169 239q35 50 33 80h208
v-2q-29 -14 -60 -44t-58 -67l-141 -191l190 -278q26 -38 50.5 -59.5z" />
    <glyph glyph-name="uni043B" unicode="&#x43b;" horiz-adv-x="663" 
d="M-20 2q24 21 52 64.5t46 97.5l130 395q11 35 11 60q0 24 -7.5 43t-20.5 31v2h273v-2q-25 -20 -25 -66q0 -28 12 -64l132 -399q18 -54 46 -97.5t52 -64.5v-2h-231v2q13 13 13 43q0 29 -15 80l-69 224q-20 65 -32.5 112.5t-19.5 94.5h-4q-6 -47 -18 -91.5t-33 -115.5
l-69 -224q-15 -51 -15 -80q0 -32 13 -43v-2h-221v2z" />
    <glyph glyph-name="uni043C" unicode="&#x43c;" horiz-adv-x="958" 
d="M32 2q26 29 41 62.5t19 82.5l26 388l1 19q0 44 -13.5 83t-41.5 56l1 2h229q-7 -8 -7 -24q0 -27 23 -67l99 -170q50 -86 62 -165h4q10 41 26.5 75.5t47.5 89.5l98 173q22 40 22 65q0 15 -7 23h231l1 -2q-31 -17 -46 -64.5t-12 -93.5l31 -388q3 -39 18.5 -79.5t40.5 -65.5
l-1 -2h-229l-1 2q14 12 24 40t10 64q0 13 -1 20l-16 207q-2 34 -2 54q0 55 8 118h-4q-15 -48 -33 -86.5t-44 -83.5l-111 -188q-42 -70 -47 -121h-8q-7 52 -50 120l-119 190q-25 40 -41.5 79t-30.5 90h-4q7 -70 7 -125q0 -33 -1 -47l-11 -207q-2 -44 7.5 -77t25.5 -47l-1 -2
h-220z" />
    <glyph glyph-name="uni043D" unicode="&#x43d;" horiz-adv-x="766" 
d="M669 640q-16 -38 -16 -95v-399q0 -55 16 -92.5t38 -51.5v-2h-242v2q20 15 35.5 52.5t15.5 91.5v175h-266v-171q0 -57 15 -95t36 -53v-2h-242v2q22 15 38 53t16 95v395q0 58 -16 95.5t-38 52.5v2h242v-2q-20 -15 -35.5 -53.5t-15.5 -94.5v-124h266v124q0 57 -15 95t-36 53
v2h242v-2q-22 -15 -38 -53z" />
    <glyph glyph-name="uni043E" unicode="&#x43e;" horiz-adv-x="816" 
d="M210 27q-81 47 -123.5 129t-42.5 185q0 112 44.5 196.5t128.5 131t198 46.5q106 0 187 -45t125.5 -127t44.5 -188q0 -110 -46.5 -195.5t-131 -132.5t-194.5 -47q-109 0 -190 47zM519.5 116q48.5 32 76 91.5t27.5 137.5q0 126 -58 196t-160 70q-65 0 -113 -32.5t-73.5 -91
t-25.5 -136.5q0 -125 56 -196t161 -71q61 0 109.5 32z" />
    <glyph glyph-name="uni043F" unicode="&#x43f;" horiz-adv-x="754" 
d="M59 2q22 15 38 53t16 95v395q0 58 -12 96.5t-32 51.5v2h618v-2q-20 -13 -32.5 -51.5t-12.5 -96.5v-395q0 -57 16 -95t37 -53v-2h-245v2q22 15 38.5 53t16.5 95v445h-255v-445q0 -58 16 -95.5t38 -52.5v-2h-245v2z" />
    <glyph glyph-name="uni0440" unicode="&#x440;" horiz-adv-x="614" 
d="M518 636q66 -59 66 -167q0 -120 -65 -180t-187 -60h-82v-83q0 -55 16 -92.5t38 -51.5v-2h-245v2q22 15 38 53t16 95v399q0 55 -16 92.5t-38 51.5v2h273q120 0 186 -59zM442 462q0 69 -32.5 101.5t-100.5 32.5h-59v-267l59 -1q133 -1 133 134z" />
    <glyph glyph-name="uni0441" unicode="&#x441;" horiz-adv-x="657" 
d="M210 31.5q-80 46.5 -123 128t-43 183.5q0 111 46.5 194t131.5 127.5t198 44.5q91 0 176 -25l16 -173l-2 -1q-30 46 -80.5 70t-110.5 24q-105 0 -165.5 -67.5t-60.5 -183.5q0 -118 55.5 -190t157.5 -72q77 0 130 28.5t95 83.5l2 -1l-24 -179q-108 -38 -213 -38
q-106 0 -186 46.5z" />
    <glyph glyph-name="uni0442" unicode="&#x442;" horiz-adv-x="592" 
d="M572 520l-2 -1q-18 32 -52.5 53t-77.5 21h-75v-435q0 -61 17.5 -101.5t43.5 -54.5v-2h-259v2q24 14 42.5 55.5t18.5 100.5v435h-76q-43 0 -77.5 -21t-52.5 -53l-2 1l17 183q61 -8 137 -8h244q76 0 137 8z" />
    <glyph glyph-name="uni0443" unicode="&#x443;" horiz-adv-x="655" 
d="M652 695v-2q-36 -27 -60.5 -63t-42.5 -85l-141 -379q-23 -63 -23 -99q0 -38 24 -65v-2h-238v2q60 60 97 158l38 100h-93l-131 295q-24 53 -45 85.5t-47 52.5v2h234v-2q-16 -32 -16 -58q0 -32 21 -80l100 -234l89 234q21 56 21 94q0 22 -6 46h219z" />
    <glyph glyph-name="uni0444" unicode="&#x444;" horiz-adv-x="909" 
d="M824.5 177q-43.5 -80 -121.5 -127t-179 -51q3 -46 18.5 -77t34.5 -44v-2h-245v2q19 13 34.5 45t18.5 78q-106 4 -183.5 46.5t-119 117.5t-41.5 175q0 96 43 174.5t121 125.5t178 52q-6 40 -20 66.5t-31 38.5v2h245v-2q-17 -12 -31 -38.5t-20 -66.5q103 -5 180.5 -49.5
t119.5 -119t42 -167.5q0 -99 -43.5 -179zM215 226.5q25 -54.5 70 -86.5t103 -37v487q-95 -6 -146.5 -70.5t-51.5 -169.5q0 -69 25 -123.5zM625 136.5q45 31.5 69.5 86t24.5 123.5q0 67 -24.5 120.5t-69.5 86.5t-104 37v-488q59 3 104 34.5z" />
    <glyph glyph-name="uni0445" unicode="&#x445;" horiz-adv-x="637" 
d="M617 73.5q37 -36.5 67 -56.5v-2l-209 -37q0 20 -15.5 51.5t-47.5 81.5l-102 158l-110 -179q-20 -33 -20 -57q0 -20 14 -31v-2h-236v2q26 12 59.5 47t64.5 82l155 239l-158 236q-21 31 -41 50.5t-49 36.5v2h233v-2q-2 -12 -2 -17q0 -17 7 -35t22 -43l76 -127l71 122
q15 27 22 43t7 30t-7 27v2h220v-2q-24 -9 -54 -40t-61 -81l-123 -202l147 -212q33 -48 70 -84.5z" />
    <glyph glyph-name="uni0446" unicode="&#x446;" horiz-adv-x="765" 
d="M757 107l-52 -219h-2q-20 53 -56.5 82.5t-97.5 29.5h-490v2q22 15 38 53t16 95v395q0 58 -16 95.5t-38 52.5v2h242v-2q-20 -15 -35.5 -53.5t-15.5 -94.5v-445l255 -1v446q0 57 -15.5 95t-35.5 53v2h242v-2q-22 -15 -38 -53t-16 -95v-446q43 2 115 8z" />
    <glyph glyph-name="uni0447" unicode="&#x447;" horiz-adv-x="689" 
d="M592 640q-16 -38 -16 -95v-395q0 -58 16 -95.5t38 -52.5v-2h-245v2q22 15 38 53t16 95v103q-45 -8 -98 -8q-142 0 -202.5 66.5t-60.5 194.5v39q0 57 -15.5 95t-37.5 53v2h236v-2q-20 -14 -33 -52t-13 -96v-54q0 -73 40 -109t125 -36q31 0 59 5v194q0 58 -13 96.5
t-33 51.5v2h237v-2q-22 -15 -38 -53z" />
    <glyph glyph-name="uni0448" unicode="&#x448;" horiz-adv-x="1085" 
d="M988 640.5q-16 -37.5 -16 -95.5v-395q0 -57 16 -95t38 -53v-2h-967v2q22 15 38 53t16 95v395q0 58 -16 95.5t-38 52.5v2h239v-2q-20 -15 -35.5 -53.5t-15.5 -94.5v-446h229v446q0 56 -15.5 94.5t-35.5 53.5v2h235v-2q-20 -15 -35.5 -53t-15.5 -95v-446h229v446
q0 56 -15.5 94.5t-35.5 53.5v2h239v-2q-22 -15 -38 -52.5z" />
    <glyph glyph-name="uni0449" unicode="&#x449;" horiz-adv-x="1095" 
d="M1087 106l-52 -218h-2q-20 53 -56.5 82.5t-97.5 29.5h-820v2q22 15 38 53t16 95v395q0 58 -16 95.5t-38 52.5v2h239v-2q-20 -15 -35.5 -53.5t-15.5 -94.5v-446h229v446q0 56 -15.5 94.5t-35.5 53.5v2h235v-2q-20 -15 -35.5 -53t-15.5 -95v-446h229v446q0 56 -15.5 94.5
t-35.5 53.5v2h239v-2q-22 -15 -38 -52.5t-16 -95.5v-446q65 2 115 7z" />
    <glyph glyph-name="uni044A" unicode="&#x44a;" horiz-adv-x="657" 
d="M564.5 390.5q68.5 -56.5 68.5 -158.5q0 -114 -68 -173t-192 -59h-273v2q22 14 38 52.5t16 95.5v438q-51 -8 -90 -34.5t-69 -75.5l-2 1l43 223q60 -7 171 -7h138v-2q-22 -15 -38 -53t-16 -95v-98h82q123 0 191.5 -56.5zM456 129q34 29 34 94t-34 95t-107 30h-58v-248h58
q73 0 107 29z" />
    <glyph glyph-name="uni044B" unicode="&#x44b;" horiz-adv-x="937" 
d="M632 2q22 15 38 53t16 95v395q0 58 -16 95.5t-38 52.5v2h246v-2q-22 -15 -38 -53t-16 -95v-395q0 -58 16 -95.5t38 -52.5v-2h-246v2zM524.5 399.5q68.5 -57.5 68.5 -161.5q0 -76 -32 -129.5t-86.5 -81t-121.5 -27.5h-294v2q22 15 38 53t16 95v399q0 55 -16 92.5t-38 51.5
v2h245v-2q-22 -15 -38 -53t-16 -95v-88h94q112 0 180.5 -57.5zM450 230q0 65 -34.5 96.5t-107.5 31.5h-58v-258h58q142 0 142 130z" />
    <glyph glyph-name="uni044C" unicode="&#x44c;" horiz-adv-x="622" 
d="M524.5 399.5q68.5 -57.5 68.5 -161.5q0 -76 -32 -129.5t-86.5 -81t-121.5 -27.5h-294v2q22 15 38 53t16 95v399q0 55 -16 92.5t-38 51.5v2h245v-2q-22 -15 -38 -53t-16 -95v-88h94q112 0 180.5 -57.5zM450 230q0 65 -34.5 96.5t-107.5 31.5h-58v-258h58q142 0 142 130z
" />
    <glyph glyph-name="uni044D" unicode="&#x44d;" horiz-adv-x="666" 
d="M447 667q81 -42 128 -122t47 -189q0 -110 -47 -194t-131 -130.5t-193 -46.5q-47 0 -98 10.5t-92 27.5l-24 171l2 1q35 -52 91 -78t123 -26q105 0 160 63.5t61 166.5h-219q-50 0 -78 -9.5t-53 -34.5l-2 1l23 146q45 -5 101 -5h223q-16 90 -72.5 137.5t-139.5 47.5
q-67 0 -117.5 -21.5t-89.5 -69.5l-2 1l29 167q94 28 189 28q100 0 181 -42z" />
    <glyph glyph-name="uni044E" unicode="&#x44e;" horiz-adv-x="1116" 
d="M902 669.5q81 -45.5 125.5 -127t44.5 -187.5q0 -110 -46.5 -195t-131 -132.5t-194.5 -47.5q-103 0 -180 43t-120.5 119t-49.5 172h-100v-164q0 -58 15 -96t36 -52v-2h-242v2q22 15 38 53t16 95v395q0 58 -16 95.5t-38 52.5v2h242v-2q-21 -15 -36 -53t-15 -95v-132h104
q14 92 61 160t124 105t177 37q105 0 186 -45.5zM821 115.5q48 31.5 75.5 91t27.5 138.5q0 126 -58 196t-160 70q-65 0 -113 -32.5t-73.5 -91t-25.5 -136.5q0 -125 56 -196t161 -71q62 0 110 31.5z" />
    <glyph glyph-name="uni044F" unicode="&#x44f;" horiz-adv-x="636" 
d="M539 640q-16 -38 -16 -95v-395q0 -58 16 -95.5t38 -52.5v-2h-239v2q19 15 33.5 53.5t14.5 94.5v446l-76 1q-65 1 -99 -30t-34 -95q0 -55 35 -86t98 -31h54l-148 -264q-33 -59 -48 -112l-190 37v2q29 8 60.5 38.5t56.5 73.5l86 150q-67 21 -105 68.5t-38 114.5
q0 114 64.5 173t190.5 59h284v-2q-22 -15 -38 -53z" />
    <glyph glyph-name="uni0451" unicode="&#x451;" 
d="M562 191l-28 -199q-28 5 -53.5 6.5t-68.5 1.5h-353v2q22 15 38 53t16 95v395q0 58 -16 95.5t-38 52.5v2h359q71 0 106 8l17 -179l-2 -1q-18 37 -58 55.5t-99 18.5h-132v-176h76q63 0 93 1.5t63 5.5l-29 -168h-2q-12 33 -39 48t-70 15h-92v-225h109q66 0 117.5 24t83.5 70
zM196 775.5q-17 17.5 -17 41.5q0 25 17 42t42 17q24 0 40.5 -17t16.5 -42q0 -24 -16.5 -41.5t-40.5 -17.5q-25 0 -42 17.5zM352 775.5q-17 17.5 -17 41.5q0 25 17 42t42 17q24 0 40.5 -17t16.5 -42q0 -24 -16.5 -41.5t-40.5 -17.5q-25 0 -42 17.5z" />
    <glyph glyph-name="uni0452" unicode="&#x452;" horiz-adv-x="733" 
d="M629.5 383q70.5 -59 70.5 -167q0 -95 -48 -155t-146 -69l-41 116l2 1q17 -3 30 -3q42 0 57.5 29.5t15.5 77.5q0 132 -148 132q-30 0 -57 -6v-181q0 -124 29 -156v-2h-220v2q24 15 39 55.5t15 100.5v435h-76q-43 0 -77.5 -21t-52.5 -53l-2 1l17 183q61 -8 137 -8h244
q76 0 137 8l15 -174l-2 -1q-18 26 -52 45.5t-76 19.5h-75v-158q31 7 67 7q127 0 197.5 -59z" />
    <glyph glyph-name="uni0453" unicode="&#x453;" horiz-adv-x="525" 
d="M59 2q22 14 39 56.5t17 96.5v394q0 55 -16 92.5t-38 51.5v2h294q109 0 147 7l17 -179l-2 -1q-18 37 -58 55.5t-99 18.5h-108v-445q0 -54 17.5 -95t43.5 -54v-2h-254v2zM219 779q34 32 75 90t46 84l2 1l89 -85q-28 -20 -69.5 -63t-61.5 -69z" />
    <glyph glyph-name="uni0454" unicode="&#x454;" horiz-adv-x="666" 
d="M633 202l-24 -179q-108 -38 -213 -38q-106 0 -186 46.5t-123 128t-43 183.5q0 111 46.5 194t131.5 127.5t198 44.5q91 0 176 -25l16 -173l-2 -1q-30 46 -80.5 70t-110.5 24q-92 0 -150 -51.5t-72 -142.5h189q53 0 87.5 1t67.5 5l-27 -158h-2q-27 54 -110 54h-207
q9 -101 64 -161t147 -60q77 0 130 28.5t95 83.5z" />
    <glyph glyph-name="uni0455" unicode="&#x455;" horiz-adv-x="548" 
d="M148.5 -4.5q-51.5 10.5 -83.5 29.5l-17 168l2 1q42 -56 90.5 -80.5t108.5 -24.5q124 0 124 90q0 32 -17 54.5t-42.5 36.5t-69.5 32q-59 24 -95.5 46.5t-62.5 63.5t-26 106q0 51 28.5 94.5t82.5 69.5t129 26q76 0 157 -21l13 -164h-2q-30 46 -69.5 64t-88.5 18
q-115 0 -115 -77q0 -27 15.5 -46t39 -31.5t66.5 -30.5q61 -25 100 -49t67 -68t28 -114q0 -58 -28.5 -104t-85.5 -73t-138 -27q-59 0 -110.5 10.5z" />
    <glyph glyph-name="uni0456" unicode="&#x456;" horiz-adv-x="364" 
d="M59 2q22 15 38 53t16 95v395q0 58 -16 95.5t-38 52.5v2h246v-2q-22 -15 -38 -53t-16 -95v-395q0 -58 16 -95.5t38 -52.5v-2h-246v2z" />
    <glyph glyph-name="uni0457" unicode="&#x457;" horiz-adv-x="364" 
d="M59 2q22 15 38 53t16 95v395q0 58 -16 95.5t-38 52.5v2h246v-2q-22 -15 -38 -53t-16 -95v-395q0 -58 16 -95.5t38 -52.5v-2h-246v2zM63 775.5q-17 17.5 -17 41.5q0 25 17 42t42 17q24 0 40.5 -17t16.5 -42q0 -24 -16.5 -41.5t-40.5 -17.5q-25 0 -42 17.5zM219 775.5
q-17 17.5 -17 41.5q0 25 17 42t42 17q24 0 40.5 -17t16.5 -42q0 -24 -16.5 -41.5t-40.5 -17.5q-25 0 -42 17.5z" />
    <glyph glyph-name="uni0458" unicode="&#x458;" horiz-adv-x="449" 
d="M16 -7l-10 155h2q11 -20 36 -40.5t66 -20.5q56 0 84 28.5t28 83.5v345q0 58 -16 96t-38 53v2h245v-2q-22 -15 -38 -53t-16 -95v-310q0 -133 -58 -195t-185 -62q-43 0 -100 15z" />
    <glyph glyph-name="uni0459" unicode="&#x459;" horiz-adv-x="908" 
d="M810.5 399.5q68.5 -57.5 68.5 -161.5q0 -76 -32 -129.5t-86.5 -81t-121.5 -27.5h-233v565h-3q-4 -15 -29 -62q-2 -5 -4.5 -10.5t-5.5 -10.5l-161 -357q-19 -42 -19 -77q0 -32 14 -46v-2h-207v2q19 18 44.5 61t51.5 101l186 412q15 33 15 59q0 39 -31 58v2h336v-2
q-22 -15 -38 -53t-16 -95v-88h91q112 0 180.5 -57.5zM736 230q0 65 -34.5 96.5t-107.5 31.5h-55v-258h55q142 0 142 130z" />
    <glyph glyph-name="uni045A" unicode="&#x45a;" horiz-adv-x="993" 
d="M896 377.5q68 -53.5 68 -152.5q0 -68 -29.5 -119t-83.5 -78.5t-127 -27.5h-289v2q20 15 35.5 52.5t15.5 91.5v185h-236v-181q0 -57 15 -95t36 -53v-2h-242v2q22 15 38 53t16 95v395q0 58 -16 95.5t-38 52.5v2h242v-2q-20 -15 -35.5 -53.5t-15.5 -94.5v-114h236v114
q0 57 -15 95t-36 53v2h242v-2q-22 -15 -38 -53t-16 -95v-114h92q113 0 181 -53.5zM786 129q35 29 35 88q0 57 -36.5 85.5t-105.5 28.5h-56v-231h56q72 0 107 29z" />
    <glyph glyph-name="uni045B" unicode="&#x45b;" horiz-adv-x="746" 
d="M694 53.5q14 -37.5 34 -51.5v-2h-226v2q18 13 29.5 50.5t11.5 93.5v68q0 57 -28.5 88t-80.5 31q-35 0 -69 -9v-166q0 -124 31 -156v-2h-222v2q24 15 39 55.5t15 100.5v435h-76q-43 0 -77.5 -21t-52.5 -53l-2 1l17 183q61 -8 137 -8h244q76 0 137 8l15 -174l-2 -1
q-18 26 -52 45.5t-76 19.5h-75v-170q39 9 79 9q113 0 174.5 -54t61.5 -156v-76q0 -55 14 -92.5z" />
    <glyph glyph-name="uni045C" unicode="&#x45c;" horiz-adv-x="680" 
d="M264.5 54.5q14.5 -37.5 34.5 -52.5v-2h-240v2q22 15 38 53t16 95v399q0 55 -16 92.5t-38 51.5v2h240v-2q-20 -15 -34.5 -53t-14.5 -95v-396q0 -57 14.5 -94.5zM652.5 53.5q24.5 -21.5 60.5 -36.5v-2l-201 -34q-4 17 -17.5 43t-31.5 52l-202 300l169 239q35 50 33 80h208
v-2q-29 -14 -60 -44t-58 -67l-141 -191l190 -278q26 -38 50.5 -59.5zM277 779q34 32 75 90t46 84l2 1l89 -85q-28 -20 -69.5 -63t-61.5 -69z" />
    <glyph glyph-name="uni045D" unicode="&#x45d;" horiz-adv-x="795" 
d="M62 2q20 15 35.5 53.5t15.5 94.5v395q0 58 -16 95.5t-38 52.5v2h244v-2q-20 -15 -36 -53.5t-16 -94.5v-176q0 -88 -22 -210h4q33 94 97 201l144 239q23 38 31 58.5t10 37.5h221v-2q-12 -6 -26 -28.5t-23.5 -53.5t-9.5 -61v-400q0 -58 16 -95.5t38 -52.5v-2h-246v2
q22 15 38 53t16 95v180q0 100 28 222h-4q-40 -114 -101 -213l-151 -244q-32 -52 -50 -95h-199v2zM349.5 806q-42.5 43 -69.5 63l88 85l2 -1q5 -25 48 -84t75 -90l-81 -42q-20 26 -62.5 69z" />
    <glyph glyph-name="uni045E" unicode="&#x45e;" horiz-adv-x="655" 
d="M652 695v-2q-36 -27 -60.5 -63t-42.5 -85l-141 -379q-23 -63 -23 -99q0 -38 24 -65v-2h-238v2q60 60 97 158l38 100h-93l-131 295q-24 53 -45 85.5t-47 52.5v2h234v-2q-16 -32 -16 -58q0 -32 21 -80l100 -234l89 234q21 56 21 94q0 22 -6 46h219zM210.5 780.5
q-46.5 38.5 -58.5 103.5l102 34l1 -2q-2 -10 -2 -16q0 -29 20 -51t56 -22q37 0 57.5 22t20.5 51q0 6 -2 16l1 2l100 -33q-16 -66 -62 -104.5t-115 -38.5q-72 0 -118.5 38.5z" />
    <glyph glyph-name="uni045F" unicode="&#x45f;" horiz-adv-x="754" 
d="M658 640q-16 -38 -16 -95v-395q0 -58 12 -96.5t32 -51.5v-2h-251q0 -39 5.5 -66t21.5 -56l-1 -2h-167l-1 2q16 29 21.5 56t5.5 66h-252v2q20 13 32.5 51.5t12.5 96.5v395q0 57 -16 95t-37 53v2h245v-2q-22 -15 -38.5 -53t-16.5 -95v-445h255v445q0 58 -16 95.5t-38 52.5
v2h245v-2q-22 -15 -38 -53z" />
    <glyph glyph-name="uni0490" unicode="&#x490;" horiz-adv-x="525" 
d="M531 816q-18 -44 -18 -102v-145l-2 -1q-26 18 -57 23t-94 5h-108v-445q0 -54 17.5 -95t43.5 -54v-2h-254v2q22 14 39 56.5t17 96.5v394q0 55 -16 92.5t-38 51.5v2h337v19q0 50 -16 93z" />
    <glyph glyph-name="uni0491" unicode="&#x491;" horiz-adv-x="525" 
d="M531 816q-18 -44 -18 -102v-145l-2 -1q-26 18 -57 23t-94 5h-108v-445q0 -54 17.5 -95t43.5 -54v-2h-254v2q22 14 39 56.5t17 96.5v394q0 55 -16 92.5t-38 51.5v2h337v19q0 50 -16 93z" />
    <glyph glyph-name="Wgrave" unicode="&#x1e80;" horiz-adv-x="1052" 
d="M168 2q32 35 32 91q0 30 -9 63l-116 422q-24 91 -68 115v2h242v-2q-31 -26 -31 -82q0 -23 5 -42l57 -223q11 -43 16.5 -83t7.5 -98h4q23 95 70 191l107 219q35 74 49 126h6q10 -33 20 -60.5t29 -64.5l97 -190q34 -68 50.5 -116t28.5 -105h4q7 101 31 204l49 200
q6 23 6 44q0 52 -31 80l1 2h222v-2q-25 -14 -42 -46.5t-26 -69.5l-101 -421q-8 -35 -8 -60q0 -52 31 -94v-2h-234v2q12 20 12 50q0 37 -18 74l-73 156q-16 35 -29 77.5t-18 75.5h-4q-18 -73 -44 -130l-84 -179q-18 -40 -18 -75q0 -30 13 -49v-2h-236v2zM486.5 806
q-42.5 43 -69.5 63l88 85l2 -1q5 -25 48 -84t75 -90l-81 -42q-20 26 -62.5 69z" />
    <glyph glyph-name="wgrave" unicode="&#x1e81;" horiz-adv-x="1052" 
d="M168 2q32 35 32 91q0 30 -9 63l-116 422q-24 91 -68 115v2h242v-2q-31 -26 -31 -82q0 -23 5 -42l57 -223q11 -43 16.5 -83t7.5 -98h4q23 95 70 191l107 219q35 74 49 126h6q10 -33 20 -60.5t29 -64.5l97 -190q34 -68 50.5 -116t28.5 -105h4q7 101 31 204l49 200
q6 23 6 44q0 52 -31 80l1 2h222v-2q-25 -14 -42 -46.5t-26 -69.5l-101 -421q-8 -35 -8 -60q0 -52 31 -94v-2h-234v2q12 20 12 50q0 37 -18 74l-73 156q-16 35 -29 77.5t-18 75.5h-4q-18 -73 -44 -130l-84 -179q-18 -40 -18 -75q0 -30 13 -49v-2h-236v2zM486.5 806
q-42.5 43 -69.5 63l88 85l2 -1q5 -25 48 -84t75 -90l-81 -42q-20 26 -62.5 69z" />
    <glyph glyph-name="Wacute" unicode="&#x1e82;" horiz-adv-x="1052" 
d="M168 2q32 35 32 91q0 30 -9 63l-116 422q-24 91 -68 115v2h242v-2q-31 -26 -31 -82q0 -23 5 -42l57 -223q11 -43 16.5 -83t7.5 -98h4q23 95 70 191l107 219q35 74 49 126h6q10 -33 20 -60.5t29 -64.5l97 -190q34 -68 50.5 -116t28.5 -105h4q7 101 31 204l49 200
q6 23 6 44q0 52 -31 80l1 2h222v-2q-25 -14 -42 -46.5t-26 -69.5l-101 -421q-8 -35 -8 -60q0 -52 31 -94v-2h-234v2q12 20 12 50q0 37 -18 74l-73 156q-16 35 -29 77.5t-18 75.5h-4q-18 -73 -44 -130l-84 -179q-18 -40 -18 -75q0 -30 13 -49v-2h-236v2zM456 779q34 32 75 90
t46 84l2 1l89 -85q-28 -20 -69.5 -63t-61.5 -69z" />
    <glyph glyph-name="wacute" unicode="&#x1e83;" horiz-adv-x="1052" 
d="M168 2q32 35 32 91q0 30 -9 63l-116 422q-24 91 -68 115v2h242v-2q-31 -26 -31 -82q0 -23 5 -42l57 -223q11 -43 16.5 -83t7.5 -98h4q23 95 70 191l107 219q35 74 49 126h6q10 -33 20 -60.5t29 -64.5l97 -190q34 -68 50.5 -116t28.5 -105h4q7 101 31 204l49 200
q6 23 6 44q0 52 -31 80l1 2h222v-2q-25 -14 -42 -46.5t-26 -69.5l-101 -421q-8 -35 -8 -60q0 -52 31 -94v-2h-234v2q12 20 12 50q0 37 -18 74l-73 156q-16 35 -29 77.5t-18 75.5h-4q-18 -73 -44 -130l-84 -179q-18 -40 -18 -75q0 -30 13 -49v-2h-236v2zM456 779q34 32 75 90
t46 84l2 1l89 -85q-28 -20 -69.5 -63t-61.5 -69z" />
    <glyph glyph-name="Wdieresis" unicode="&#x1e84;" horiz-adv-x="1052" 
d="M168 2q32 35 32 91q0 30 -9 63l-116 422q-24 91 -68 115v2h242v-2q-31 -26 -31 -82q0 -23 5 -42l57 -223q11 -43 16.5 -83t7.5 -98h4q23 95 70 191l107 219q35 74 49 126h6q10 -33 20 -60.5t29 -64.5l97 -190q34 -68 50.5 -116t28.5 -105h4q7 101 31 204l49 200
q6 23 6 44q0 52 -31 80l1 2h222v-2q-25 -14 -42 -46.5t-26 -69.5l-101 -421q-8 -35 -8 -60q0 -52 31 -94v-2h-234v2q12 20 12 50q0 37 -18 74l-73 156q-16 35 -29 77.5t-18 75.5h-4q-18 -73 -44 -130l-84 -179q-18 -40 -18 -75q0 -30 13 -49v-2h-236v2zM416 775.5
q-17 17.5 -17 41.5q0 25 17 42t42 17q24 0 40.5 -17t16.5 -42q0 -24 -16.5 -41.5t-40.5 -17.5q-25 0 -42 17.5zM572 775.5q-17 17.5 -17 41.5q0 25 17 42t42 17q24 0 40.5 -17t16.5 -42q0 -24 -16.5 -41.5t-40.5 -17.5q-25 0 -42 17.5z" />
    <glyph glyph-name="wdieresis" unicode="&#x1e85;" horiz-adv-x="1052" 
d="M168 2q32 35 32 91q0 30 -9 63l-116 422q-24 91 -68 115v2h242v-2q-31 -26 -31 -82q0 -23 5 -42l57 -223q11 -43 16.5 -83t7.5 -98h4q23 95 70 191l107 219q35 74 49 126h6q10 -33 20 -60.5t29 -64.5l97 -190q34 -68 50.5 -116t28.5 -105h4q7 101 31 204l49 200
q6 23 6 44q0 52 -31 80l1 2h222v-2q-25 -14 -42 -46.5t-26 -69.5l-101 -421q-8 -35 -8 -60q0 -52 31 -94v-2h-234v2q12 20 12 50q0 37 -18 74l-73 156q-16 35 -29 77.5t-18 75.5h-4q-18 -73 -44 -130l-84 -179q-18 -40 -18 -75q0 -30 13 -49v-2h-236v2zM416 775.5
q-17 17.5 -17 41.5q0 25 17 42t42 17q24 0 40.5 -17t16.5 -42q0 -24 -16.5 -41.5t-40.5 -17.5q-25 0 -42 17.5zM572 775.5q-17 17.5 -17 41.5q0 25 17 42t42 17q24 0 40.5 -17t16.5 -42q0 -24 -16.5 -41.5t-40.5 -17.5q-25 0 -42 17.5z" />
    <glyph glyph-name="uni1E9E" unicode="&#x1e9e;" horiz-adv-x="730" 
d="M643.5 350.5q50.5 -58.5 50.5 -133.5q0 -63 -29 -117t-84 -86.5t-129 -32.5q-30 0 -52 3t-47 10l-16 126l2 1q42 -36 94 -36t86.5 35t34.5 87q0 66 -42 102t-116 36q-34 0 -60 -5v2l135 253h-221v-445q0 -57 15 -95t36 -53v-2h-242v2q22 15 38 53t16 95v395
q0 58 -16 95.5t-38 52.5v2h607l1 -3l-152 -266q78 -17 128.5 -75.5z" />
    <glyph glyph-name="Ygrave" unicode="&#x1ef2;" horiz-adv-x="643" 
d="M662 695v-2q-32 -24 -80 -102l-189 -312v-121q0 -61 17.5 -101.5t43.5 -54.5v-2h-259v2q24 14 42.5 55.5t18.5 100.5v116l-192 317q-46 75 -81 102v2h213v-2q-3 -9 -3 -20q0 -37 26 -82l77 -133q19 -31 31 -65h4q8 23 18.5 41.5t13.5 23.5l76 133q25 45 25 80q0 13 -3 22
v2h201zM274.5 806q-42.5 43 -69.5 63l88 85l2 -1q5 -25 48 -84t75 -90l-81 -42q-20 26 -62.5 69z" />
    <glyph glyph-name="ygrave" unicode="&#x1ef3;" horiz-adv-x="643" 
d="M662 695v-2q-32 -24 -80 -102l-189 -312v-121q0 -61 17.5 -101.5t43.5 -54.5v-2h-259v2q24 14 42.5 55.5t18.5 100.5v116l-192 317q-46 75 -81 102v2h213v-2q-3 -9 -3 -20q0 -37 26 -82l77 -133q19 -31 31 -65h4q8 23 18.5 41.5t13.5 23.5l76 133q25 45 25 80q0 13 -3 22
v2h201zM274.5 806q-42.5 43 -69.5 63l88 85l2 -1q5 -25 48 -84t75 -90l-81 -42q-20 26 -62.5 69z" />
    <glyph glyph-name="endash" unicode="&#x2013;" horiz-adv-x="505" 
d="M3 266l19 114h403q42 0 75 15l2 -1l-16 -115h-397q-56 0 -84 -14z" />
    <glyph glyph-name="emdash" unicode="&#x2014;" horiz-adv-x="694" 
d="M3 265l19 114h592q42 0 75 15l2 -1l-16 -115h-586q-56 0 -84 -14z" />
    <glyph glyph-name="quoteleft" unicode="&#x2018;" horiz-adv-x="225" 
d="M180 561.5q21 -24.5 21 -57.5q0 -37 -26 -62.5t-63 -25.5q-43 0 -67.5 31t-24.5 81q0 55 24 106t65 93l73 -33v-2q-21 -18 -35.5 -45.5t-19.5 -55.5q32 -5 53 -29.5z" />
    <glyph glyph-name="quoteright" unicode="&#x2019;" horiz-adv-x="234" 
d="M180.5 713q24.5 -31 24.5 -81q0 -55 -24 -106t-65 -93l-73 33v2q21 18 35.5 45.5t19.5 55.5q-32 5 -53 29.5t-21 57.5q0 37 26 62.5t63 25.5q43 0 67.5 -31z" />
    <glyph glyph-name="quotesinglbase" unicode="&#x201a;" horiz-adv-x="236" 
d="M180.5 130q24.5 -31 24.5 -81q0 -55 -24 -106t-65 -93l-73 33v2q21 18 35.5 45.5t19.5 55.5q-32 5 -53 29.5t-21 57.5q0 37 26 62.5t63 25.5q43 0 67.5 -31z" />
    <glyph glyph-name="quotedblleft" unicode="&#x201c;" horiz-adv-x="424" 
d="M191 582.5q21 -24.5 21 -57.5q0 -37 -26 -62.5t-63 -25.5q-43 0 -67.5 31t-24.5 81q0 55 24 106t65 93l73 -33v-2q-21 -18 -35.5 -45.5t-19.5 -55.5q32 -5 53 -29.5zM391 582.5q21 -24.5 21 -57.5q0 -37 -26 -62.5t-63 -25.5q-43 0 -67.5 31t-24.5 81q0 55 24 106t65 93
l73 -33v-2q-21 -18 -35.5 -45.5t-19.5 -55.5q32 -5 53 -29.5z" />
    <glyph glyph-name="quotedblright" unicode="&#x201d;" horiz-adv-x="442" 
d="M178.5 713q24.5 -31 24.5 -81q0 -55 -24 -106t-65 -93l-73 33v2q21 18 35.5 45.5t19.5 55.5q-32 5 -53 29.5t-21 57.5q0 37 26 62.5t63 25.5q43 0 67.5 -31zM378.5 713q24.5 -31 24.5 -81q0 -55 -24 -106t-65 -93l-73 33v2q21 18 35.5 45.5t19.5 55.5q-32 5 -53 29.5
t-21 57.5q0 37 26 62.5t63 25.5q43 0 67.5 -31z" />
    <glyph glyph-name="quotedblbase" unicode="&#x201e;" horiz-adv-x="455" 
d="M400.5 130q24.5 -31 24.5 -81q0 -55 -24 -106t-65 -93l-73 33v2q21 18 35.5 45.5t19.5 55.5q-32 5 -53 29.5t-21 57.5q0 37 26 62.5t63 25.5q43 0 67.5 -31zM180.5 130q24.5 -31 24.5 -81q0 -55 -24 -106t-65 -93l-73 33v2q21 18 35.5 45.5t19.5 55.5q-32 5 -53 29.5
t-21 57.5q0 37 26 62.5t63 25.5q43 0 67.5 -31z" />
    <glyph glyph-name="dagger" unicode="&#x2020;" horiz-adv-x="507" 
d="M317 469v-421q0 -42 4 -63.5t15 -35.5v-2h-167v2q20 24 20 99v421h-56q-43 0 -66.5 -5t-40.5 -16h-2l14 131h151v60q0 43 -4 66t-14 35v2h166v-2q-12 -14 -16 -36t-4 -65v-60h59q41 0 65 5t40 16h2l-12 -131h-154z" />
    <glyph glyph-name="daggerdbl" unicode="&#x2021;" horiz-adv-x="507" 
d="M441 277q24 5 40 16h2l-12 -131h-154v-114q0 -42 4 -63.5t15 -35.5v-2h-167v2q20 24 20 99v114h-56q-43 0 -66.5 -5t-40.5 -16h-2l14 131h151v197h-56q-43 0 -66.5 -5t-40.5 -16h-2l14 131h151v60q0 43 -4 66t-14 35v2h166v-2q-12 -14 -16 -36t-4 -65v-60h59q41 0 65 5
t40 16h2l-12 -131h-154v-197h59q41 0 65 5z" />
    <glyph glyph-name="bullet" unicode="&#x2022;" horiz-adv-x="398" 
d="M114.5 176.5q-39.5 22.5 -62 61t-22.5 85.5q0 46 23 85t62.5 61.5t85.5 22.5t84.5 -22t60.5 -61t22 -86t-22 -85.5t-60.5 -61t-84.5 -22.5q-47 0 -86.5 22.5z" />
    <glyph glyph-name="ellipsis" unicode="&#x2026;" horiz-adv-x="708" 
d="M52.5 16q-24.5 25 -24.5 61q0 37 24.5 62t59.5 25t59 -25t24 -62q0 -36 -24 -61t-59 -25t-59.5 25zM294.5 16q-24.5 25 -24.5 61q0 37 24.5 62t59.5 25t59 -25t24 -62q0 -36 -24 -61t-59 -25t-59.5 25zM537.5 16q-24.5 25 -24.5 61q0 37 24.5 62t59.5 25t59 -25t24 -62
q0 -36 -24 -61t-59 -25t-59.5 25z" />
    <glyph glyph-name="perthousand" unicode="&#x2030;" horiz-adv-x="1157" 
d="M93 398.5q-39 22.5 -61.5 61.5t-22.5 85t22.5 85t61.5 61.5t85 22.5t85 -22.5t61.5 -61.5t22.5 -85t-22.5 -85t-61.5 -61.5t-85 -22.5t-85 22.5zM136 2q41 33 73 97l245 495q28 55 44 101h145v-2q-31 -27 -60 -85l-262 -533q-24 -49 -32 -75h-153v2zM227 490.5
q19 20.5 19 54.5t-19 54.5t-48 20.5q-30 0 -49.5 -21t-19.5 -54q0 -34 20 -54.5t49 -20.5t48 20.5zM522 3.5q-39 22.5 -61.5 61.5t-22.5 85t22.5 85t61.5 61.5t85 22.5t85 -22.5t61.5 -61.5t22.5 -85t-22.5 -85t-61.5 -61.5t-85 -22.5t-85 22.5zM894 3.5
q-39 22.5 -61.5 61.5t-22.5 85t22.5 85t61.5 61.5t85 22.5t85 -22.5t61.5 -61.5t22.5 -85t-22.5 -85t-61.5 -61.5t-85 -22.5t-85 22.5zM656 99q19 20 19 51t-19 51.5t-48 20.5q-30 0 -49.5 -20.5t-19.5 -51.5t19.5 -51t49.5 -20q29 0 48 20zM1028 99q19 20 19 51t-19 51.5
t-48 20.5q-30 0 -49.5 -20.5t-19.5 -51.5t19.5 -51t49.5 -20q29 0 48 20z" />
    <glyph glyph-name="guilsinglleft" unicode="&#x2039;" horiz-adv-x="375" 
d="M319.5 120q20.5 -18 55.5 -40l-1 -2h-196q-5 13 -17.5 31.5t-27.5 34.5l-143 164l143 164q15 16 27.5 34.5t17.5 31.5h175l1 -2q-38 -23 -88 -82l-118 -138l131 -154q20 -24 40.5 -42z" />
    <glyph glyph-name="guilsinglright" unicode="&#x203a;" horiz-adv-x="375" 
d="M385 308l-143 -164q-15 -16 -27.5 -34.5t-17.5 -31.5h-175l-1 2q38 23 88 82l118 138l-131 154q-20 24 -40.5 42t-55.5 40l1 2h196q5 -13 17.5 -31.5t27.5 -34.5z" />
    <glyph glyph-name="fraction" unicode="&#x2044;" horiz-adv-x="532" 
d="M-19 -12q24 21 43 46.5t39 62.5l261 483q29 52 29 89q0 8 -1 12h201l1 -2q-29 -20 -44.5 -40.5t-35.5 -57.5l-248 -460q-19 -36 -27.5 -62t-8.5 -49q0 -8 2 -24h-210z" />
    <glyph glyph-name="Euro" unicode="&#x20ac;" horiz-adv-x="711" 
d="M692 194l-25 -175q-108 -38 -211 -38q-116 0 -203.5 62.5t-123.5 168.5h-17q-106 0 -136 -24l-2 1l36 123h98q-1 12 -1 36v19q-101 0 -131 -24l-2 1l36 123h113q33 114 125 180.5t220 66.5q103 0 186 -26l14 -159h-2q-28 37 -80.5 57t-123.5 20t-122.5 -36.5
t-75.5 -102.5h274q32 0 52.5 6t37.5 17l2 -1l-35 -122h-351v-19q0 -12 2 -36h292q32 0 52.5 6t37.5 17l2 -1l-35 -122h-325q26 -59 75.5 -91.5t118.5 -32.5q68 0 123 26t103 81z" />
    <glyph glyph-name="trademark" unicode="&#x2122;" horiz-adv-x="671" 
d="M248 698l8 -85h-2q-20 32 -56 32h-33v-186q0 -27 7.5 -44t19.5 -23v-2h-114v2q11 6 19 23.5t8 43.5v186h-34q-36 0 -56 -32h-2l7 85q32 -3 61 -3h107q30 0 60 3zM659 392v-2h-102v2q7 6 11.5 19.5t3.5 33.5l-8 91q-1 12 1 38l1 26h-3q-2 -6 -8 -22.5t-15 -29.5l-54 -94
q-18 -29 -22 -55h-3q-4 26 -22 55l-53 90q-9 16 -15 33q-6 16 -10 23h-1v-21q0 -8 0.5 -19t-0.5 -24l-6 -91q-1 -20 3.5 -33.5t11.5 -19.5v-2h-100v2q12 13 19 27t8 35l13 170q2 19 -4.5 40t-19.5 29v2h101v-2q-2 -3 -2 -9q0 -12 10 -29l49 -86q13 -21 18 -49h2q6 20 20 44
l53 92q11 17 11 27q0 6 -3 10v2h100v-2q-14 -8 -20.5 -28t-4.5 -41l14 -170q4 -40 26 -62z" />
    <glyph glyph-name="product" unicode="&#x220f;" horiz-adv-x="579" 
d="M489 585v-494q0 -42 4 -59t15 -30l-1 -2h-158l-1 2q7 11 10.5 30t3.5 59v494h-140v-494q0 -40 3.5 -57.5t12.5 -31.5l-1 -2h-154l-2 2q7 11 10.5 30t3.5 59v493q-31 -1 -49.5 -7t-32.5 -17l-2 1l15 134h434q41 0 65 6.5t41 19.5l2 -1l-13 -135h-66z" />
    <glyph glyph-name="summation" unicode="&#x2211;" horiz-adv-x="465" 
d="M456 150l-20 -150h-406v2l174 347l-166 344v2h396l-17 -142h-2q-21 33 -87 33h-100l114 -238l-116 -238h122q37 0 61 10.5t45 29.5h2z" />
    <glyph glyph-name="minus" unicode="&#x2212;" horiz-adv-x="476" 
d="M12 257l15 121h329q41 0 65 6.5t41 19.5l2 -1l-13 -122h-329q-43 0 -67 -5.5t-41 -19.5z" />
    <glyph glyph-name="radical" unicode="&#x221a;" horiz-adv-x="611" 
d="M601 551h-2q-8 23 -29 33.5t-57 10.5h-46l-158 -594h-167l-103 330q-10 33 -23.5 52t-31.5 33v2h172q-1 -4 -1 -11q0 -9 3.5 -23.5t9.5 -34.5l49 -177q5 -18 7 -45h5q1 19 7 45l128 523h255z" />
    <glyph glyph-name="integral" unicode="&#x222b;" horiz-adv-x="321" 
d="M-9 109h2q9 -15 25 -15q15 0 28 13.5t17 36.5l70 447q19 130 159 130q22 0 59 -5l-26 -126h-2q-12 10 -25 10q-15 0 -26.5 -10.5t-14.5 -28.5l-71 -451q-9 -61 -44 -95.5t-110 -34.5q-24 0 -62 5z" />
    <glyph glyph-name="approxequal" unicode="&#x2248;" horiz-adv-x="446" 
d="M15 269q-2 41 14.5 76t47 55.5t67.5 20.5q29 0 51.5 -8.5t47.5 -23.5q18 -10 29.5 -15t22.5 -5q20 0 31.5 14.5t11.5 35.5q0 6 -2 16l2 2l94 -29q3 -38 -13 -73.5t-46.5 -58t-66.5 -22.5q-31 0 -53 9t-48 25q-19 11 -29 16t-22 5q-18 0 -28 -14t-10 -33q0 -11 3 -20
l-2 -2zM15 59q-2 41 14.5 76t47 55.5t67.5 20.5q29 0 51.5 -8.5t47.5 -23.5q18 -10 29.5 -15t22.5 -5q20 0 31.5 14.5t11.5 35.5q0 6 -2 16l2 2l94 -29q3 -37 -13.5 -73t-47 -58.5t-65.5 -22.5q-31 0 -53 9t-48 25q-19 11 -29 16t-22 5q-18 0 -28 -14t-10 -33q0 -11 3 -20
l-2 -2z" />
    <glyph glyph-name="notequal" unicode="&#x2260;" horiz-adv-x="498" 
d="M472 313l2 -1l-12 -125h-193l-10 -36q-13 -45 -13 -65q0 -15 5 -24l-1 -2h-155l-1 2q17 14 27.5 34.5t20.5 54.5l10 36h-19q-43 0 -67 -5.5t-41 -19.5l-2 1l15 130h145l17 59h-67q-42 0 -66 -5t-41 -15l-2 1l14 124h192l6 20q13 42 13 65q0 14 -5 24l1 2h157l1 -2
q-16 -10 -28 -31.5t-23 -57.5l-6 -20h21q41 0 65 6.5t41 19.5l2 -1l-13 -130h-146l-16 -59h67q69 0 105 20z" />
    <glyph glyph-name="lessequal" unicode="&#x2264;" horiz-adv-x="399" 
d="M282 192l-274 154v76l275 160q41 24 64 49l2 -1l13 -142l-2 -2q-17 1 -28.5 -2t-28.5 -13l-142 -82l145 -75q4 -2 15.5 -8t20.5 -8t20 -1l2 -2l-18 -154l-2 -1q-24 30 -62 52zM377 123l-12 -123h-243q-43 0 -67 -5.5t-41 -19.5l-2 1l15 128h243q69 0 105 20z" />
    <glyph glyph-name="greaterequal" unicode="&#x2265;" horiz-adv-x="397" 
d="M70.5 462q-11.5 6 -20.5 8t-20 1l-2 2l18 154l2 1q24 -30 62 -52l274 -154v-76l-275 -160q-41 -24 -64 -49l-2 1l-13 142l2 2q17 -1 28.5 2t28.5 13l142 82l-145 75q-4 2 -15.5 8zM387 122l-12 -122h-243q-43 0 -67 -5.5t-41 -19.5l-2 1l15 127h243q69 0 105 20z" />
    <glyph glyph-name="lozenge" unicode="&#x25ca;" horiz-adv-x="534" 
d="M521 341l-222 -341h-64l-222 341l222 341h64zM382 329l-123 188l-107 -164l123 -188z" />
    <glyph glyph-name="zero.osf" horiz-adv-x="672" 
d="M183.5 17q-62.5 36 -95.5 99.5t-33 143.5q0 83 34.5 148t98.5 102t151 37q81 0 144.5 -35t98.5 -98t35 -144q0 -84 -35 -149.5t-100 -102.5t-151 -37q-85 0 -147.5 36zM437.5 128q35.5 48 35.5 132q0 88 -36 138.5t-106 50.5q-62 0 -97 -46.5t-35 -132.5q0 -90 36 -140
t104 -50q63 0 98.5 48z" />
    <glyph glyph-name="one.osf" horiz-adv-x="373" 
d="M290.5 471.5q-15.5 -38.5 -15.5 -94.5v-228q0 -56 15.5 -94t35.5 -53v-2h-234v2q20 15 35.5 53.5t15.5 94.5v266q-39 -2 -67 -13t-55 -37l-2 1l37 166q32 -6 135 -6h135v-2q-20 -15 -35.5 -53.5z" />
    <glyph glyph-name="two.osf" horiz-adv-x="513" 
d="M474 172l-29 -178q-31 4 -64 5t-85 1h-271l-2 2l31 35q59 64 199 222q41 47 41 92q0 37 -27 64t-73 27q-39 0 -78.5 -19t-69.5 -62l-2 1l29 152q80 32 160 32q59 0 104.5 -22.5t71 -63t25.5 -92.5q0 -76 -63 -145l-104 -112h75q41 0 70 15t60 47z" />
    <glyph glyph-name="three.osf" horiz-adv-x="497" 
d="M418 209.5q47 -52.5 47 -129.5q0 -71 -42 -126.5t-121.5 -86.5t-189.5 -31l-74 122l1 2q57 -17 111 -17q78 0 126.5 35t48.5 92q0 56 -38 85t-104 29q-33 0 -65 -2l-1 2l140 233h-97q-49 0 -80.5 -11t-54.5 -38l-2 1l35 165q46 -7 137 -7h243l-147 -250q80 -15 127 -67.5
z" />
    <glyph glyph-name="four.osf" horiz-adv-x="556" 
d="M450 23v-19q0 -56 15.5 -94t35.5 -53v-2h-220v2q20 15 35.5 53.5t15.5 94.5v18h-319v2l126 391q17 54 17 91q0 14 -1 20h188v-2q-26 -23 -46.5 -61t-47.5 -110l-84 -232l167 -1v107q0 35 -5 66.5t-14 43.5l1 2l161 40l1 -2q-26 -28 -26 -111v-146q35 2 60 12.5t44 35.5
l2 -1l-22 -151q-42 5 -84 6z" />
    <glyph glyph-name="five.osf" horiz-adv-x="493" 
d="M396.5 233q70.5 -52 70.5 -152q0 -76 -45.5 -131t-127 -84.5t-188.5 -29.5l-74 122l1 2q63 -18 120 -18q77 0 126 31t49 86q0 70 -45.5 98t-125.5 28q-68 0 -118 -12l-2 1l24 352h196q86 0 148 7l28 -176l-2 -1q-25 32 -58 45t-90 13h-123l-9 -132q30 3 59 3
q116 0 186.5 -52z" />
    <glyph glyph-name="six.osf" horiz-adv-x="606" 
d="M175 20.5q-57 36.5 -88.5 108.5t-31.5 175q0 118 49 203.5t130 131.5t177 52l74 -122l-1 -2q-37 12 -74 12q-59 0 -111.5 -28.5t-84.5 -75t-35 -98.5l2 -1q30 35 69 51.5t92 16.5q60 0 111 -24t81.5 -73.5t30.5 -122.5q0 -65 -30 -119.5t-88 -87.5t-138 -33
q-77 0 -134 36.5zM396.5 118q30.5 36 30.5 97t-30 95.5t-83 34.5q-52 0 -81.5 -35t-29.5 -95q0 -61 30 -97t81 -36q52 0 82.5 36z" />
    <glyph glyph-name="seven.osf" horiz-adv-x="484" 
d="M281 -77q0 -44 24 -66l-1 -2h-216l-1 2q24 29 40.5 58t34.5 76l161 415h-181q-52 0 -84.5 -15t-53.5 -45l-2 1l31 186q48 -6 141 -6h300l1 -2l-181 -531q-13 -39 -13 -71z" />
    <glyph glyph-name="eight.osf" horiz-adv-x="581" 
d="M540 188q0 -63 -32 -109t-88.5 -70.5t-128.5 -24.5q-73 0 -130 24.5t-88.5 68.5t-31.5 101q0 47 23.5 85.5t68.5 64.5q-38 26 -55.5 61t-17.5 82q0 99 64.5 151.5t171.5 52.5q68 0 118.5 -24.5t77.5 -66.5t27 -93q0 -85 -66 -142q87 -46 87 -161zM217 554.5
q-26 -21.5 -26 -57.5q0 -30 15.5 -48t40 -27.5t66.5 -21.5l41 -12q18 20 29 45.5t11 47.5q0 42 -30 68.5t-78 26.5q-43 0 -69 -21.5zM378 106q29 23 29 62q0 31 -18.5 50t-46.5 29.5t-78 24.5q-13 3 -31 8q-57 -31 -57 -92q0 -46 35.5 -75.5t89.5 -29.5q48 0 77 23z" />
    <glyph glyph-name="nine.osf" horiz-adv-x="593" 
d="M418 508.5q57 -36.5 88.5 -108.5t31.5 -175q0 -118 -49 -203.5t-130 -131.5t-177 -52l-74 122l1 2q38 -12 74 -12q59 0 111.5 28.5t84.5 75t35 98.5l-2 1q-30 -35 -69 -51.5t-92 -16.5q-60 0 -111 24t-81.5 73.5t-30.5 122.5q0 65 30 119.5t88 87.5t138 33
q77 0 134 -36.5zM196.5 411q-30.5 -36 -30.5 -97t30 -95.5t83 -34.5q52 0 81.5 35t29.5 95q0 61 -30 97t-81 36q-52 0 -82.5 -36z" />
    <glyph glyph-name="period.ss02" horiz-adv-x="238" 
d="M65 -32q-3 29 -13 60.5t-33 85.5q72 35 144 77l2 -2q1 -24 11 -52.5t42 -102.5q-18 -8 -93 -42l-58 -26z" />
    <glyph glyph-name="comma.ss02" horiz-adv-x="235" 
d="M180.5 130q24.5 -31 24.5 -81q0 -47 -26.5 -100t-67.5 -95l-63 29v2q21 17 35.5 43.5t18.5 56.5q-34 4 -56 29t-22 59q0 37 26 62.5t63 25.5q43 0 67.5 -31z" />
    <glyph glyph-name="ampersand.ss01" horiz-adv-x="694" 
d="M719 68l-157 -97q-16 24 -60 68q-74 -58 -195 -58q-78 0 -138 26t-93.5 74t-33.5 113q0 59 27.5 108t81.5 76q-35 39 -50 74t-15 83q0 81 67.5 128t182.5 47q66 0 158 -25l14 -146l-2 -1q-26 32 -74 51t-106 19q-103 0 -103 -80q0 -48 48 -94l180 -173v97q0 57 -19 89v2
h178v-2q-21 -12 -27.5 -36.5t-6.5 -72.5v-140q0 -28 -6 -52q48 -45 82 -61.5t66 -14.5zM216 114.5q38 -32.5 96 -32.5q33 0 60.5 9.5t45.5 27.5l-189 182q-24 -16 -37.5 -41t-13.5 -56q0 -57 38 -89.5z" />
    <glyph glyph-name="brevecombcy" horiz-adv-x="0" 
d="M-379.5 780.5q-46.5 38.5 -58.5 103.5l102 34l1 -2q-2 -10 -2 -16q0 -29 20 -51t56 -22q37 0 57.5 22t20.5 51q0 6 -2 16l1 2l100 -33q-16 -66 -62 -104.5t-115 -38.5q-72 0 -118.5 38.5z" />
    </font>
</defs>
</svg>
